<mxfile host="app.diagrams.net" agent="Mozilla/5.0 (Windows NT 10.0; Win64; x64) AppleWebKit/537.36 (KHTML, like Gecko) Chrome/130.0.0.0 Safari/537.36" version="24.7.17" pages="2">
  <diagram name="Page-1" id="197159a0-c6a4-9194-75a8-e4174976684c">
    <mxGraphModel dx="1434" dy="822" grid="1" gridSize="10" guides="1" tooltips="1" connect="1" arrows="1" fold="1" page="1" pageScale="1.5" pageWidth="1169" pageHeight="826" background="none" math="0" shadow="0">
      <root>
        <mxCell id="0" style=";html=1;" />
        <mxCell id="1" style=";html=1;" parent="0" />
        <mxCell id="lAx5uchjGVzoTK3gPOGS-31" value="" style="edgeStyle=none;curved=1;rounded=0;orthogonalLoop=1;jettySize=auto;html=1;fontSize=12;startSize=8;endSize=8;strokeWidth=3;fillColor=#e3c800;strokeColor=#B09500;" parent="1" source="lAx5uchjGVzoTK3gPOGS-9" target="lAx5uchjGVzoTK3gPOGS-10" edge="1">
          <mxGeometry relative="1" as="geometry" />
        </mxCell>
        <mxCell id="lAx5uchjGVzoTK3gPOGS-76" value="To synchronize Master Data" style="edgeLabel;html=1;align=center;verticalAlign=bottom;resizable=0;points=[];fontSize=12;" parent="lAx5uchjGVzoTK3gPOGS-31" vertex="1" connectable="0">
          <mxGeometry x="0.0834" y="-1" relative="1" as="geometry">
            <mxPoint as="offset" />
          </mxGeometry>
        </mxCell>
        <mxCell id="lAx5uchjGVzoTK3gPOGS-9" value="OVS MIS" style="shape=image;verticalLabelPosition=bottom;labelBackgroundColor=#ffffff;verticalAlign=top;aspect=fixed;imageAspect=0;image=data:image/svg+xml,PHN2ZyB4bWxuczpjYz0iaHR0cDovL2NyZWF0aXZlY29tbW9ucy5vcmcvbnMjIiB4bWxuczpkYz0iaHR0cDovL3B1cmwub3JnL2RjL2VsZW1lbnRzLzEuMS8iIHhtbG5zOmlua3NjYXBlPSJodHRwOi8vd3d3Lmlua3NjYXBlLm9yZy9uYW1lc3BhY2VzL2lua3NjYXBlIiB4bWxuczpyZGY9Imh0dHA6Ly93d3cudzMub3JnLzE5OTkvMDIvMjItcmRmLXN5bnRheC1ucyMiIHhtbG5zOnNvZGlwb2RpPSJodHRwOi8vc29kaXBvZGkuc291cmNlZm9yZ2UubmV0L0RURC9zb2RpcG9kaS0wLmR0ZCIgeG1sbnM6c3ZnPSJodHRwOi8vd3d3LnczLm9yZy8yMDAwL3N2ZyIgeG1sbnM9Imh0dHA6Ly93d3cudzMub3JnLzIwMDAvc3ZnIiB4bWxuczp4bGluaz0iaHR0cDovL3d3dy53My5vcmcvMTk5OS94bGluayIgdmVyc2lvbj0iMS4xIiBpZD0ic3ZnMTQzMzg3IiBpbmtzY2FwZTp2ZXJzaW9uPSIwLjkyLjMgKDI0MDU1NDYsIDIwMTgtMDMtMTEpIiBzb2RpcG9kaTpkb2NuYW1lPSJkYXRhYmFzZV9zZXJ2ZXIuc3ZnIiB4PSIwcHgiIHk9IjBweCIgdmlld0JveD0iMCAwIDYzLjA0IDc5LjQ5IiBzdHlsZT0iZW5hYmxlLWJhY2tncm91bmQ6bmV3IDAgMCA2My4wNCA3OS40OTsiIHhtbDpzcGFjZT0icHJlc2VydmUiPiYjeGE7PHNvZGlwb2RpOm5hbWVkdmlldyBib3JkZXJjb2xvcj0iIzY2NjY2NiIgYm9yZGVyb3BhY2l0eT0iMSIgZml0LW1hcmdpbi1ib3R0b209IjAiIGZpdC1tYXJnaW4tbGVmdD0iMCIgZml0LW1hcmdpbi1yaWdodD0iMCIgZml0LW1hcmdpbi10b3A9IjAiIGdyaWR0b2xlcmFuY2U9IjEwIiBndWlkZXRvbGVyYW5jZT0iMTAiIGlkPSJuYW1lZHZpZXcxNDMzODkiIGlua3NjYXBlOmN1cnJlbnQtbGF5ZXI9InN2ZzE0MzM4NyIgaW5rc2NhcGU6Y3g9IjQyLjAyOTk4NiIgaW5rc2NhcGU6Y3k9IjUyLjk5MTY0OCIgaW5rc2NhcGU6cGFnZW9wYWNpdHk9IjAiIGlua3NjYXBlOnBhZ2VzaGFkb3c9IjIiIGlua3NjYXBlOndpbmRvdy1oZWlnaHQ9IjEwMTciIGlua3NjYXBlOndpbmRvdy1tYXhpbWl6ZWQ9IjEiIGlua3NjYXBlOndpbmRvdy13aWR0aD0iMTkyMCIgaW5rc2NhcGU6d2luZG93LXg9Ii04IiBpbmtzY2FwZTp3aW5kb3cteT0iLTgiIGlua3NjYXBlOnpvb209IjguMDI4NDkxNSIgb2JqZWN0dG9sZXJhbmNlPSIxMCIgcGFnZWNvbG9yPSIjZmZmZmZmIiBzaG93Z3JpZD0iZmFsc2UiPiYjeGE7CTwvc29kaXBvZGk6bmFtZWR2aWV3PiYjeGE7PGcgaWQ9ImcxNDMzODUiIHRyYW5zZm9ybT0idHJhbnNsYXRlKC0wLjc1LC0wLjc1MDE2NjY1KSI+JiN4YTsJPHRpdGxlIGlkPSJ0aXRsZTE0MzI4NCI+UGFnZS0xPC90aXRsZT4mI3hhOwk8ZyBpZD0iZ3JvdXA3ODc0LTEiIHRyYW5zZm9ybT0idHJhbnNsYXRlKDEuNSwtMS41KSI+JiN4YTsJCTx0aXRsZSBpZD0idGl0bGUxNDMyODYiPkRhdGFiYXNlIFNlcnZlcjwvdGl0bGU+JiN4YTsJCTxnIGlkPSJncm91cDc4NzUtMiIgdHJhbnNmb3JtPSJ0cmFuc2xhdGUoMCwtOS43NDI1KSI+JiN4YTsJCQk8dGl0bGUgaWQ9InRpdGxlMTQzMjg4Ij5nMzExNC4yMTA4NDwvdGl0bGU+JiN4YTsJCQk8ZyBpZD0ic2hhcGU3ODc2LTMiPiYjeGE7CQkJCTx0aXRsZSBpZD0idGl0bGUxNDMyOTAiPnJlY3QzMDg2PC90aXRsZT4mI3hhOwkJCQkmI3hhOwkJCQkJPHJlY3QgaWQ9InJlY3QxNDMyOTIiIHk9IjEyLjc0IiBzdHlsZT0iZmlsbDojRkZGRkZGO3N0cm9rZTojNTU2QThBO3N0cm9rZS13aWR0aDoxLjU7c3Ryb2tlLW1pdGVybGltaXQ6MzsiIHdpZHRoPSIzOS43NSIgaGVpZ2h0PSI2OC4yNSIvPiYjeGE7CQkJPC9nPiYjeGE7CQkJPGcgaWQ9Imdyb3VwNzg3Ny01IiB0cmFuc2Zvcm09InRyYW5zbGF0ZSgxLjUsLTAuNzUpIj4mI3hhOwkJCQk8dGl0bGUgaWQ9InRpdGxlMTQzMjk1Ij5nMzEwNjwvdGl0bGU+JiN4YTsJCQkJPGcgaWQ9InNoYXBlNzg3OC02IiB0cmFuc2Zvcm09InRyYW5zbGF0ZSgxOCkiPiYjeGE7CQkJCQk8dGl0bGUgaWQ9InRpdGxlMTQzMjk3Ij5yZWN0MzA4ODwvdGl0bGU+JiN4YTsJCQkJCTxyZWN0IGlkPSJyZWN0MTQzMjk5IiB5PSIxNC4yNCIgc3R5bGU9ImZpbGw6I0U1RTVFNTsiIHdpZHRoPSIxOS41IiBoZWlnaHQ9IjY2Ljc1Ii8+JiN4YTsJCQkJPC9nPiYjeGE7CQkJCTxnIGlkPSJzaGFwZTc4NzktOCIgdHJhbnNmb3JtPSJ0cmFuc2xhdGUoMCwtNDgpIj4mI3hhOwkJCQkJPHRpdGxlIGlkPSJ0aXRsZTE0MzMwMiI+cmVjdDMwOTA8L3RpdGxlPiYjeGE7CQkJCQk8cmVjdCBpZD0icmVjdDE0MzMwNCIgeT0iNzguNzQiIHN0eWxlPSJmaWxsOiMyQkM3RjQ7IiB3aWR0aD0iMTgiIGhlaWdodD0iMi4yNSIvPiYjeGE7CQkJCTwvZz4mI3hhOwkJCQk8ZyBpZD0ic2hhcGU3ODgwLTEwIiB0cmFuc2Zvcm09InRyYW5zbGF0ZSgwLC01OC41KSI+JiN4YTsJCQkJCTx0aXRsZSBpZD0idGl0bGUxNDMzMDciPnBvbHlnb24zMDkyPC90aXRsZT4mI3hhOwkJCQkJPHJlY3QgaWQ9InJlY3QxNDMzMDkiIHk9Ijc4Ljc0IiBzdHlsZT0iZmlsbDpub25lOyIgd2lkdGg9IjI3IiBoZWlnaHQ9IjIuMjUiLz4mI3hhOwkJCQk8L2c+JiN4YTsJCQkJPGcgaWQ9InNoYXBlNzg4MS0xMiIgdHJhbnNmb3JtPSJ0cmFuc2xhdGUoMCwtNTguNSkiPiYjeGE7CQkJCQk8dGl0bGUgaWQ9InRpdGxlMTQzMzEyIj5wb2x5bGluZTMwOTQ8L3RpdGxlPiYjeGE7CQkJCQk8cmVjdCBpZD0icmVjdDE0MzMxNCIgeT0iNzguNzQiIHN0eWxlPSJmaWxsOm5vbmU7IiB3aWR0aD0iMjciIGhlaWdodD0iMi4yNSIvPiYjeGE7CQkJCTwvZz4mI3hhOwkJCQk8ZyBpZD0ic2hhcGU3ODgyLTE0IiB0cmFuc2Zvcm09InRyYW5zbGF0ZSgwLC01My4yNSkiPiYjeGE7CQkJCQk8dGl0bGUgaWQ9InRpdGxlMTQzMzE3Ij5yZWN0MzA5NjwvdGl0bGU+JiN4YTsJCQkJCTxyZWN0IGlkPSJyZWN0MTQzMzE5IiB5PSI3OC43NCIgc3R5bGU9ImZpbGw6IzJCQzdGNDsiIHdpZHRoPSIxOCIgaGVpZ2h0PSIyLjI1Ii8+JiN4YTsJCQkJPC9nPiYjeGE7CQkJCTxnIGlkPSJzaGFwZTc4ODMtMTYiIHRyYW5zZm9ybT0idHJhbnNsYXRlKDAsLTU4LjUpIj4mI3hhOwkJCQkJPHRpdGxlIGlkPSJ0aXRsZTE0MzMyMiI+cmVjdDMwOTg8L3RpdGxlPiYjeGE7CQkJCQk8cmVjdCBpZD0icmVjdDE0MzMyNCIgeT0iNzguNzQiIHN0eWxlPSJmaWxsOiMyQkM3RjQ7IiB3aWR0aD0iMTgiIGhlaWdodD0iMi4yNSIvPiYjeGE7CQkJCTwvZz4mI3hhOwkJCQk8ZyBpZD0ic2hhcGU3ODg0LTE4IiB0cmFuc2Zvcm09InRyYW5zbGF0ZSgxOCwtNDgpIj4mI3hhOwkJCQkJPHRpdGxlIGlkPSJ0aXRsZTE0MzMyNyI+cmVjdDMxMDA8L3RpdGxlPiYjeGE7CQkJCQk8cmVjdCBpZD0icmVjdDE0MzMyOSIgeT0iNzguNzQiIHN0eWxlPSJmaWxsOiM1NTZBOEE7IiB3aWR0aD0iMTkuNSIgaGVpZ2h0PSIyLjI1Ii8+JiN4YTsJCQkJPC9nPiYjeGE7CQkJCTxnIGlkPSJzaGFwZTc4ODUtMjAiIHRyYW5zZm9ybT0idHJhbnNsYXRlKDE4LC01My4yNSkiPiYjeGE7CQkJCQk8dGl0bGUgaWQ9InRpdGxlMTQzMzMyIj5yZWN0MzEwMjwvdGl0bGU+JiN4YTsJCQkJCTxyZWN0IGlkPSJyZWN0MTQzMzM0IiB5PSI3OC43NCIgc3R5bGU9ImZpbGw6IzU1NkE4QTsiIHdpZHRoPSIxOS41IiBoZWlnaHQ9IjIuMjUiLz4mI3hhOwkJCQk8L2c+JiN4YTsJCQkJPGcgaWQ9InNoYXBlNzg4Ni0yMiIgdHJhbnNmb3JtPSJ0cmFuc2xhdGUoMTgsLTU4LjUpIj4mI3hhOwkJCQkJPHRpdGxlIGlkPSJ0aXRsZTE0MzMzNyI+cmVjdDMxMDQ8L3RpdGxlPiYjeGE7CQkJCQk8cmVjdCBpZD0icmVjdDE0MzMzOSIgeT0iNzguNzQiIHN0eWxlPSJmaWxsOiM1NTZBOEE7IiB3aWR0aD0iMTkuNSIgaGVpZ2h0PSIyLjI1Ii8+JiN4YTsJCQkJPC9nPiYjeGE7CQkJPC9nPiYjeGE7CQkJPGcgaWQ9InNoYXBlNzg4Ny0yNCIgdHJhbnNmb3JtPSJ0cmFuc2xhdGUoMC43NSwtNTkuMjUpIj4mI3hhOwkJCQk8dGl0bGUgaWQ9InRpdGxlMTQzMzQzIj5yZWN0MzEwODwvdGl0bGU+JiN4YTsJCQkJPHJlY3QgaWQ9InJlY3QxNDMzNDUiIHk9Ijc4Ljc0IiBzdHlsZT0iZmlsbDojNTU2QThBOyIgd2lkdGg9IjIuMjUiIGhlaWdodD0iMi4yNSIvPiYjeGE7CQkJPC9nPiYjeGE7CQkJPGcgaWQ9InNoYXBlNzg4OC0yNiIgdHJhbnNmb3JtPSJ0cmFuc2xhdGUoMC43NSwtNTQpIj4mI3hhOwkJCQk8dGl0bGUgaWQ9InRpdGxlMTQzMzQ4Ij5yZWN0MzExMDwvdGl0bGU+JiN4YTsJCQkJPHJlY3QgaWQ9InJlY3QxNDMzNTAiIHk9Ijc4Ljc0IiBzdHlsZT0iZmlsbDojNTU2QThBOyIgd2lkdGg9IjIuMjUiIGhlaWdodD0iMi4yNSIvPiYjeGE7CQkJPC9nPiYjeGE7CQkJPGcgaWQ9InNoYXBlNzg4OS0yOCIgdHJhbnNmb3JtPSJ0cmFuc2xhdGUoMC43NSwtNDguNzUpIj4mI3hhOwkJCQk8dGl0bGUgaWQ9InRpdGxlMTQzMzUzIj5yZWN0MzExMjwvdGl0bGU+JiN4YTsJCQkJPHJlY3QgaWQ9InJlY3QxNDMzNTUiIHk9Ijc4Ljc0IiBzdHlsZT0iZmlsbDojNTU2QThBOyIgd2lkdGg9IjIuMjUiIGhlaWdodD0iMi4yNSIvPiYjeGE7CQkJPC9nPiYjeGE7CQk8L2c+JiN4YTsJCTxnIGlkPSJncm91cDc4OTAtMzAiIHRyYW5zZm9ybT0idHJhbnNsYXRlKDI2LjI1KSI+JiN4YTsJCQk8dGl0bGUgaWQ9InRpdGxlMTQzMzU5Ij5nMzEyNC4yMTA5OTwvdGl0bGU+JiN4YTsJCQk8ZyBpZD0ic2hhcGU3ODkxLTMxIj4mI3hhOwkJCQk8dGl0bGUgaWQ9InRpdGxlMTQzMzYxIj5wYXRoMzExNjwvdGl0bGU+JiN4YTsJCQkJPHBhdGggaWQ9InBhdGgxNDMzNjMiIGlua3NjYXBlOmNvbm5lY3Rvci1jdXJ2YXR1cmU9IjAiIHN0eWxlPSJmaWxsOiNGRkZGRkY7IiBkPSJNMzEuNzksNDAuODJsLTEwLjM1LDAuMDlMMCw0MS4wOXYzMy4zNSAgICAgIGMwLDMuNDIsNy41LDYuMzcsMTcuMjUsNi41NWgwLjM3YzEuMzIsMCwyLjYtMC4wNywzLjgyLTAuMTljMy41Ny0wLjIyLDcuMDgtMS4wNywxMC4zNS0yLjUzYzIuMTktMS4wOSwzLjQ2LTIuNDIsMy40Ni0zLjgzICAgICAgVjQwLjc5TDMxLjc5LDQwLjgyeiIvPiYjeGE7CQkJPC9nPiYjeGE7CQkJPGcgaWQ9InNoYXBlNzg5Mi0zMyIgdHJhbnNmb3JtPSJ0cmFuc2xhdGUoMjEuMTUsLTAuMTg3NSkiPiYjeGE7CQkJCTx0aXRsZSBpZD0idGl0bGUxNDMzNjYiPnBhdGgzMTE4PC90aXRsZT4mI3hhOwkJCQk8cGF0aCBpZD0icGF0aDE0MzM2OCIgaW5rc2NhcGU6Y29ubmVjdG9yLWN1cnZhdHVyZT0iMCIgc3R5bGU9ImZpbGw6I0U1RTVFNTsiIGQ9Ik0xMC4zNSw0MS4wMXYzNy40NSAgICAgIEM3LjA4LDc5LjkyLDMuNTcsODAuNzcsMCw4MC45OVY0MS4xTDEwLjM1LDQxLjAxeiIvPiYjeGE7CQkJPC9nPiYjeGE7CQkJPGcgaWQ9InNoYXBlNzg5My0zNSI+JiN4YTsJCQkJPHRpdGxlIGlkPSJ0aXRsZTE0MzM3MSI+cGF0aDMxMjA8L3RpdGxlPiYjeGE7CQkJCTxwYXRoIGlkPSJwYXRoMTQzMzczIiBpbmtzY2FwZTpjb25uZWN0b3ItY3VydmF0dXJlPSIwIiBzdHlsZT0iZmlsbDpub25lOyIgZD0iTTAsNDEuMDl2MzMuMzVjMCwzLjQyLDcuNDYsNi4zNywxNy4yNSw2LjU1aDAuMzcgICAgICBjOS45Ny0wLjExLDE3LjYzLTMuMDksMTcuNjMtNi41NVY0MC43OUwwLDQxLjA5eiIvPiYjeGE7CQkJCSYjeGE7CQkJCQk8cGF0aCBpZD0icGF0aDE0MzM3NSIgaW5rc2NhcGU6Y29ubmVjdG9yLWN1cnZhdHVyZT0iMCIgc3R5bGU9ImZpbGw6bm9uZTtzdHJva2U6IzU1NkE4QTtzdHJva2Utd2lkdGg6MS41O3N0cm9rZS1taXRlcmxpbWl0OjM7IiBkPSIgICAgICBNMCw0MS4wOXYzMy4zNWMwLDMuNDIsNy40Niw2LjM3LDE3LjI1LDYuNTVoMC4zN2M5Ljk3LTAuMTEsMTcuNjMtMy4wOSwxNy42My02LjU1VjQwLjc5Ii8+JiN4YTsJCQk8L2c+JiN4YTsJCQk8ZyBpZD0ic2hhcGU3ODk0LTM4IiB0cmFuc2Zvcm09InRyYW5zbGF0ZSgwLjA0NSwtMzMuNDQyNSkiPiYjeGE7CQkJCTx0aXRsZSBpZD0idGl0bGUxNDMzNzgiPnBhdGgzMTIyPC90aXRsZT4mI3hhOwkJCQkmI3hhOwkJCQkJPHBhdGggaWQ9InBhdGgxNDMzODAiIGlua3NjYXBlOmNvbm5lY3Rvci1jdXJ2YXR1cmU9IjAiIHN0eWxlPSJmaWxsOiNCQUQ4MEE7c3Ryb2tlOiM1NTZBOEE7c3Ryb2tlLXdpZHRoOjEuNTtzdHJva2UtbWl0ZXJsaW1pdDozOyIgZD0iICAgICAgTTM1LjI1LDc0LjYyYzAsMy41Mi03Ljg5LDYuMzctMTcuNjMsNi4zN0M3Ljg5LDgwLjk5LDAsNzguMTQsMCw3NC42MmMwLTMuNTEsOC4xMy02LjM2LDE3Ljg2LTYuMzYgICAgICBDMjcuNTgsNjguMjYsMzUuMjUsNzEuMTEsMzUuMjUsNzQuNjJ6Ii8+JiN4YTsJCQk8L2c+JiN4YTsJCTwvZz4mI3hhOwk8L2c+JiN4YTs8L2c+JiN4YTs8L3N2Zz4=;fontStyle=1" parent="1" vertex="1">
          <mxGeometry x="1195" y="790" width="71.77" height="90" as="geometry" />
        </mxCell>
        <mxCell id="lAx5uchjGVzoTK3gPOGS-50" style="edgeStyle=none;curved=1;rounded=0;orthogonalLoop=1;jettySize=auto;html=1;entryX=1;entryY=1;entryDx=0;entryDy=0;fontSize=12;startSize=8;endSize=8;spacingTop=0;spacingLeft=0;fillColor=#e3c800;strokeColor=#B09500;strokeWidth=3;" parent="1" target="lAx5uchjGVzoTK3gPOGS-26" edge="1">
          <mxGeometry relative="1" as="geometry">
            <mxPoint x="840" y="810" as="sourcePoint" />
          </mxGeometry>
        </mxCell>
        <mxCell id="lAx5uchjGVzoTK3gPOGS-10" value="DJK DWH&#xa;(Datawarehouse)" style="shape=image;verticalLabelPosition=bottom;labelBackgroundColor=#ffffff;verticalAlign=top;aspect=fixed;imageAspect=0;image=data:image/svg+xml,PHN2ZyB4bWxuczpjYz0iaHR0cDovL2NyZWF0aXZlY29tbW9ucy5vcmcvbnMjIiB4bWxuczpkYz0iaHR0cDovL3B1cmwub3JnL2RjL2VsZW1lbnRzLzEuMS8iIHhtbG5zOmlua3NjYXBlPSJodHRwOi8vd3d3Lmlua3NjYXBlLm9yZy9uYW1lc3BhY2VzL2lua3NjYXBlIiB4bWxuczpyZGY9Imh0dHA6Ly93d3cudzMub3JnLzE5OTkvMDIvMjItcmRmLXN5bnRheC1ucyMiIHhtbG5zOnNvZGlwb2RpPSJodHRwOi8vc29kaXBvZGkuc291cmNlZm9yZ2UubmV0L0RURC9zb2RpcG9kaS0wLmR0ZCIgeG1sbnM6c3ZnPSJodHRwOi8vd3d3LnczLm9yZy8yMDAwL3N2ZyIgeG1sbnM9Imh0dHA6Ly93d3cudzMub3JnLzIwMDAvc3ZnIiB4bWxuczp4bGluaz0iaHR0cDovL3d3dy53My5vcmcvMTk5OS94bGluayIgdmVyc2lvbj0iMS4xIiBpZD0ic3ZnMTY4OCIgaW5rc2NhcGU6dmVyc2lvbj0iMC45Mi4zICgyNDA1NTQ2LCAyMDE4LTAzLTExKSIgc29kaXBvZGk6ZG9jbmFtZT0ic3FsX3NlcnZlci5zdmciIHg9IjBweCIgeT0iMHB4IiB2aWV3Qm94PSIwIDAgNTEuMjggNjkuNzUiIHN0eWxlPSJlbmFibGUtYmFja2dyb3VuZDpuZXcgMCAwIDUxLjI4IDY5Ljc1OyIgeG1sOnNwYWNlPSJwcmVzZXJ2ZSI+JiN4YTs8c29kaXBvZGk6bmFtZWR2aWV3IGJvcmRlcmNvbG9yPSIjNjY2NjY2IiBib3JkZXJvcGFjaXR5PSIxIiBmaXQtbWFyZ2luLWJvdHRvbT0iMCIgZml0LW1hcmdpbi1sZWZ0PSIwIiBmaXQtbWFyZ2luLXJpZ2h0PSIwIiBmaXQtbWFyZ2luLXRvcD0iMCIgZ3JpZHRvbGVyYW5jZT0iMTAiIGd1aWRldG9sZXJhbmNlPSIxMCIgaWQ9Im5hbWVkdmlldzE2OTAiIGlua3NjYXBlOmN1cnJlbnQtbGF5ZXI9InN2ZzE2ODgiIGlua3NjYXBlOmN4PSI0MS44NDYxNDQiIGlua3NjYXBlOmN5PSI0My4wMzk0ODEiIGlua3NjYXBlOnBhZ2VvcGFjaXR5PSIwIiBpbmtzY2FwZTpwYWdlc2hhZG93PSIyIiBpbmtzY2FwZTp3aW5kb3ctaGVpZ2h0PSIxMDE3IiBpbmtzY2FwZTp3aW5kb3ctbWF4aW1pemVkPSIxIiBpbmtzY2FwZTp3aW5kb3ctd2lkdGg9IjE5MjAiIGlua3NjYXBlOndpbmRvdy14PSItOCIgaW5rc2NhcGU6d2luZG93LXk9Ii04IiBpbmtzY2FwZTp6b29tPSI4LjUwNjU2NTQiIG9iamVjdHRvbGVyYW5jZT0iMTAiIHBhZ2Vjb2xvcj0iI2ZmZmZmZiIgc2hvd2dyaWQ9ImZhbHNlIj4mI3hhOwk8L3NvZGlwb2RpOm5hbWVkdmlldz4mI3hhOzxnIGlkPSJnMTY4NiIgdHJhbnNmb3JtPSJ0cmFuc2xhdGUoLTAuNzUsLTAuNzUwMDY5MjMpIj4mI3hhOwk8dGl0bGUgaWQ9InRpdGxlMTU1OSI+UGFnZS0xPC90aXRsZT4mI3hhOwk8ZyBpZD0iZ3JvdXA3OTQ4LTEiIHRyYW5zZm9ybT0idHJhbnNsYXRlKDEuNSwtNi42OTA4MykiPiYjeGE7CQk8dGl0bGUgaWQ9InRpdGxlMTU2MSI+U1FMIFNlcnZlcjwvdGl0bGU+JiN4YTsJCTxnIGlkPSJncm91cDc5NDktMiI+JiN4YTsJCQk8dGl0bGUgaWQ9InRpdGxlMTU2MyI+U2hlZXQuNzk0OTwvdGl0bGU+JiN4YTsJCQk8ZyBpZD0iZ3JvdXA3OTUwLTMiPiYjeGE7CQkJCTx0aXRsZSBpZD0idGl0bGUxNTY1Ij5nMTY0MDg8L3RpdGxlPiYjeGE7CQkJCTxnIGlkPSJzaGFwZTc5NTEtNCI+JiN4YTsJCQkJCTx0aXRsZSBpZD0idGl0bGUxNTY3Ij5yZWN0MTYzODA8L3RpdGxlPiYjeGE7CQkJCQkmI3hhOwkJCQkJCTxyZWN0IGlkPSJyZWN0MTU2OSIgeT0iOC4xOSIgc3R5bGU9ImZpbGw6I0ZGRkZGRjtzdHJva2U6IzU1NkE4QTtzdHJva2Utd2lkdGg6MS41O3N0cm9rZS1taXRlcmxpbWl0OjM7IiB3aWR0aD0iMzkuNzUiIGhlaWdodD0iNjguMjUiLz4mI3hhOwkJCQk8L2c+JiN4YTsJCQkJPGcgaWQ9Imdyb3VwNzk1Mi02IiB0cmFuc2Zvcm09InRyYW5zbGF0ZSgxLjUsLTAuNzUpIj4mI3hhOwkJCQkJPHRpdGxlIGlkPSJ0aXRsZTE1NzIiPmcxNjQwMDwvdGl0bGU+JiN4YTsJCQkJCTxnIGlkPSJzaGFwZTc5NTMtNyIgdHJhbnNmb3JtPSJ0cmFuc2xhdGUoMTgpIj4mI3hhOwkJCQkJCTx0aXRsZSBpZD0idGl0bGUxNTc0Ij5yZWN0MTYzODI8L3RpdGxlPiYjeGE7CQkJCQkJPHJlY3QgaWQ9InJlY3QxNTc2IiB5PSI5LjY5IiBzdHlsZT0iZmlsbDojRTVFNUU1OyIgd2lkdGg9IjE5LjUiIGhlaWdodD0iNjYuNzUiLz4mI3hhOwkJCQkJPC9nPiYjeGE7CQkJCQk8ZyBpZD0ic2hhcGU3OTU0LTkiIHRyYW5zZm9ybT0idHJhbnNsYXRlKDAsLTQ4KSI+JiN4YTsJCQkJCQk8dGl0bGUgaWQ9InRpdGxlMTU3OSI+cmVjdDE2Mzg0PC90aXRsZT4mI3hhOwkJCQkJCTxyZWN0IGlkPSJyZWN0MTU4MSIgeT0iNzQuMTkiIHN0eWxlPSJmaWxsOiMyQkM3RjQ7IiB3aWR0aD0iMTgiIGhlaWdodD0iMi4yNSIvPiYjeGE7CQkJCQk8L2c+JiN4YTsJCQkJCTxnIGlkPSJzaGFwZTc5NTUtMTEiIHRyYW5zZm9ybT0idHJhbnNsYXRlKDAsLTU4LjUpIj4mI3hhOwkJCQkJCTx0aXRsZSBpZD0idGl0bGUxNTg0Ij5wb2x5Z29uMTYzODY8L3RpdGxlPiYjeGE7CQkJCQkJPHJlY3QgaWQ9InJlY3QxNTg2IiB5PSI3NC4xOSIgc3R5bGU9ImZpbGw6bm9uZTsiIHdpZHRoPSIyNyIgaGVpZ2h0PSIyLjI1Ii8+JiN4YTsJCQkJCTwvZz4mI3hhOwkJCQkJPGcgaWQ9InNoYXBlNzk1Ni0xMyIgdHJhbnNmb3JtPSJ0cmFuc2xhdGUoMCwtNTguNSkiPiYjeGE7CQkJCQkJPHRpdGxlIGlkPSJ0aXRsZTE1ODkiPnBvbHlsaW5lMTYzODg8L3RpdGxlPiYjeGE7CQkJCQkJPHJlY3QgaWQ9InJlY3QxNTkxIiB5PSI3NC4xOSIgc3R5bGU9ImZpbGw6bm9uZTsiIHdpZHRoPSIyNyIgaGVpZ2h0PSIyLjI1Ii8+JiN4YTsJCQkJCTwvZz4mI3hhOwkJCQkJPGcgaWQ9InNoYXBlNzk1Ny0xNSIgdHJhbnNmb3JtPSJ0cmFuc2xhdGUoMCwtNTMuMjUpIj4mI3hhOwkJCQkJCTx0aXRsZSBpZD0idGl0bGUxNTk0Ij5yZWN0MTYzOTA8L3RpdGxlPiYjeGE7CQkJCQkJPHJlY3QgaWQ9InJlY3QxNTk2IiB5PSI3NC4xOSIgc3R5bGU9ImZpbGw6IzJCQzdGNDsiIHdpZHRoPSIxOCIgaGVpZ2h0PSIyLjI1Ii8+JiN4YTsJCQkJCTwvZz4mI3hhOwkJCQkJPGcgaWQ9InNoYXBlNzk1OC0xNyIgdHJhbnNmb3JtPSJ0cmFuc2xhdGUoMCwtNTguNSkiPiYjeGE7CQkJCQkJPHRpdGxlIGlkPSJ0aXRsZTE1OTkiPnJlY3QxNjM5MjwvdGl0bGU+JiN4YTsJCQkJCQk8cmVjdCBpZD0icmVjdDE2MDEiIHk9Ijc0LjE5IiBzdHlsZT0iZmlsbDojMkJDN0Y0OyIgd2lkdGg9IjE4IiBoZWlnaHQ9IjIuMjUiLz4mI3hhOwkJCQkJPC9nPiYjeGE7CQkJCQk8ZyBpZD0ic2hhcGU3OTU5LTE5IiB0cmFuc2Zvcm09InRyYW5zbGF0ZSgxOCwtNDgpIj4mI3hhOwkJCQkJCTx0aXRsZSBpZD0idGl0bGUxNjA0Ij5yZWN0MTYzOTQ8L3RpdGxlPiYjeGE7CQkJCQkJPHJlY3QgaWQ9InJlY3QxNjA2IiB5PSI3NC4xOSIgc3R5bGU9ImZpbGw6IzU1NkE4QTsiIHdpZHRoPSIxOS41IiBoZWlnaHQ9IjIuMjUiLz4mI3hhOwkJCQkJPC9nPiYjeGE7CQkJCQk8ZyBpZD0ic2hhcGU3OTYwLTIxIiB0cmFuc2Zvcm09InRyYW5zbGF0ZSgxOCwtNTMuMjUpIj4mI3hhOwkJCQkJCTx0aXRsZSBpZD0idGl0bGUxNjA5Ij5yZWN0MTYzOTY8L3RpdGxlPiYjeGE7CQkJCQkJPHJlY3QgaWQ9InJlY3QxNjExIiB5PSI3NC4xOSIgc3R5bGU9ImZpbGw6IzU1NkE4QTsiIHdpZHRoPSIxOS41IiBoZWlnaHQ9IjIuMjUiLz4mI3hhOwkJCQkJPC9nPiYjeGE7CQkJCQk8ZyBpZD0ic2hhcGU3OTYxLTIzIiB0cmFuc2Zvcm09InRyYW5zbGF0ZSgxOCwtNTguNSkiPiYjeGE7CQkJCQkJPHRpdGxlIGlkPSJ0aXRsZTE2MTQiPnJlY3QxNjM5ODwvdGl0bGU+JiN4YTsJCQkJCQk8cmVjdCBpZD0icmVjdDE2MTYiIHk9Ijc0LjE5IiBzdHlsZT0iZmlsbDojNTU2QThBOyIgd2lkdGg9IjE5LjUiIGhlaWdodD0iMi4yNSIvPiYjeGE7CQkJCQk8L2c+JiN4YTsJCQkJPC9nPiYjeGE7CQkJCTxnIGlkPSJzaGFwZTc5NjItMjUiIHRyYW5zZm9ybT0idHJhbnNsYXRlKDAuNzUsLTU5LjI1KSI+JiN4YTsJCQkJCTx0aXRsZSBpZD0idGl0bGUxNjIwIj5yZWN0MTY0MDI8L3RpdGxlPiYjeGE7CQkJCQk8cmVjdCBpZD0icmVjdDE2MjIiIHk9Ijc0LjE5IiBzdHlsZT0iZmlsbDojNTU2QThBOyIgd2lkdGg9IjIuMjUiIGhlaWdodD0iMi4yNSIvPiYjeGE7CQkJCTwvZz4mI3hhOwkJCQk8ZyBpZD0ic2hhcGU3OTYzLTI3IiB0cmFuc2Zvcm09InRyYW5zbGF0ZSgwLjc1LC01NCkiPiYjeGE7CQkJCQk8dGl0bGUgaWQ9InRpdGxlMTYyNSI+cmVjdDE2NDA0PC90aXRsZT4mI3hhOwkJCQkJPHJlY3QgaWQ9InJlY3QxNjI3IiB5PSI3NC4xOSIgc3R5bGU9ImZpbGw6IzU1NkE4QTsiIHdpZHRoPSIyLjI1IiBoZWlnaHQ9IjIuMjUiLz4mI3hhOwkJCQk8L2c+JiN4YTsJCQkJPGcgaWQ9InNoYXBlNzk2NC0yOSIgdHJhbnNmb3JtPSJ0cmFuc2xhdGUoMC43NSwtNDguNzUpIj4mI3hhOwkJCQkJPHRpdGxlIGlkPSJ0aXRsZTE2MzAiPnJlY3QxNjQwNjwvdGl0bGU+JiN4YTsJCQkJCTxyZWN0IGlkPSJyZWN0MTYzMiIgeT0iNzQuMTkiIHN0eWxlPSJmaWxsOiM1NTZBOEE7IiB3aWR0aD0iMi4yNSIgaGVpZ2h0PSIyLjI1Ii8+JiN4YTsJCQkJPC9nPiYjeGE7CQkJPC9nPiYjeGE7CQk8L2c+JiN4YTsJCTxnIGlkPSJncm91cDc5NjUtMzEiIHRyYW5zZm9ybT0idHJhbnNsYXRlKDI4Ljk3MDgsLTUuNTQ5MTcpIj4mI3hhOwkJCTx0aXRsZSBpZD0idGl0bGUxNjM3Ij5TUUwgRGF0YWJhc2U8L3RpdGxlPiYjeGE7CQkJPGcgaWQ9InNoYXBlNzk2Ni0zMiI+JiN4YTsJCQkJPHRpdGxlIGlkPSJ0aXRsZTE2MzkiPlNoZWV0Ljc5NjY8L3RpdGxlPiYjeGE7CQkJCTxwYXRoIGlkPSJwYXRoMTY0MSIgaW5rc2NhcGU6Y29ubmVjdG9yLWN1cnZhdHVyZT0iMCIgc3R5bGU9ImZpbGw6IzAwNzJDNjsiIGQ9Ik0wLDUxLjc3djIwLjc3YzAsMi4xNSw0LjgzLDMuOSwxMC43OCwzLjlWNTEuNzcgICAgICBIMHoiLz4mI3hhOwkJCTwvZz4mI3hhOwkJCTxnIGlkPSJzaGFwZTc5NjctMzQiIHRyYW5zZm9ybT0idHJhbnNsYXRlKDEwLjYzMTQsLTUuNzUxMDVlLTQpIj4mI3hhOwkJCQk8dGl0bGUgaWQ9InRpdGxlMTY0NCI+U2hlZXQuNzk2NzwvdGl0bGU+JiN4YTsJCQkJPHBhdGggaWQ9InBhdGgxNjQ2IiBpbmtzY2FwZTpjb25uZWN0b3ItY3VydmF0dXJlPSIwIiBzdHlsZT0iZmlsbDojMDA3MkM2OyIgZD0iTTAsNzYuNDRoMC4xNWM1Ljk1LDAsMTAuNzgtMS43NSwxMC43OC0zLjkgICAgICBWNTEuNzdIMFY3Ni40NHoiLz4mI3hhOwkJCTwvZz4mI3hhOwkJCTxnIGlkPSJzaGFwZTc5NjgtMzYiIHRyYW5zZm9ybT0idHJhbnNsYXRlKDEwLjYzMTQsLTUuNzUxMDVlLTQpIj4mI3hhOwkJCQk8dGl0bGUgaWQ9InRpdGxlMTY0OSI+U2hlZXQuNzk2ODwvdGl0bGU+JiN4YTsJCQkJPHBhdGggaWQ9InBhdGgxNjUxIiBpbmtzY2FwZTpjb25uZWN0b3ItY3VydmF0dXJlPSIwIiBzdHlsZT0iZmlsbDojRkZGRkZGO2ZpbGwtb3BhY2l0eTowLjE1OyIgZD0iTTAsNzYuNDRoMC4xNSAgICAgIGM1Ljk1LDAsMTAuNzgtMS43NSwxMC43OC0zLjlWNTEuNzdIMFY3Ni40NHoiLz4mI3hhOwkJCTwvZz4mI3hhOwkJCTxnIGlkPSJzaGFwZTc5NjktMzgiIHRyYW5zZm9ybT0idHJhbnNsYXRlKDAsLTIwLjc2ODIpIj4mI3hhOwkJCQk8dGl0bGUgaWQ9InRpdGxlMTY1NCI+U2hlZXQuNzk2OTwvdGl0bGU+JiN4YTsJCQkJPHBhdGggaWQ9InBhdGgxNjU2IiBpbmtzY2FwZTpjb25uZWN0b3ItY3VydmF0dXJlPSIwIiBzdHlsZT0iZmlsbDojRkZGRkZGOyIgZD0iTTIxLjU2LDcyLjU0YzAsMi4xNS00LjgzLDMuOS0xMC43OCwzLjkgICAgICBTMCw3NC42OSwwLDcyLjU0YzAtMi4xNiw0LjgzLTMuOTEsMTAuNzgtMy45MVMyMS41Niw3MC4zOCwyMS41Niw3Mi41NHoiLz4mI3hhOwkJCTwvZz4mI3hhOwkJCTxnIGlkPSJzaGFwZTc5NzAtNDAiIHRyYW5zZm9ybT0idHJhbnNsYXRlKDIuMjAzMjMsLTIyLjMyMSkiPiYjeGE7CQkJCTx0aXRsZSBpZD0idGl0bGUxNjU5Ij5TaGVldC43OTcwPC90aXRsZT4mI3hhOwkJCQk8cGF0aCBpZD0icGF0aDE2NjEiIGlua3NjYXBlOmNvbm5lY3Rvci1jdXJ2YXR1cmU9IjAiIHN0eWxlPSJmaWxsOiM3RkJBMDA7IiBkPSJNMTcuMTUsNzMuODZjMCwxLjQzLTMuODQsMi41OC04LjU3LDIuNTggICAgICBDMy44NCw3Ni40NCwwLDc1LjI5LDAsNzMuODZjMC0xLjQyLDMuODQtMi41Nyw4LjU4LTIuNTdDMTMuMzEsNzEuMjksMTcuMTUsNzIuNDQsMTcuMTUsNzMuODZ6Ii8+JiN4YTsJCQk8L2c+JiN4YTsJCQk8ZyBpZD0ic2hhcGU3OTcxLTQyIiB0cmFuc2Zvcm09InRyYW5zbGF0ZSgyLjIwMzgsLTIzLjMyMjgpIj4mI3hhOwkJCQk8dGl0bGUgaWQ9InRpdGxlMTY2NCI+U2hlZXQuNzk3MTwvdGl0bGU+JiN4YTsJCQkJPHBhdGggaWQ9InBhdGgxNjY2IiBpbmtzY2FwZTpjb25uZWN0b3ItY3VydmF0dXJlPSIwIiBzdHlsZT0iZmlsbDojQjhENDMyOyIgZD0iTTE1LjM1LDc2LjQ0YzEuMTMtMC40MywxLjgtMC45OCwxLjgtMS41NyAgICAgIGMwLTEuNDMtMy44NC0yLjU4LTguNTctMi41OEMzLjg0LDcyLjI5LDAsNzMuNDQsMCw3NC44N2MwLDAuNTksMC42NywxLjE0LDEuOCwxLjU3YzEuNTYtMC42MSw0LjAxLTEsNi43OC0xICAgICAgQzExLjM0LDc1LjQ0LDEzLjc5LDc1LjgzLDE1LjM1LDc2LjQ0eiIvPiYjeGE7CQkJPC9nPiYjeGE7CQkJPGcgaWQ9InNoYXBlNzk3Mi00NCIgdHJhbnNmb3JtPSJ0cmFuc2xhdGUoMi45MjQ5OSwtOC4yMjU3MykiPiYjeGE7CQkJCTx0aXRsZSBpZD0idGl0bGUxNjY5Ij5TaGVldC43OTcyPC90aXRsZT4mI3hhOwkJCQk8cGF0aCBpZD0icGF0aDE2NzEiIGlua3NjYXBlOmNvbm5lY3Rvci1jdXJ2YXR1cmU9IjAiIHN0eWxlPSJmaWxsOiNGRkZGRkY7IiBkPSJNNC40Myw3NC40MWMwLDAuNjUtMC4yMywxLjE1LTAuNywxLjUgICAgICBzLTEuMTIsMC41My0xLjk0LDAuNTNjLTAuNywwLTEuMjktMC4xMy0xLjc2LTAuMzh2LTEuNTJjMC41NCwwLjQ2LDEuMTQsMC43LDEuOCwwLjdjMC4zMSwwLDAuNTYtMC4wNywwLjczLTAuMTkgICAgICBjMC4xNy0wLjEzLDAuMjYtMC4zLDAuMjYtMC41MWMwLTAuMi0wLjA4LTAuMzgtMC4yNS0wLjUzYy0wLjE3LTAuMTUtMC41LTAuMzUtMS4wMS0wLjU5QzAuNTIsNzIuOTMsMCw3Mi4yNywwLDcxLjQzICAgICAgYzAtMC42MSwwLjIzLTEuMSwwLjY4LTEuNDdzMS4wNS0wLjU1LDEuOC0wLjU1YzAuNjcsMCwxLjIyLDAuMDgsMS42NSwwLjI2djEuNDFjLTAuNDYtMC4zMS0wLjk4LTAuNDctMS41Ni0wLjQ3ICAgICAgYy0wLjMsMC0wLjUzLDAuMDYtMC43LDAuMTljLTAuMTcsMC4xMi0wLjI2LDAuMjktMC4yNiwwLjVzMC4wNywwLjM5LDAuMjEsMC41M2MwLjE0LDAuMTMsMC40MiwwLjMsMC44NSwwLjUxICAgICAgYzAuNjMsMC4zLDEuMDksMC42LDEuMzYsMC45MUM0LjMsNzMuNTYsNC40Myw3My45NSw0LjQzLDc0LjQxeiIvPiYjeGE7CQkJPC9nPiYjeGE7CQkJPGcgaWQ9InNoYXBlNzk3My00NiIgdHJhbnNmb3JtPSJ0cmFuc2xhdGUoOC4wMDk0OSwtNi42NDU5MikiPiYjeGE7CQkJCTx0aXRsZSBpZD0idGl0bGUxNjc0Ij5TaGVldC43OTczPC90aXRsZT4mI3hhOwkJCQk8cGF0aCBpZD0icGF0aDE2NzYiIGlua3NjYXBlOmNvbm5lY3Rvci1jdXJ2YXR1cmU9IjAiIHN0eWxlPSJmaWxsOiNGRkZGRkY7IiBkPSJNNi42Nyw3MS4yOWMwLDAuOC0wLjE5LDEuNS0wLjU1LDIuMDkgICAgICBjLTAuMzYsMC41OC0wLjg4LDEtMS41NCwxLjIzbDEuOTgsMS44M2gtMmwtMS40LTEuNThjLTAuNjEtMC4wMi0xLjE1LTAuMTgtMS42NC0wLjQ4Yy0wLjQ4LTAuMjktMC44Ni0wLjctMS4xMi0xLjIyICAgICAgQzAuMTMsNzIuNjQsMCw3Mi4wNywwLDcxLjQzYzAtMC43LDAuMTQtMS4zMywwLjQzLTEuODhjMC4yOS0wLjU2LDAuNjktMC45OCwxLjIxLTEuMjhjMC41MS0wLjMsMS4xMS0wLjQ0LDEuNzgtMC40NCAgICAgIGMwLjYzLDAsMS4xOSwwLjE0LDEuNjgsMC40M2MwLjUsMC4yOSwwLjg4LDAuNjksMS4xNSwxLjIzQzYuNTMsNzAuMDIsNi42Nyw3MC42Miw2LjY3LDcxLjI5eiBNNS4wNSw3MS4zOCAgICAgIGMwLTAuNjktMC4xNS0xLjIzLTAuNDUtMS42NGMtMC4zLTAuNC0wLjcxLTAuNi0xLjIzLTAuNmMtMC41MywwLTAuOTYsMC4yMS0xLjI4LDAuNjFzLTAuNDgsMC45My0wLjQ4LDEuNiAgICAgIGMwLDAuNjYsMC4xNiwxLjE5LDAuNDcsMS41OWMwLjMyLDAuNCwwLjczLDAuNiwxLjI1LDAuNmMwLjUzLDAsMC45NS0wLjIsMS4yNi0wLjU4QzQuOSw3Mi41OCw1LjA1LDcyLjA1LDUuMDUsNzEuMzh6Ii8+JiN4YTsJCQk8L2c+JiN4YTsJCQk8ZyBpZD0ic2hhcGU3OTc0LTQ4IiB0cmFuc2Zvcm09InRyYW5zbGF0ZSgxNS43OTkzLC04LjM0NDIpIj4mI3hhOwkJCQk8dGl0bGUgaWQ9InRpdGxlMTY3OSI+U2hlZXQuNzk3NDwvdGl0bGU+JiN4YTsJCQkJPHBhdGggaWQ9InBhdGgxNjgxIiBpbmtzY2FwZTpjb25uZWN0b3ItY3VydmF0dXJlPSIwIiBzdHlsZT0iZmlsbDojRkZGRkZGOyIgZD0iTTQuMDUsNzYuNDRIMHYtNi44aDEuNTN2NS41NmgyLjUyVjc2LjQ0eiIvPiYjeGE7CQkJPC9nPiYjeGE7CQk8L2c+JiN4YTsJPC9nPiYjeGE7PC9nPiYjeGE7PC9zdmc+;fontStyle=1" parent="1" vertex="1">
          <mxGeometry x="850" y="790" width="65.57" height="90" as="geometry" />
        </mxCell>
        <mxCell id="lAx5uchjGVzoTK3gPOGS-13" value="" style="shape=image;html=1;verticalAlign=top;verticalLabelPosition=bottom;labelBackgroundColor=#ffffff;imageAspect=0;aspect=fixed;image=https://cdn2.iconfinder.com/data/icons/crystalproject/128x128/devices/scanner.png" parent="1" vertex="1">
          <mxGeometry x="240" y="840" width="69" height="69" as="geometry" />
        </mxCell>
        <mxCell id="lAx5uchjGVzoTK3gPOGS-15" value="" style="image;html=1;image=img/lib/clip_art/computers/Printer_128x128.png" parent="1" vertex="1">
          <mxGeometry x="410" y="959" width="80" height="80" as="geometry" />
        </mxCell>
        <mxCell id="lAx5uchjGVzoTK3gPOGS-44" style="edgeStyle=none;curved=1;rounded=0;orthogonalLoop=1;jettySize=auto;html=1;entryX=0;entryY=0.5;entryDx=0;entryDy=0;fontSize=12;startSize=8;endSize=8;fillColor=#dae8fc;strokeColor=#6c8ebf;strokeWidth=3;" parent="1" source="lAx5uchjGVzoTK3gPOGS-17" target="lAx5uchjGVzoTK3gPOGS-26" edge="1">
          <mxGeometry relative="1" as="geometry" />
        </mxCell>
        <mxCell id="lAx5uchjGVzoTK3gPOGS-17" value="USER" style="shape=image;verticalLabelPosition=bottom;labelBackgroundColor=#ffffff;verticalAlign=top;aspect=fixed;imageAspect=0;image=data:image/svg+xml,PHN2ZyB4bWxuczpjYz0iaHR0cDovL2NyZWF0aXZlY29tbW9ucy5vcmcvbnMjIiB4bWxuczpkYz0iaHR0cDovL3B1cmwub3JnL2RjL2VsZW1lbnRzLzEuMS8iIHhtbG5zOmlua3NjYXBlPSJodHRwOi8vd3d3Lmlua3NjYXBlLm9yZy9uYW1lc3BhY2VzL2lua3NjYXBlIiB4bWxuczpyZGY9Imh0dHA6Ly93d3cudzMub3JnLzE5OTkvMDIvMjItcmRmLXN5bnRheC1ucyMiIHhtbG5zOnNvZGlwb2RpPSJodHRwOi8vc29kaXBvZGkuc291cmNlZm9yZ2UubmV0L0RURC9zb2RpcG9kaS0wLmR0ZCIgeG1sbnM6c3ZnPSJodHRwOi8vd3d3LnczLm9yZy8yMDAwL3N2ZyIgeG1sbnM9Imh0dHA6Ly93d3cudzMub3JnLzIwMDAvc3ZnIiB4bWxuczp4bGluaz0iaHR0cDovL3d3dy53My5vcmcvMTk5OS94bGluayIgdmVyc2lvbj0iMS4xIiBpZD0ic3ZnMTc1MTAyIiBpbmtzY2FwZTp2ZXJzaW9uPSIwLjkyLjMgKDI0MDU1NDYsIDIwMTgtMDMtMTEpIiBzb2RpcG9kaTpkb2NuYW1lPSJwY18xLnN2ZyIgeD0iMHB4IiB5PSIwcHgiIHZpZXdCb3g9IjAgMCA3MiA2OS40NiIgc3R5bGU9ImVuYWJsZS1iYWNrZ3JvdW5kOm5ldyAwIDAgNzIgNjkuNDY7IiB4bWw6c3BhY2U9InByZXNlcnZlIj4mI3hhOzxzb2RpcG9kaTpuYW1lZHZpZXcgYm9yZGVyY29sb3I9IiM2NjY2NjYiIGJvcmRlcm9wYWNpdHk9IjEiIGZpdC1tYXJnaW4tYm90dG9tPSIwIiBmaXQtbWFyZ2luLWxlZnQ9IjAiIGZpdC1tYXJnaW4tcmlnaHQ9IjAiIGZpdC1tYXJnaW4tdG9wPSIwIiBncmlkdG9sZXJhbmNlPSIxMCIgZ3VpZGV0b2xlcmFuY2U9IjEwIiBpZD0ibmFtZWR2aWV3MTc1MTA0IiBpbmtzY2FwZTpjdXJyZW50LWxheWVyPSJzdmcxNzUxMDIiIGlua3NjYXBlOmN4PSI0OCIgaW5rc2NhcGU6Y3k9IjQ2LjMwODUzMyIgaW5rc2NhcGU6cGFnZW9wYWNpdHk9IjAiIGlua3NjYXBlOnBhZ2VzaGFkb3c9IjIiIGlua3NjYXBlOndpbmRvdy1oZWlnaHQ9IjEwMTciIGlua3NjYXBlOndpbmRvdy1tYXhpbWl6ZWQ9IjEiIGlua3NjYXBlOndpbmRvdy13aWR0aD0iMTkyMCIgaW5rc2NhcGU6d2luZG93LXg9Ii04IiBpbmtzY2FwZTp3aW5kb3cteT0iLTgiIGlua3NjYXBlOnpvb209IjkuMzYxODczOCIgb2JqZWN0dG9sZXJhbmNlPSIxMCIgcGFnZWNvbG9yPSIjZmZmZmZmIiBzaG93Z3JpZD0iZmFsc2UiPiYjeGE7CTwvc29kaXBvZGk6bmFtZWR2aWV3PiYjeGE7PGcgaWQ9ImcxNzUxMDAiPiYjeGE7CTx0aXRsZSBpZD0idGl0bGUxNzUwOTMiPlBhZ2UtMTwvdGl0bGU+JiN4YTsJPGcgaWQ9InNoYXBlOTEzNC0xIj4mI3hhOwkJPHRpdGxlIGlkPSJ0aXRsZTE3NTA5NSI+UEMgIzE8L3RpdGxlPiYjeGE7CQk8cGF0aCBpZD0icGF0aDE3NTA5NyIgaW5rc2NhcGU6Y29ubmVjdG9yLWN1cnZhdHVyZT0iMCIgc3R5bGU9ImZpbGw6IzNGNTc2NTsiIGQ9Ik05LjcsNTcuNTRoNTEuNDVMNzIsNjkuNDZIMEw5LjcsNTcuNTR6ICAgICBNMTYuNTEsNTIuNjdINTUuNXYxLjM0SDE2LjUxVjUyLjY3eiBNNS4yNyw0LjAydjM1LjRoMjIuOTJoMTUuMjNoMjMuNzZWNC4wMkg1LjI3eiBNMzYsMC45MmMtMC41NSwwLTAuOTksMC4zOS0wLjk5LDAuODggICAgYzAsMC40OCwwLjQ0LDAuODgsMC45OSwwLjg4YzAuNTUsMCwxLTAuNCwxLTAuODhDMzcsMS4zMSwzNi41NSwwLjkyLDM2LDAuOTJ6IE01LjIzLDBjNjEuMTUsMCw2MS4xNSwwLDYxLjE1LDAgICAgYzIuNDEsMCw0LjAyLDEuNzcsNC4wMiwzLjk5djM1LjM4YzAsMi4yMi0xLjYxLDQuNDItNC4wMiw0LjQyYy03LjY1LDAtMTQuMzQsMC0yMC4xOSwwaC0yLjc3djIuNjh2MS43N2g4Ljg3bDMuMjEsNC40M0gxNi41MSAgICBsMy4yMS00LjQzaDguNDd2LTEuNzd2LTIuNjhIMjUuMWMtMTkuODcsMC0xOS44NywwLTE5Ljg3LDBjLTIuMDEsMC0zLjYyLTIuMi0zLjYyLTQuNDJjMC0zNS4zOCwwLTM1LjM4LDAtMzUuMzggICAgQzEuNjEsMS43NywzLjIyLDAsNS4yMywweiIvPiYjeGE7CTwvZz4mI3hhOzwvZz4mI3hhOzwvc3ZnPg==;fontStyle=1" parent="1" vertex="1">
          <mxGeometry x="121.00000000000011" y="636" width="72" height="69" as="geometry" />
        </mxCell>
        <mxCell id="lAx5uchjGVzoTK3gPOGS-18" value="TRADE COMPAS (TC)" style="shape=image;verticalLabelPosition=top;labelBackgroundColor=#ffffff;verticalAlign=bottom;aspect=fixed;imageAspect=0;image=data:image/svg+xml,PHN2ZyB4bWxuczpjYz0iaHR0cDovL2NyZWF0aXZlY29tbW9ucy5vcmcvbnMjIiB4bWxuczpkYz0iaHR0cDovL3B1cmwub3JnL2RjL2VsZW1lbnRzLzEuMS8iIHhtbG5zOmlua3NjYXBlPSJodHRwOi8vd3d3Lmlua3NjYXBlLm9yZy9uYW1lc3BhY2VzL2lua3NjYXBlIiB4bWxuczpyZGY9Imh0dHA6Ly93d3cudzMub3JnLzE5OTkvMDIvMjItcmRmLXN5bnRheC1ucyMiIHhtbG5zOnNvZGlwb2RpPSJodHRwOi8vc29kaXBvZGkuc291cmNlZm9yZ2UubmV0L0RURC9zb2RpcG9kaS0wLmR0ZCIgeG1sbnM6c3ZnPSJodHRwOi8vd3d3LnczLm9yZy8yMDAwL3N2ZyIgeG1sbnM9Imh0dHA6Ly93d3cudzMub3JnLzIwMDAvc3ZnIiB4bWxuczp4bGluaz0iaHR0cDovL3d3dy53My5vcmcvMTk5OS94bGluayIgdmVyc2lvbj0iMS4xIiBpZD0ic3ZnMTM2MTM0IiBpbmtzY2FwZTp2ZXJzaW9uPSIwLjkyLjMgKDI0MDU1NDYsIDIwMTgtMDMtMTEpIiBzb2RpcG9kaTpkb2NuYW1lPSJhcHBsaWNhdGlvbl9zZXJ2ZXIuc3ZnIiB4PSIwcHgiIHk9IjBweCIgdmlld0JveD0iMCAwIDYzLjExIDY5Ljc1IiBzdHlsZT0iZW5hYmxlLWJhY2tncm91bmQ6bmV3IDAgMCA2My4xMSA2OS43NTsiIHhtbDpzcGFjZT0icHJlc2VydmUiPiYjeGE7PHNvZGlwb2RpOm5hbWVkdmlldyBib3JkZXJjb2xvcj0iIzY2NjY2NiIgYm9yZGVyb3BhY2l0eT0iMSIgZml0LW1hcmdpbi1ib3R0b209IjAiIGZpdC1tYXJnaW4tbGVmdD0iMCIgZml0LW1hcmdpbi1yaWdodD0iMCIgZml0LW1hcmdpbi10b3A9IjAiIGdyaWR0b2xlcmFuY2U9IjEwIiBndWlkZXRvbGVyYW5jZT0iMTAiIGlkPSJuYW1lZHZpZXcxMzYxMzYiIGlua3NjYXBlOmN1cnJlbnQtbGF5ZXI9InN2ZzEzNjEzNCIgaW5rc2NhcGU6Y3g9IjQyLjA3NDgxNSIgaW5rc2NhcGU6Y3k9IjQ2LjUwMDAxNSIgaW5rc2NhcGU6cGFnZW9wYWNpdHk9IjAiIGlua3NjYXBlOnBhZ2VzaGFkb3c9IjIiIGlua3NjYXBlOndpbmRvdy1oZWlnaHQ9IjEwMTciIGlua3NjYXBlOndpbmRvdy1tYXhpbWl6ZWQ9IjEiIGlua3NjYXBlOndpbmRvdy13aWR0aD0iMTkyMCIgaW5rc2NhcGU6d2luZG93LXg9Ii04IiBpbmtzY2FwZTp3aW5kb3cteT0iLTgiIGlua3NjYXBlOnpvb209IjkuMTI2MzE4NyIgb2JqZWN0dG9sZXJhbmNlPSIxMCIgcGFnZWNvbG9yPSIjZmZmZmZmIiBzaG93Z3JpZD0iZmFsc2UiPiYjeGE7CTwvc29kaXBvZGk6bmFtZWR2aWV3PiYjeGE7PGcgaWQ9ImcxMzYxMzIiIHRyYW5zZm9ybT0idHJhbnNsYXRlKC0wLjc1LC0wLjc1KSI+JiN4YTsJPHRpdGxlIGlkPSJ0aXRsZTEzNjAwNyI+UGFnZS0xPC90aXRsZT4mI3hhOwk8ZyBpZD0iZ3JvdXA3OTc1LTEiIHRyYW5zZm9ybT0idHJhbnNsYXRlKDEuNSwtMS41KSI+JiN4YTsJCTx0aXRsZSBpZD0idGl0bGUxMzYwMDkiPkFwcGxpY2F0aW9uIFNlcnZlcjwvdGl0bGU+JiN4YTsJCTxnIGlkPSJncm91cDc5NzYtMiI+JiN4YTsJCQk8dGl0bGUgaWQ9InRpdGxlMTM2MDExIj5TaGVldC43OTc2PC90aXRsZT4mI3hhOwkJCTxnIGlkPSJncm91cDc5NzctMyI+JiN4YTsJCQkJPHRpdGxlIGlkPSJ0aXRsZTEzNjAxMyI+ZzE2NDA4PC90aXRsZT4mI3hhOwkJCQk8ZyBpZD0ic2hhcGU3OTc4LTQiPiYjeGE7CQkJCQk8dGl0bGUgaWQ9InRpdGxlMTM2MDE1Ij5yZWN0MTYzODA8L3RpdGxlPiYjeGE7CQkJCQkmI3hhOwkJCQkJCTxyZWN0IGlkPSJyZWN0MTM2MDE3IiB4PSIwIiB5PSIzIiBzdHlsZT0iZmlsbDojRkZGRkZGO3N0cm9rZTojNTU2QThBO3N0cm9rZS13aWR0aDoxLjU7c3Ryb2tlLW1pdGVybGltaXQ6MzsiIHdpZHRoPSIzOS43NSIgaGVpZ2h0PSI2OC4yNSIvPiYjeGE7CQkJCTwvZz4mI3hhOwkJCQk8ZyBpZD0iZ3JvdXA3OTc5LTYiIHRyYW5zZm9ybT0idHJhbnNsYXRlKDEuNSwtMC43NSkiPiYjeGE7CQkJCQk8dGl0bGUgaWQ9InRpdGxlMTM2MDIwIj5nMTY0MDA8L3RpdGxlPiYjeGE7CQkJCQk8ZyBpZD0ic2hhcGU3OTgwLTciIHRyYW5zZm9ybT0idHJhbnNsYXRlKDE4KSI+JiN4YTsJCQkJCQk8dGl0bGUgaWQ9InRpdGxlMTM2MDIyIj5yZWN0MTYzODI8L3RpdGxlPiYjeGE7CQkJCQkJPHJlY3QgaWQ9InJlY3QxMzYwMjQiIHg9IjAiIHk9IjQuNSIgc3R5bGU9ImZpbGw6I0U1RTVFNTsiIHdpZHRoPSIxOS41IiBoZWlnaHQ9IjY2Ljc1Ii8+JiN4YTsJCQkJCTwvZz4mI3hhOwkJCQkJPGcgaWQ9InNoYXBlNzk4MS05IiB0cmFuc2Zvcm09InRyYW5zbGF0ZSgwLC00OCkiPiYjeGE7CQkJCQkJPHRpdGxlIGlkPSJ0aXRsZTEzNjAyNyI+cmVjdDE2Mzg0PC90aXRsZT4mI3hhOwkJCQkJCTxyZWN0IGlkPSJyZWN0MTM2MDI5IiB4PSIwIiB5PSI2OSIgc3R5bGU9ImZpbGw6IzJCQzdGNDsiIHdpZHRoPSIxOCIgaGVpZ2h0PSIyLjI1Ii8+JiN4YTsJCQkJCTwvZz4mI3hhOwkJCQkJPGcgaWQ9InNoYXBlNzk4Mi0xMSIgdHJhbnNmb3JtPSJ0cmFuc2xhdGUoMCwtNTguNSkiPiYjeGE7CQkJCQkJPHRpdGxlIGlkPSJ0aXRsZTEzNjAzMiI+cG9seWdvbjE2Mzg2PC90aXRsZT4mI3hhOwkJCQkJCTxyZWN0IGlkPSJyZWN0MTM2MDM0IiB4PSIwIiB5PSI2OSIgc3R5bGU9ImZpbGw6bm9uZTsiIHdpZHRoPSIyNyIgaGVpZ2h0PSIyLjI1Ii8+JiN4YTsJCQkJCTwvZz4mI3hhOwkJCQkJPGcgaWQ9InNoYXBlNzk4My0xMyIgdHJhbnNmb3JtPSJ0cmFuc2xhdGUoMCwtNTguNSkiPiYjeGE7CQkJCQkJPHRpdGxlIGlkPSJ0aXRsZTEzNjAzNyI+cG9seWxpbmUxNjM4ODwvdGl0bGU+JiN4YTsJCQkJCQk8cmVjdCBpZD0icmVjdDEzNjAzOSIgeD0iMCIgeT0iNjkiIHN0eWxlPSJmaWxsOm5vbmU7IiB3aWR0aD0iMjciIGhlaWdodD0iMi4yNSIvPiYjeGE7CQkJCQk8L2c+JiN4YTsJCQkJCTxnIGlkPSJzaGFwZTc5ODQtMTUiIHRyYW5zZm9ybT0idHJhbnNsYXRlKDAsLTUzLjI1KSI+JiN4YTsJCQkJCQk8dGl0bGUgaWQ9InRpdGxlMTM2MDQyIj5yZWN0MTYzOTA8L3RpdGxlPiYjeGE7CQkJCQkJPHJlY3QgaWQ9InJlY3QxMzYwNDQiIHg9IjAiIHk9IjY5IiBzdHlsZT0iZmlsbDojMkJDN0Y0OyIgd2lkdGg9IjE4IiBoZWlnaHQ9IjIuMjUiLz4mI3hhOwkJCQkJPC9nPiYjeGE7CQkJCQk8ZyBpZD0ic2hhcGU3OTg1LTE3IiB0cmFuc2Zvcm09InRyYW5zbGF0ZSgwLC01OC41KSI+JiN4YTsJCQkJCQk8dGl0bGUgaWQ9InRpdGxlMTM2MDQ3Ij5yZWN0MTYzOTI8L3RpdGxlPiYjeGE7CQkJCQkJPHJlY3QgaWQ9InJlY3QxMzYwNDkiIHg9IjAiIHk9IjY5IiBzdHlsZT0iZmlsbDojMkJDN0Y0OyIgd2lkdGg9IjE4IiBoZWlnaHQ9IjIuMjUiLz4mI3hhOwkJCQkJPC9nPiYjeGE7CQkJCQk8ZyBpZD0ic2hhcGU3OTg2LTE5IiB0cmFuc2Zvcm09InRyYW5zbGF0ZSgxOCwtNDgpIj4mI3hhOwkJCQkJCTx0aXRsZSBpZD0idGl0bGUxMzYwNTIiPnJlY3QxNjM5NDwvdGl0bGU+JiN4YTsJCQkJCQk8cmVjdCBpZD0icmVjdDEzNjA1NCIgeD0iMCIgeT0iNjkiIHN0eWxlPSJmaWxsOiM1NTZBOEE7IiB3aWR0aD0iMTkuNSIgaGVpZ2h0PSIyLjI1Ii8+JiN4YTsJCQkJCTwvZz4mI3hhOwkJCQkJPGcgaWQ9InNoYXBlNzk4Ny0yMSIgdHJhbnNmb3JtPSJ0cmFuc2xhdGUoMTgsLTUzLjI1KSI+JiN4YTsJCQkJCQk8dGl0bGUgaWQ9InRpdGxlMTM2MDU3Ij5yZWN0MTYzOTY8L3RpdGxlPiYjeGE7CQkJCQkJPHJlY3QgaWQ9InJlY3QxMzYwNTkiIHg9IjAiIHk9IjY5IiBzdHlsZT0iZmlsbDojNTU2QThBOyIgd2lkdGg9IjE5LjUiIGhlaWdodD0iMi4yNSIvPiYjeGE7CQkJCQk8L2c+JiN4YTsJCQkJCTxnIGlkPSJzaGFwZTc5ODgtMjMiIHRyYW5zZm9ybT0idHJhbnNsYXRlKDE4LC01OC41KSI+JiN4YTsJCQkJCQk8dGl0bGUgaWQ9InRpdGxlMTM2MDYyIj5yZWN0MTYzOTg8L3RpdGxlPiYjeGE7CQkJCQkJPHJlY3QgaWQ9InJlY3QxMzYwNjQiIHg9IjAiIHk9IjY5IiBzdHlsZT0iZmlsbDojNTU2QThBOyIgd2lkdGg9IjE5LjUiIGhlaWdodD0iMi4yNSIvPiYjeGE7CQkJCQk8L2c+JiN4YTsJCQkJPC9nPiYjeGE7CQkJCTxnIGlkPSJzaGFwZTc5ODktMjUiIHRyYW5zZm9ybT0idHJhbnNsYXRlKDAuNzUsLTU5LjI1KSI+JiN4YTsJCQkJCTx0aXRsZSBpZD0idGl0bGUxMzYwNjgiPnJlY3QxNjQwMjwvdGl0bGU+JiN4YTsJCQkJCTxyZWN0IGlkPSJyZWN0MTM2MDcwIiB4PSIwIiB5PSI2OSIgc3R5bGU9ImZpbGw6IzU1NkE4QTsiIHdpZHRoPSIyLjI1IiBoZWlnaHQ9IjIuMjUiLz4mI3hhOwkJCQk8L2c+JiN4YTsJCQkJPGcgaWQ9InNoYXBlNzk5MC0yNyIgdHJhbnNmb3JtPSJ0cmFuc2xhdGUoMC43NSwtNTQpIj4mI3hhOwkJCQkJPHRpdGxlIGlkPSJ0aXRsZTEzNjA3MyI+cmVjdDE2NDA0PC90aXRsZT4mI3hhOwkJCQkJPHJlY3QgaWQ9InJlY3QxMzYwNzUiIHg9IjAiIHk9IjY5IiBzdHlsZT0iZmlsbDojNTU2QThBOyIgd2lkdGg9IjIuMjUiIGhlaWdodD0iMi4yNSIvPiYjeGE7CQkJCTwvZz4mI3hhOwkJCQk8ZyBpZD0ic2hhcGU3OTkxLTI5IiB0cmFuc2Zvcm09InRyYW5zbGF0ZSgwLjc1LC00OC43NSkiPiYjeGE7CQkJCQk8dGl0bGUgaWQ9InRpdGxlMTM2MDc4Ij5yZWN0MTY0MDY8L3RpdGxlPiYjeGE7CQkJCQk8cmVjdCBpZD0icmVjdDEzNjA4MCIgeD0iMCIgeT0iNjkiIHN0eWxlPSJmaWxsOiM1NTZBOEE7IiB3aWR0aD0iMi4yNSIgaGVpZ2h0PSIyLjI1Ii8+JiN4YTsJCQkJPC9nPiYjeGE7CQkJPC9nPiYjeGE7CQk8L2c+JiN4YTsJCTxnIGlkPSJncm91cDc5OTItMzEiIHRyYW5zZm9ybT0idHJhbnNsYXRlKDE3LjM2MjIsLTMuNjkwMTUpIj4mI3hhOwkJCTx0aXRsZSBpZD0idGl0bGUxMzYwODUiPlNoZWV0Ljc5OTI8L3RpdGxlPiYjeGE7CQkJPGcgaWQ9InNoYXBlNzk5My0zMiI+JiN4YTsJCQkJPHRpdGxlIGlkPSJ0aXRsZTEzNjA4NyI+U2hlZXQuNzk5MzwvdGl0bGU+JiN4YTsJCQkJPHBhdGggaWQ9InBhdGgxMzYwODkiIGlua3NjYXBlOmNvbm5lY3Rvci1jdXJ2YXR1cmU9IjAiIHN0eWxlPSJmaWxsOiM1NTZBOEE7IiBkPSJNNDUsNjcuOTdjMCwzLjI4LTAuNCwzLjA4LTMuNjgsMy4wOEgzLjU4ICAgICAgQzAuMyw3MS4wNSwwLDcwLjc1LDAsNjcuNDhWNDIuMTRjMC0zLjI3LDAuNy0zLjM3LDMuODctMy4zN2gzNi4yNmMzLjI4LDAsNC43Ny0wLjYsNC43NywyLjU4TDQ1LDY3Ljk3eiIvPiYjeGE7CQkJPC9nPiYjeGE7CQkJPGcgaWQ9InNoYXBlNzk5NC0zNCIgdHJhbnNmb3JtPSJ0cmFuc2xhdGUoMi42ODIxMiwtMS45ODY3NSkiPiYjeGE7CQkJCTx0aXRsZSBpZD0idGl0bGUxMzYwOTIiPlNoZWV0Ljc5OTQ8L3RpdGxlPiYjeGE7CQkJCTxwYXRoIGlkPSJwYXRoMTM2MDk0IiBpbmtzY2FwZTpjb25uZWN0b3ItY3VydmF0dXJlPSIwIiBzdHlsZT0iZmlsbDojRTVFNUU1OyIgZD0iTTM5LjY0LDY4LjM3YzAsMi44OC0wLjQsMi42OC0zLjI4LDIuNjhIMy4wOCAgICAgIEMwLjIsNzEuMDUsMCw3MC43NSwwLDY3Ljk3VjQ1LjYyYzAtMi44OCwwLjYtMi45OCwzLjQ4LTIuOThoMzEuOThjMi44OCwwLDQuMTgtMC42LDQuMTgsMi4yOVY2OC4zN3oiLz4mI3hhOwkJCTwvZz4mI3hhOwkJCTxnIGlkPSJzaGFwZTc5OTUtMzYiIHRyYW5zZm9ybT0idHJhbnNsYXRlKDUuNTYyOTEsLTQuNTY5NTQpIj4mI3hhOwkJCQk8dGl0bGUgaWQ9InRpdGxlMTM2MDk3Ij5TaGVldC43OTk1PC90aXRsZT4mI3hhOwkJCQk8cGF0aCBpZD0icGF0aDEzNjA5OSIgaW5rc2NhcGU6Y29ubmVjdG9yLWN1cnZhdHVyZT0iMCIgc3R5bGU9ImZpbGw6IzU1RDJGNjsiIGQ9Ik00Ljk3LDY4Ljc3YzAsMS4zOS0xLjEsMi40OC0yLjQ5LDIuNDggICAgICBTMCw3MC4xNiwwLDY4Ljc3VjUwLjQ5QzAsNDkuMSwxLjA5LDQ4LDIuNDgsNDhzMi40OSwxLjEsMi40OSwyLjQ5TDQuOTcsNjguNzd6Ii8+JiN4YTsJCQk8L2c+JiN4YTsJCQk8ZyBpZD0ic2hhcGU3OTk2LTM4IiB0cmFuc2Zvcm09InRyYW5zbGF0ZSgxMy43MDg2LC01LjY2MjI1KSI+JiN4YTsJCQkJPHRpdGxlIGlkPSJ0aXRsZTEzNjEwMiI+U2hlZXQuNzk5NjwvdGl0bGU+JiN4YTsJCQkJPHJlY3QgaWQ9InJlY3QxMzYxMDQiIHg9IjAiIHk9IjUwLjA5IiBzdHlsZT0iZmlsbDojOTI3M0I2OyIgd2lkdGg9IjE3LjM4IiBoZWlnaHQ9IjIxLjE2Ii8+JiN4YTsJCQk8L2c+JiN4YTsJCQk8ZyBpZD0ic2hhcGU3OTk3LTQwIiB0cmFuc2Zvcm09InRyYW5zbGF0ZSgzMi41ODI4LC0yMy4yNDUpIj4mI3hhOwkJCQk8dGl0bGUgaWQ9InRpdGxlMTM2MTA3Ij5TaGVldC43OTk3PC90aXRsZT4mI3hhOwkJCQk8cGF0aCBpZD0icGF0aDEzNjEwOSIgaW5rc2NhcGU6Y29ubmVjdG9yLWN1cnZhdHVyZT0iMCIgc3R5bGU9ImZpbGw6I0FCOUFDMDsiIGQ9Ik0wLDY3LjY3djMuNThoNy44NXYtMy41OEgweiBNNy4zNSw3MC44NUgwLjYgICAgICB2LTIuNzhoNi43NVY3MC44NXoiLz4mI3hhOwkJCTwvZz4mI3hhOwkJCTxnIGlkPSJzaGFwZTc5OTgtNDIiIHRyYW5zZm9ybT0idHJhbnNsYXRlKDMyLjU4MjgsLTE2Ljk4NjgpIj4mI3hhOwkJCQk8dGl0bGUgaWQ9InRpdGxlMTM2MTEyIj5TaGVldC43OTk4PC90aXRsZT4mI3hhOwkJCQk8cmVjdCBpZD0icmVjdDEzNjExNCIgeD0iMCIgeT0iNjcuNjciIHN0eWxlPSJmaWxsOiNCQUQ4MEE7IiB3aWR0aD0iNy44NSIgaGVpZ2h0PSIzLjU4Ii8+JiN4YTsJCQk8L2c+JiN4YTsJCQk8ZyBpZD0ic2hhcGU3OTk5LTQ0IiB0cmFuc2Zvcm09InRyYW5zbGF0ZSgzMi41ODI4LC0xMC41Mjk4KSI+JiN4YTsJCQkJPHRpdGxlIGlkPSJ0aXRsZTEzNjExNyI+U2hlZXQuNzk5OTwvdGl0bGU+JiN4YTsJCQkJPHJlY3QgaWQ9InJlY3QxMzYxMTkiIHg9IjAiIHk9IjY3LjY3IiBzdHlsZT0iZmlsbDojQkFEODBBOyIgd2lkdGg9IjcuODUiIGhlaWdodD0iMy41OCIvPiYjeGE7CQkJPC9nPiYjeGE7CQkJPGcgaWQ9InNoYXBlODAwMC00NiIgdHJhbnNmb3JtPSJ0cmFuc2xhdGUoMzIuNTgyOCwtNS41NjI5MSkiPiYjeGE7CQkJCTx0aXRsZSBpZD0idGl0bGUxMzYxMjIiPlNoZWV0LjgwMDA8L3RpdGxlPiYjeGE7CQkJCTxyZWN0IGlkPSJyZWN0MTM2MTI0IiB4PSIwIiB5PSI2Ny42NyIgc3R5bGU9ImZpbGw6I0JBRDgwQTsiIHdpZHRoPSI3Ljg1IiBoZWlnaHQ9IjMuNTgiLz4mI3hhOwkJCTwvZz4mI3hhOwkJPC9nPiYjeGE7CQk8ZyBpZD0iZ3JvdXA4MDAxLTQ4IiB0cmFuc2Zvcm09InRyYW5zbGF0ZSgyOS43MDcyLC04LjQyMzU3KSI+JiN4YTsJCQk8dGl0bGUgaWQ9InRpdGxlMTM2MTI4Ij5XZWJzaXRlczwvdGl0bGU+JiN4YTsJCTwvZz4mI3hhOwk8L2c+JiN4YTs8L2c+JiN4YTs8L3N2Zz4=;labelPosition=center;align=center;fontStyle=1" parent="1" vertex="1">
          <mxGeometry x="930" y="314" width="81" height="90" as="geometry" />
        </mxCell>
        <mxCell id="lAx5uchjGVzoTK3gPOGS-29" style="edgeStyle=orthogonalEdgeStyle;rounded=0;orthogonalLoop=1;jettySize=auto;html=1;entryX=1;entryY=0.5;entryDx=0;entryDy=0;fontSize=12;startSize=8;endSize=8;exitX=0.5;exitY=1;exitDx=0;exitDy=0;strokeWidth=3;fillColor=#e3c800;strokeColor=#B09500;" parent="1" source="lAx5uchjGVzoTK3gPOGS-20" target="lAx5uchjGVzoTK3gPOGS-9" edge="1">
          <mxGeometry relative="1" as="geometry" />
        </mxCell>
        <mxCell id="lAx5uchjGVzoTK3gPOGS-33" style="edgeStyle=none;curved=1;rounded=0;orthogonalLoop=1;jettySize=auto;html=1;fontSize=12;startSize=8;endSize=8;startArrow=none;startFill=0;fillColor=#fff2cc;strokeColor=#d6b656;strokeWidth=3;endArrow=classic;endFill=1;" parent="1" edge="1">
          <mxGeometry relative="1" as="geometry">
            <mxPoint x="1540" y="695.731089077243" as="sourcePoint" />
            <mxPoint x="1170" y="695.5338504184658" as="targetPoint" />
          </mxGeometry>
        </mxCell>
        <mxCell id="lAx5uchjGVzoTK3gPOGS-74" value="Field validation &amp;amp; return result" style="edgeLabel;html=1;align=center;verticalAlign=top;resizable=0;points=[];fontSize=12;" parent="lAx5uchjGVzoTK3gPOGS-33" vertex="1" connectable="0">
          <mxGeometry x="-0.1605" relative="1" as="geometry">
            <mxPoint x="-57" as="offset" />
          </mxGeometry>
        </mxCell>
        <mxCell id="lAx5uchjGVzoTK3gPOGS-20" value="OVS BAS" style="shape=image;verticalLabelPosition=top;labelBackgroundColor=#ffffff;verticalAlign=bottom;aspect=fixed;imageAspect=0;image=data:image/svg+xml,PHN2ZyB4bWxuczpjYz0iaHR0cDovL2NyZWF0aXZlY29tbW9ucy5vcmcvbnMjIiB4bWxuczpkYz0iaHR0cDovL3B1cmwub3JnL2RjL2VsZW1lbnRzLzEuMS8iIHhtbG5zOmlua3NjYXBlPSJodHRwOi8vd3d3Lmlua3NjYXBlLm9yZy9uYW1lc3BhY2VzL2lua3NjYXBlIiB4bWxuczpyZGY9Imh0dHA6Ly93d3cudzMub3JnLzE5OTkvMDIvMjItcmRmLXN5bnRheC1ucyMiIHhtbG5zOnNvZGlwb2RpPSJodHRwOi8vc29kaXBvZGkuc291cmNlZm9yZ2UubmV0L0RURC9zb2RpcG9kaS0wLmR0ZCIgeG1sbnM6c3ZnPSJodHRwOi8vd3d3LnczLm9yZy8yMDAwL3N2ZyIgeG1sbnM9Imh0dHA6Ly93d3cudzMub3JnLzIwMDAvc3ZnIiB4bWxuczp4bGluaz0iaHR0cDovL3d3dy53My5vcmcvMTk5OS94bGluayIgdmVyc2lvbj0iMS4xIiBpZD0ic3ZnMjA2ODEiIGlua3NjYXBlOnZlcnNpb249IjAuOTIuMyAoMjQwNTU0NiwgMjAxOC0wMy0xMSkiIHNvZGlwb2RpOmRvY25hbWU9InNlcnZlcl9ibHVlLnN2ZyIgeD0iMHB4IiB5PSIwcHgiIHZpZXdCb3g9IjAgMCAyNyA0Ni41IiBzdHlsZT0iZW5hYmxlLWJhY2tncm91bmQ6bmV3IDAgMCAyNyA0Ni41OyIgeG1sOnNwYWNlPSJwcmVzZXJ2ZSI+JiN4YTs8c29kaXBvZGk6bmFtZWR2aWV3IGJvcmRlcmNvbG9yPSIjNjY2NjY2IiBib3JkZXJvcGFjaXR5PSIxIiBmaXQtbWFyZ2luLWJvdHRvbT0iMCIgZml0LW1hcmdpbi1sZWZ0PSIwIiBmaXQtbWFyZ2luLXJpZ2h0PSIwIiBmaXQtbWFyZ2luLXRvcD0iMCIgZ3JpZHRvbGVyYW5jZT0iMTAiIGd1aWRldG9sZXJhbmNlPSIxMCIgaWQ9Im5hbWVkdmlldzIwNjgzIiBpbmtzY2FwZTpjdXJyZW50LWxheWVyPSJzdmcyMDY4MSIgaW5rc2NhcGU6Y3g9IjE3Ljk5OTk4NCIgaW5rc2NhcGU6Y3k9IjMwLjk5OTk3MiIgaW5rc2NhcGU6cGFnZW9wYWNpdHk9IjAiIGlua3NjYXBlOnBhZ2VzaGFkb3c9IjIiIGlua3NjYXBlOndpbmRvdy1oZWlnaHQ9IjEwMTciIGlua3NjYXBlOndpbmRvdy1tYXhpbWl6ZWQ9IjEiIGlua3NjYXBlOndpbmRvdy13aWR0aD0iMTkyMCIgaW5rc2NhcGU6d2luZG93LXg9Ii04IiBpbmtzY2FwZTp3aW5kb3cteT0iLTgiIGlua3NjYXBlOnpvb209IjEzLjU0Njg2OSIgb2JqZWN0dG9sZXJhbmNlPSIxMCIgcGFnZWNvbG9yPSIjZmZmZmZmIiBzaG93Z3JpZD0iZmFsc2UiPiYjeGE7CTwvc29kaXBvZGk6bmFtZWR2aWV3PiYjeGE7PGcgaWQ9ImcyMDY3OSIgdHJhbnNmb3JtPSJ0cmFuc2xhdGUoLTAuNzUsLTAuNzUwMDMzMTMpIj4mI3hhOwk8dGl0bGUgaWQ9InRpdGxlMjA1NjkiPlBhZ2UtMTwvdGl0bGU+JiN4YTsJPGcgaWQ9Imdyb3VwNzU1OC0xIiB0cmFuc2Zvcm09InRyYW5zbGF0ZSgwLjc1LC0wLjc1KSI+JiN4YTsJCTx0aXRsZSBpZD0idGl0bGUyMDU3MSI+U2VydmVyIChCbHVlKTwvdGl0bGU+JiN4YTsJCTxnIGlkPSJzaGFwZTc1NTktMiIgdHJhbnNmb3JtPSJ0cmFuc2xhdGUoMTYuNSwtNDUpIj4mI3hhOwkJCTx0aXRsZSBpZD0idGl0bGUyMDU3MyI+cmVjdDEwMzU8L3RpdGxlPiYjeGE7CQkJPHJlY3QgaWQ9InJlY3QyMDU3NSIgeT0iNDYuNSIgc3R5bGU9ImZpbGw6I0ZGRkZGRjsiIHdpZHRoPSIxLjUiIGhlaWdodD0iMS41Ii8+JiN4YTsJCTwvZz4mI3hhOwkJPGcgaWQ9InNoYXBlNzU2MC00IiB0cmFuc2Zvcm09InRyYW5zbGF0ZSgxNi41LC00MC41KSI+JiN4YTsJCQk8dGl0bGUgaWQ9InRpdGxlMjA1NzgiPnJlY3QxMDM3PC90aXRsZT4mI3hhOwkJCTxyZWN0IGlkPSJyZWN0MjA1ODAiIHk9IjQ2LjUiIHN0eWxlPSJmaWxsOiNGRkZGRkY7IiB3aWR0aD0iMS41IiBoZWlnaHQ9IjEuNSIvPiYjeGE7CQk8L2c+JiN4YTsJCTxnIGlkPSJzaGFwZTc1NjEtNiIgdHJhbnNmb3JtPSJ0cmFuc2xhdGUoMTYuNSwtMzYpIj4mI3hhOwkJCTx0aXRsZSBpZD0idGl0bGUyMDU4MyI+cmVjdDEwMzk8L3RpdGxlPiYjeGE7CQkJPHJlY3QgaWQ9InJlY3QyMDU4NSIgeT0iNDYuNSIgc3R5bGU9ImZpbGw6I0ZGRkZGRjsiIHdpZHRoPSIxLjUiIGhlaWdodD0iMS41Ii8+JiN4YTsJCTwvZz4mI3hhOwkJPGcgaWQ9InNoYXBlNzU2Mi04Ij4mI3hhOwkJCTx0aXRsZSBpZD0idGl0bGUyMDU4OCI+cmVjdDEwNjM8L3RpdGxlPiYjeGE7CQkJPHJlY3QgaWQ9InJlY3QyMDU5MCIgeT0iMS41IiBzdHlsZT0iZmlsbDojNTVBNUU0OyIgd2lkdGg9IjI3IiBoZWlnaHQ9IjQ2LjUiLz4mI3hhOwkJPC9nPiYjeGE7CQk8ZyBpZD0ic2hhcGU3NTYzLTEwIiB0cmFuc2Zvcm09InRyYW5zbGF0ZSgxNy4yNSkiPiYjeGE7CQkJPHRpdGxlIGlkPSJ0aXRsZTIwNTkzIj5yZWN0MTA2NTwvdGl0bGU+JiN4YTsJCQk8cmVjdCBpZD0icmVjdDIwNTk1IiB5PSIxLjUiIHN0eWxlPSJmaWxsOiMyQTZEQ0Y7IiB3aWR0aD0iOS43NSIgaGVpZ2h0PSI0Ni41Ii8+JiN4YTsJCTwvZz4mI3hhOwkJPGcgaWQ9InNoYXBlNzU2NC0xMiIgdHJhbnNmb3JtPSJ0cmFuc2xhdGUoMTUuNzUsLTMzKSI+JiN4YTsJCQk8dGl0bGUgaWQ9InRpdGxlMjA1OTgiPnJlY3QxMDY3PC90aXRsZT4mI3hhOwkJCTxyZWN0IGlkPSJyZWN0MjA2MDAiIHk9IjQ2LjUiIHdpZHRoPSI5Ljc1IiBoZWlnaHQ9IjEuNSIvPiYjeGE7CQk8L2c+JiN4YTsJCTxnIGlkPSJzaGFwZTc1NjUtMTQiIHRyYW5zZm9ybT0idHJhbnNsYXRlKDAuNzgwMDAxLC0zMykiPiYjeGE7CQkJPHRpdGxlIGlkPSJ0aXRsZTIwNjAzIj5yZWN0MTA2OTwvdGl0bGU+JiN4YTsJCQk8cmVjdCBpZD0icmVjdDIwNjA1IiB4PSIwIiB5PSI0Ni41IiBzdHlsZT0iZmlsbDojMzMzMzMzOyIgd2lkdGg9IjExLjk3IiBoZWlnaHQ9IjEuNSIvPiYjeGE7CQk8L2c+JiN4YTsJCTxnIGlkPSJzaGFwZTc1NjYtMTYiIHRyYW5zZm9ybT0idHJhbnNsYXRlKDAuNDcyNSwtNDAuNDAyNSkiPiYjeGE7CQkJPHRpdGxlIGlkPSJ0aXRsZTIwNjA4Ij5wb2x5Z29uMTA3MTwvdGl0bGU+JiN4YTsJCQk8cmVjdCBpZD0icmVjdDIwNjEwIiB4PSIwIiB5PSI0Ni41MSIgc3R5bGU9ImZpbGw6bm9uZTsiIHdpZHRoPSIxOC40NSIgaGVpZ2h0PSIxLjQ5Ii8+JiN4YTsJCTwvZz4mI3hhOwkJPGcgaWQ9InNoYXBlNzU2Ny0xOCIgdHJhbnNmb3JtPSJ0cmFuc2xhdGUoMC40NzI1LC00MC40MDI1KSI+JiN4YTsJCQk8dGl0bGUgaWQ9InRpdGxlMjA2MTMiPnBvbHlsaW5lMTA3MzwvdGl0bGU+JiN4YTsJCQk8cmVjdCBpZD0icmVjdDIwNjE1IiB4PSIwIiB5PSI0Ni41MSIgc3R5bGU9ImZpbGw6bm9uZTsiIHdpZHRoPSIxOC40NSIgaGVpZ2h0PSIxLjQ5Ii8+JiN4YTsJCTwvZz4mI3hhOwkJPGcgaWQ9InNoYXBlNzU2OC0yMCIgdHJhbnNmb3JtPSJ0cmFuc2xhdGUoMTIsLTMzKSI+JiN4YTsJCQk8dGl0bGUgaWQ9InRpdGxlMjA2MTgiPnBvbHlnb24xMDc1PC90aXRsZT4mI3hhOwkJCTxyZWN0IGlkPSJyZWN0MjA2MjAiIHk9IjQ2LjUiIHN0eWxlPSJmaWxsOiNENEU4Rjg7IiB3aWR0aD0iNS4yNSIgaGVpZ2h0PSIxLjUiLz4mI3hhOwkJPC9nPiYjeGE7CQk8ZyBpZD0ic2hhcGU3NTY5LTIyIiB0cmFuc2Zvcm09InRyYW5zbGF0ZSgxNS43NSwtMzYuNzUpIj4mI3hhOwkJCTx0aXRsZSBpZD0idGl0bGUyMDYyMyI+cmVjdDEwNzc8L3RpdGxlPiYjeGE7CQkJPHJlY3QgaWQ9InJlY3QyMDYyNSIgeT0iNDYuNSIgd2lkdGg9IjkuNzUiIGhlaWdodD0iMS41Ii8+JiN4YTsJCTwvZz4mI3hhOwkJPGcgaWQ9InNoYXBlNzU3MC0yNCIgdHJhbnNmb3JtPSJ0cmFuc2xhdGUoMC43ODAwMDEsLTM2Ljc1KSI+JiN4YTsJCQk8dGl0bGUgaWQ9InRpdGxlMjA2MjgiPnJlY3QxMDc5PC90aXRsZT4mI3hhOwkJCTxyZWN0IGlkPSJyZWN0MjA2MzAiIHg9IjAiIHk9IjQ2LjUiIHN0eWxlPSJmaWxsOiMzMzMzMzM7IiB3aWR0aD0iMTEuOTciIGhlaWdodD0iMS41Ii8+JiN4YTsJCTwvZz4mI3hhOwkJPGcgaWQ9InNoYXBlNzU3MS0yNiIgdHJhbnNmb3JtPSJ0cmFuc2xhdGUoMTIsLTM2Ljc1KSI+JiN4YTsJCQk8dGl0bGUgaWQ9InRpdGxlMjA2MzMiPnBvbHlnb24xMDgxPC90aXRsZT4mI3hhOwkJCTxyZWN0IGlkPSJyZWN0MjA2MzUiIHk9IjQ2LjUiIHN0eWxlPSJmaWxsOiNENEU4Rjg7IiB3aWR0aD0iNS4yNSIgaGVpZ2h0PSIxLjUiLz4mI3hhOwkJPC9nPiYjeGE7CQk8ZyBpZD0ic2hhcGU3NTcyLTI4IiB0cmFuc2Zvcm09InRyYW5zbGF0ZSgxNS43NSwtNDAuNSkiPiYjeGE7CQkJPHRpdGxlIGlkPSJ0aXRsZTIwNjM4Ij5yZWN0MTA4MzwvdGl0bGU+JiN4YTsJCQk8cmVjdCBpZD0icmVjdDIwNjQwIiB5PSI0Ni41IiB3aWR0aD0iOS43NSIgaGVpZ2h0PSIxLjUiLz4mI3hhOwkJPC9nPiYjeGE7CQk8ZyBpZD0ic2hhcGU3NTczLTMwIiB0cmFuc2Zvcm09InRyYW5zbGF0ZSgwLjc4MDAwMSwtNDAuNSkiPiYjeGE7CQkJPHRpdGxlIGlkPSJ0aXRsZTIwNjQzIj5yZWN0MTA4NTwvdGl0bGU+JiN4YTsJCQk8cmVjdCBpZD0icmVjdDIwNjQ1IiB4PSIwIiB5PSI0Ni41IiBzdHlsZT0iZmlsbDojMzMzMzMzOyIgd2lkdGg9IjExLjk3IiBoZWlnaHQ9IjEuNSIvPiYjeGE7CQk8L2c+JiN4YTsJCTxnIGlkPSJzaGFwZTc1NzQtMzIiIHRyYW5zZm9ybT0idHJhbnNsYXRlKDEyLC00MC41MDc1KSI+JiN4YTsJCQk8dGl0bGUgaWQ9InRpdGxlMjA2NDgiPnBvbHlnb24xMDg3PC90aXRsZT4mI3hhOwkJCTxyZWN0IGlkPSJyZWN0MjA2NTAiIHk9IjQ2LjUxIiBzdHlsZT0iZmlsbDojRDRFOEY4OyIgd2lkdGg9IjUuMjUiIGhlaWdodD0iMS40OSIvPiYjeGE7CQk8L2c+JiN4YTsJCTxnIGlkPSJzaGFwZTc1NzUtMzQiIHRyYW5zZm9ybT0idHJhbnNsYXRlKDAsLTQwLjUpIj4mI3hhOwkJCTx0aXRsZSBpZD0idGl0bGUyMDY1MyI+cmVjdDEwODk8L3RpdGxlPiYjeGE7CQkJPHJlY3QgaWQ9InJlY3QyMDY1NSIgeT0iNDYuNSIgc3R5bGU9ImZpbGw6I0ZGRkZGRjsiIHdpZHRoPSIxLjUiIGhlaWdodD0iMS41Ii8+JiN4YTsJCTwvZz4mI3hhOwkJPGcgaWQ9InNoYXBlNzU3Ni0zNiIgdHJhbnNmb3JtPSJ0cmFuc2xhdGUoMCwtMzYuNzUpIj4mI3hhOwkJCTx0aXRsZSBpZD0idGl0bGUyMDY1OCI+cmVjdDEwOTE8L3RpdGxlPiYjeGE7CQkJPHJlY3QgaWQ9InJlY3QyMDY2MCIgeT0iNDYuNSIgc3R5bGU9ImZpbGw6I0ZGRkZGRjsiIHdpZHRoPSIxLjUiIGhlaWdodD0iMS41Ii8+JiN4YTsJCTwvZz4mI3hhOwkJPGcgaWQ9InNoYXBlNzU3Ny0zOCIgdHJhbnNmb3JtPSJ0cmFuc2xhdGUoMCwtMzMpIj4mI3hhOwkJCTx0aXRsZSBpZD0idGl0bGUyMDY2MyI+cmVjdDEwOTM8L3RpdGxlPiYjeGE7CQkJPHJlY3QgaWQ9InJlY3QyMDY2NSIgeT0iNDYuNSIgc3R5bGU9ImZpbGw6I0ZGRkZGRjsiIHdpZHRoPSIxLjUiIGhlaWdodD0iMS41Ii8+JiN4YTsJCTwvZz4mI3hhOwkJPGcgaWQ9InNoYXBlNzU3OC00MCIgdHJhbnNmb3JtPSJ0cmFuc2xhdGUoMCwtMjkuMjUpIj4mI3hhOwkJCTx0aXRsZSBpZD0idGl0bGUyMDY2OCI+cmVjdDEwOTU8L3RpdGxlPiYjeGE7CQkJPHJlY3QgaWQ9InJlY3QyMDY3MCIgeT0iNDYuNSIgc3R5bGU9ImZpbGw6I0ZGRkZGRjsiIHdpZHRoPSIxLjUiIGhlaWdodD0iMS41Ii8+JiN4YTsJCTwvZz4mI3hhOwkJPGcgaWQ9InNoYXBlNzU3OS00MiIgdHJhbnNmb3JtPSJ0cmFuc2xhdGUoMCwtMjUuNSkiPiYjeGE7CQkJPHRpdGxlIGlkPSJ0aXRsZTIwNjczIj5yZWN0MTA5NzwvdGl0bGU+JiN4YTsJCQk8cmVjdCBpZD0icmVjdDIwNjc1IiB5PSI0Ni41IiBzdHlsZT0iZmlsbDojRkZGRkZGOyIgd2lkdGg9IjEuNSIgaGVpZ2h0PSIxLjUiLz4mI3hhOwkJPC9nPiYjeGE7CTwvZz4mI3hhOzwvZz4mI3hhOzwvc3ZnPg==;labelPosition=center;align=center;fontStyle=1" parent="1" vertex="1">
          <mxGeometry x="1540" y="609" width="70.95" height="123.5" as="geometry" />
        </mxCell>
        <mxCell id="lAx5uchjGVzoTK3gPOGS-32" style="edgeStyle=none;curved=1;rounded=0;orthogonalLoop=1;jettySize=auto;html=1;entryX=0;entryY=0.5;entryDx=0;entryDy=0;fontSize=12;startSize=8;endSize=8;startArrow=none;startFill=0;strokeWidth=3;fillColor=#dae8fc;strokeColor=#6c8ebf;endArrow=classic;endFill=1;" parent="1" edge="1">
          <mxGeometry relative="1" as="geometry">
            <mxPoint x="1170.0000000000005" y="653.5366205305654" as="sourcePoint" />
            <mxPoint x="1540" y="653.75" as="targetPoint" />
          </mxGeometry>
        </mxCell>
        <mxCell id="lAx5uchjGVzoTK3gPOGS-75" value="Committed transaction &amp;amp; send result" style="edgeLabel;html=1;align=center;verticalAlign=bottom;resizable=0;points=[];fontSize=12;" parent="lAx5uchjGVzoTK3gPOGS-32" vertex="1" connectable="0">
          <mxGeometry x="0.1036" y="2" relative="1" as="geometry">
            <mxPoint x="-34" as="offset" />
          </mxGeometry>
        </mxCell>
        <mxCell id="lAx5uchjGVzoTK3gPOGS-35" value="" style="edgeStyle=none;curved=1;rounded=0;orthogonalLoop=1;jettySize=auto;html=1;fontSize=12;startSize=8;endSize=8;startArrow=classic;startFill=1;fillColor=#dae8fc;strokeColor=#6c8ebf;strokeWidth=3;endArrow=none;endFill=0;" parent="1" edge="1">
          <mxGeometry relative="1" as="geometry">
            <mxPoint x="1043" y="651.5" as="sourcePoint" />
            <mxPoint x="655.9000000000001" y="651.5" as="targetPoint" />
          </mxGeometry>
        </mxCell>
        <mxCell id="lAx5uchjGVzoTK3gPOGS-72" value="Approved Transaction" style="edgeLabel;html=1;align=center;verticalAlign=bottom;resizable=0;points=[];fontSize=12;" parent="lAx5uchjGVzoTK3gPOGS-35" vertex="1" connectable="0">
          <mxGeometry x="-0.0733" y="-3" relative="1" as="geometry">
            <mxPoint x="4" as="offset" />
          </mxGeometry>
        </mxCell>
        <mxCell id="lAx5uchjGVzoTK3gPOGS-25" value="OVS WRAPPER" style="shadow=0;dashed=0;html=1;strokeColor=none;fillColor=#4495D1;labelPosition=center;verticalLabelPosition=middle;verticalAlign=middle;align=center;outlineConnect=0;shape=mxgraph.veeam.interface;horizontal=1;fontStyle=1" parent="1" vertex="1">
          <mxGeometry x="1043" y="615" width="127" height="111" as="geometry" />
        </mxCell>
        <mxCell id="lAx5uchjGVzoTK3gPOGS-36" style="edgeStyle=none;curved=1;rounded=0;orthogonalLoop=1;jettySize=auto;html=1;fontSize=12;startSize=8;endSize=8;startArrow=classic;startFill=1;fillColor=#fff2cc;strokeColor=#d6b656;strokeWidth=3;endArrow=none;endFill=0;" parent="1" edge="1">
          <mxGeometry relative="1" as="geometry">
            <mxPoint x="655.9000000000005" y="693.5" as="sourcePoint" />
            <mxPoint x="1043" y="693.5" as="targetPoint" />
          </mxGeometry>
        </mxCell>
        <mxCell id="lAx5uchjGVzoTK3gPOGS-73" value="Validated Transaction" style="edgeLabel;html=1;align=center;verticalAlign=top;resizable=0;points=[];fontSize=12;" parent="lAx5uchjGVzoTK3gPOGS-36" vertex="1" connectable="0">
          <mxGeometry x="0.0841" y="-1" relative="1" as="geometry">
            <mxPoint y="1" as="offset" />
          </mxGeometry>
        </mxCell>
        <mxCell id="lAx5uchjGVzoTK3gPOGS-37" style="edgeStyle=none;curved=1;rounded=0;orthogonalLoop=1;jettySize=auto;html=1;fontSize=12;startSize=8;endSize=8;entryX=0;entryY=1;entryDx=0;entryDy=0;exitX=1;exitY=0;exitDx=0;exitDy=0;startArrow=classic;startFill=1;fillColor=#dae8fc;strokeColor=#6c8ebf;strokeWidth=3;" parent="1" source="lAx5uchjGVzoTK3gPOGS-26" target="lAx5uchjGVzoTK3gPOGS-18" edge="1">
          <mxGeometry relative="1" as="geometry" />
        </mxCell>
        <mxCell id="lAx5uchjGVzoTK3gPOGS-41" style="edgeStyle=none;curved=1;rounded=0;orthogonalLoop=1;jettySize=auto;html=1;fontSize=12;startSize=8;endSize=8;endArrow=none;endFill=0;fillColor=#d5e8d4;strokeColor=#82b366;strokeWidth=3;entryX=0.033;entryY=0.063;entryDx=0;entryDy=0;entryPerimeter=0;" parent="1" source="lAx5uchjGVzoTK3gPOGS-26" target="lAx5uchjGVzoTK3gPOGS-38" edge="1">
          <mxGeometry relative="1" as="geometry">
            <mxPoint x="680" y="990" as="targetPoint" />
          </mxGeometry>
        </mxCell>
        <mxCell id="lAx5uchjGVzoTK3gPOGS-42" style="edgeStyle=none;curved=1;rounded=0;orthogonalLoop=1;jettySize=auto;html=1;entryX=1;entryY=0;entryDx=0;entryDy=0;fontSize=12;startSize=8;endSize=8;endArrow=none;endFill=0;fillColor=#d5e8d4;strokeColor=#82b366;strokeWidth=3;" parent="1" source="lAx5uchjGVzoTK3gPOGS-26" target="lAx5uchjGVzoTK3gPOGS-15" edge="1">
          <mxGeometry relative="1" as="geometry">
            <Array as="points">
              <mxPoint x="530" y="840" />
            </Array>
          </mxGeometry>
        </mxCell>
        <mxCell id="lAx5uchjGVzoTK3gPOGS-43" style="edgeStyle=none;curved=1;rounded=0;orthogonalLoop=1;jettySize=auto;html=1;entryX=1;entryY=0;entryDx=0;entryDy=0;fontSize=12;startSize=8;endSize=8;endArrow=none;endFill=0;strokeWidth=3;fillColor=#d5e8d4;strokeColor=#82b366;" parent="1" source="lAx5uchjGVzoTK3gPOGS-26" target="lAx5uchjGVzoTK3gPOGS-13" edge="1">
          <mxGeometry relative="1" as="geometry" />
        </mxCell>
        <mxCell id="lAx5uchjGVzoTK3gPOGS-26" value="TRAFIS" style="shape=image;verticalLabelPosition=middle;labelBackgroundColor=default;verticalAlign=middle;aspect=fixed;imageAspect=0;image=data:image/svg+xml,PHN2ZyB4bWxuczpjYz0iaHR0cDovL2NyZWF0aXZlY29tbW9ucy5vcmcvbnMjIiB4bWxuczpkYz0iaHR0cDovL3B1cmwub3JnL2RjL2VsZW1lbnRzLzEuMS8iIHhtbG5zOmlua3NjYXBlPSJodHRwOi8vd3d3Lmlua3NjYXBlLm9yZy9uYW1lc3BhY2VzL2lua3NjYXBlIiB4bWxuczpyZGY9Imh0dHA6Ly93d3cudzMub3JnLzE5OTkvMDIvMjItcmRmLXN5bnRheC1ucyMiIHhtbG5zOnNvZGlwb2RpPSJodHRwOi8vc29kaXBvZGkuc291cmNlZm9yZ2UubmV0L0RURC9zb2RpcG9kaS0wLmR0ZCIgeG1sbnM6c3ZnPSJodHRwOi8vd3d3LnczLm9yZy8yMDAwL3N2ZyIgeG1sbnM9Imh0dHA6Ly93d3cudzMub3JnLzIwMDAvc3ZnIiB4bWxuczp4bGluaz0iaHR0cDovL3d3dy53My5vcmcvMTk5OS94bGluayIgdmVyc2lvbj0iMS4xIiBpZD0ic3ZnMTA5ODEiIGlua3NjYXBlOnZlcnNpb249IjAuOTIuMyAoMjQwNTU0NiwgMjAxOC0wMy0xMSkiIHNvZGlwb2RpOmRvY25hbWU9IndlYl9hcHBsaWNhdGlvbl9zZXJ2ZXIuc3ZnIiB4PSIwcHgiIHk9IjBweCIgdmlld0JveD0iMCAwIDYzLjExIDY5Ljc1IiBzdHlsZT0iZW5hYmxlLWJhY2tncm91bmQ6bmV3IDAgMCA2My4xMSA2OS43NTsiIHhtbDpzcGFjZT0icHJlc2VydmUiPiYjeGE7PHNvZGlwb2RpOm5hbWVkdmlldyBib3JkZXJjb2xvcj0iIzY2NjY2NiIgYm9yZGVyb3BhY2l0eT0iMSIgZml0LW1hcmdpbi1ib3R0b209IjAiIGZpdC1tYXJnaW4tbGVmdD0iMCIgZml0LW1hcmdpbi1yaWdodD0iMCIgZml0LW1hcmdpbi10b3A9IjAiIGdyaWR0b2xlcmFuY2U9IjEwIiBndWlkZXRvbGVyYW5jZT0iMTAiIGlkPSJuYW1lZHZpZXcxMDk4MyIgaW5rc2NhcGU6Y3VycmVudC1sYXllcj0ic3ZnMTA5ODEiIGlua3NjYXBlOmN4PSI0MC4wODI5OTYiIGlua3NjYXBlOmN5PSIzNy45NDQ2MjIiIGlua3NjYXBlOnBhZ2VvcGFjaXR5PSIwIiBpbmtzY2FwZTpwYWdlc2hhZG93PSIyIiBpbmtzY2FwZTp3aW5kb3ctaGVpZ2h0PSIxMDE3IiBpbmtzY2FwZTp3aW5kb3ctbWF4aW1pemVkPSIxIiBpbmtzY2FwZTp3aW5kb3ctd2lkdGg9IjE5MjAiIGlua3NjYXBlOndpbmRvdy14PSItOCIgaW5rc2NhcGU6d2luZG93LXk9Ii04IiBpbmtzY2FwZTp6b29tPSI2LjQ1MzI4MTkiIG9iamVjdHRvbGVyYW5jZT0iMTAiIHBhZ2Vjb2xvcj0iI2ZmZmZmZiIgc2hvd2dyaWQ9ImZhbHNlIj4mI3hhOwk8L3NvZGlwb2RpOm5hbWVkdmlldz4mI3hhOzxnIGlkPSJnMTA5NzkiIHRyYW5zZm9ybT0idHJhbnNsYXRlKC0wLjc1LC0wLjc1KSI+JiN4YTsJPHRpdGxlIGlkPSJ0aXRsZTEwODU3Ij5QYWdlLTE8L3RpdGxlPiYjeGE7CTxnIGlkPSJncm91cDIzNTctMSIgdHJhbnNmb3JtPSJ0cmFuc2xhdGUoMS41LC0xLjUpIj4mI3hhOwkJPHRpdGxlIGlkPSJ0aXRsZTEwODU5Ij5XZWIgQXBwbGljYXRpb24gU2VydmVyPC90aXRsZT4mI3hhOwkJPGcgaWQ9Imdyb3VwMjM1OC0yIj4mI3hhOwkJCTx0aXRsZSBpZD0idGl0bGUxMDg2MSI+U2hlZXQuMjM1ODwvdGl0bGU+JiN4YTsJCQk8ZyBpZD0iZ3JvdXAyMzU5LTMiPiYjeGE7CQkJCTx0aXRsZSBpZD0idGl0bGUxMDg2MyI+ZzE2NDA4PC90aXRsZT4mI3hhOwkJCQk8ZyBpZD0ic2hhcGUyMzYwLTQiPiYjeGE7CQkJCQk8dGl0bGUgaWQ9InRpdGxlMTA4NjUiPnJlY3QxNjM4MDwvdGl0bGU+JiN4YTsJCQkJCSYjeGE7CQkJCQkJPHJlY3QgaWQ9InJlY3QxMDg2NyIgeD0iMCIgeT0iMyIgc3R5bGU9ImZpbGw6I0ZGRkZGRjtzdHJva2U6IzU1NkE4QTtzdHJva2Utd2lkdGg6MS41O3N0cm9rZS1taXRlcmxpbWl0OjM7IiB3aWR0aD0iMzkuNzUiIGhlaWdodD0iNjguMjUiLz4mI3hhOwkJCQk8L2c+JiN4YTsJCQkJPGcgaWQ9Imdyb3VwMjM2MS02IiB0cmFuc2Zvcm09InRyYW5zbGF0ZSgxLjUsLTAuNzUpIj4mI3hhOwkJCQkJPHRpdGxlIGlkPSJ0aXRsZTEwODcwIj5nMTY0MDA8L3RpdGxlPiYjeGE7CQkJCQk8ZyBpZD0ic2hhcGUyMzYyLTciIHRyYW5zZm9ybT0idHJhbnNsYXRlKDE4KSI+JiN4YTsJCQkJCQk8dGl0bGUgaWQ9InRpdGxlMTA4NzIiPnJlY3QxNjM4MjwvdGl0bGU+JiN4YTsJCQkJCQk8cmVjdCBpZD0icmVjdDEwODc0IiB4PSIwIiB5PSI0LjUiIHN0eWxlPSJmaWxsOiNFNUU1RTU7IiB3aWR0aD0iMTkuNSIgaGVpZ2h0PSI2Ni43NSIvPiYjeGE7CQkJCQk8L2c+JiN4YTsJCQkJCTxnIGlkPSJzaGFwZTIzNjMtOSIgdHJhbnNmb3JtPSJ0cmFuc2xhdGUoMCwtNDgpIj4mI3hhOwkJCQkJCTx0aXRsZSBpZD0idGl0bGUxMDg3NyI+cmVjdDE2Mzg0PC90aXRsZT4mI3hhOwkJCQkJCTxyZWN0IGlkPSJyZWN0MTA4NzkiIHg9IjAiIHk9IjY5IiBzdHlsZT0iZmlsbDojMkJDN0Y0OyIgd2lkdGg9IjE4IiBoZWlnaHQ9IjIuMjUiLz4mI3hhOwkJCQkJPC9nPiYjeGE7CQkJCQk8ZyBpZD0ic2hhcGUyMzY0LTExIiB0cmFuc2Zvcm09InRyYW5zbGF0ZSgwLC01OC41KSI+JiN4YTsJCQkJCQk8dGl0bGUgaWQ9InRpdGxlMTA4ODIiPnBvbHlnb24xNjM4NjwvdGl0bGU+JiN4YTsJCQkJCQk8cmVjdCBpZD0icmVjdDEwODg0IiB4PSIwIiB5PSI2OSIgc3R5bGU9ImZpbGw6bm9uZTsiIHdpZHRoPSIyNyIgaGVpZ2h0PSIyLjI1Ii8+JiN4YTsJCQkJCTwvZz4mI3hhOwkJCQkJPGcgaWQ9InNoYXBlMjM2NS0xMyIgdHJhbnNmb3JtPSJ0cmFuc2xhdGUoMCwtNTguNSkiPiYjeGE7CQkJCQkJPHRpdGxlIGlkPSJ0aXRsZTEwODg3Ij5wb2x5bGluZTE2Mzg4PC90aXRsZT4mI3hhOwkJCQkJCTxyZWN0IGlkPSJyZWN0MTA4ODkiIHg9IjAiIHk9IjY5IiBzdHlsZT0iZmlsbDpub25lOyIgd2lkdGg9IjI3IiBoZWlnaHQ9IjIuMjUiLz4mI3hhOwkJCQkJPC9nPiYjeGE7CQkJCQk8ZyBpZD0ic2hhcGUyMzY2LTE1IiB0cmFuc2Zvcm09InRyYW5zbGF0ZSgwLC01My4yNSkiPiYjeGE7CQkJCQkJPHRpdGxlIGlkPSJ0aXRsZTEwODkyIj5yZWN0MTYzOTA8L3RpdGxlPiYjeGE7CQkJCQkJPHJlY3QgaWQ9InJlY3QxMDg5NCIgeD0iMCIgeT0iNjkiIHN0eWxlPSJmaWxsOiMyQkM3RjQ7IiB3aWR0aD0iMTgiIGhlaWdodD0iMi4yNSIvPiYjeGE7CQkJCQk8L2c+JiN4YTsJCQkJCTxnIGlkPSJzaGFwZTIzNjctMTciIHRyYW5zZm9ybT0idHJhbnNsYXRlKDAsLTU4LjUpIj4mI3hhOwkJCQkJCTx0aXRsZSBpZD0idGl0bGUxMDg5NyI+cmVjdDE2MzkyPC90aXRsZT4mI3hhOwkJCQkJCTxyZWN0IGlkPSJyZWN0MTA4OTkiIHg9IjAiIHk9IjY5IiBzdHlsZT0iZmlsbDojMkJDN0Y0OyIgd2lkdGg9IjE4IiBoZWlnaHQ9IjIuMjUiLz4mI3hhOwkJCQkJPC9nPiYjeGE7CQkJCQk8ZyBpZD0ic2hhcGUyMzY4LTE5IiB0cmFuc2Zvcm09InRyYW5zbGF0ZSgxOCwtNDgpIj4mI3hhOwkJCQkJCTx0aXRsZSBpZD0idGl0bGUxMDkwMiI+cmVjdDE2Mzk0PC90aXRsZT4mI3hhOwkJCQkJCTxyZWN0IGlkPSJyZWN0MTA5MDQiIHg9IjAiIHk9IjY5IiBzdHlsZT0iZmlsbDojNTU2QThBOyIgd2lkdGg9IjE5LjUiIGhlaWdodD0iMi4yNSIvPiYjeGE7CQkJCQk8L2c+JiN4YTsJCQkJCTxnIGlkPSJzaGFwZTIzNjktMjEiIHRyYW5zZm9ybT0idHJhbnNsYXRlKDE4LC01My4yNSkiPiYjeGE7CQkJCQkJPHRpdGxlIGlkPSJ0aXRsZTEwOTA3Ij5yZWN0MTYzOTY8L3RpdGxlPiYjeGE7CQkJCQkJPHJlY3QgaWQ9InJlY3QxMDkwOSIgeD0iMCIgeT0iNjkiIHN0eWxlPSJmaWxsOiM1NTZBOEE7IiB3aWR0aD0iMTkuNSIgaGVpZ2h0PSIyLjI1Ii8+JiN4YTsJCQkJCTwvZz4mI3hhOwkJCQkJPGcgaWQ9InNoYXBlMjM3MC0yMyIgdHJhbnNmb3JtPSJ0cmFuc2xhdGUoMTgsLTU4LjUpIj4mI3hhOwkJCQkJCTx0aXRsZSBpZD0idGl0bGUxMDkxMiI+cmVjdDE2Mzk4PC90aXRsZT4mI3hhOwkJCQkJCTxyZWN0IGlkPSJyZWN0MTA5MTQiIHg9IjAiIHk9IjY5IiBzdHlsZT0iZmlsbDojNTU2QThBOyIgd2lkdGg9IjE5LjUiIGhlaWdodD0iMi4yNSIvPiYjeGE7CQkJCQk8L2c+JiN4YTsJCQkJPC9nPiYjeGE7CQkJCTxnIGlkPSJzaGFwZTIzNzEtMjUiIHRyYW5zZm9ybT0idHJhbnNsYXRlKDAuNzUsLTU5LjI1KSI+JiN4YTsJCQkJCTx0aXRsZSBpZD0idGl0bGUxMDkxOCI+cmVjdDE2NDAyPC90aXRsZT4mI3hhOwkJCQkJPHJlY3QgaWQ9InJlY3QxMDkyMCIgeD0iMCIgeT0iNjkiIHN0eWxlPSJmaWxsOiM1NTZBOEE7IiB3aWR0aD0iMi4yNSIgaGVpZ2h0PSIyLjI1Ii8+JiN4YTsJCQkJPC9nPiYjeGE7CQkJCTxnIGlkPSJzaGFwZTIzNzItMjciIHRyYW5zZm9ybT0idHJhbnNsYXRlKDAuNzUsLTU0KSI+JiN4YTsJCQkJCTx0aXRsZSBpZD0idGl0bGUxMDkyMyI+cmVjdDE2NDA0PC90aXRsZT4mI3hhOwkJCQkJPHJlY3QgaWQ9InJlY3QxMDkyNSIgeD0iMCIgeT0iNjkiIHN0eWxlPSJmaWxsOiM1NTZBOEE7IiB3aWR0aD0iMi4yNSIgaGVpZ2h0PSIyLjI1Ii8+JiN4YTsJCQkJPC9nPiYjeGE7CQkJCTxnIGlkPSJzaGFwZTIzNzMtMjkiIHRyYW5zZm9ybT0idHJhbnNsYXRlKDAuNzUsLTQ4Ljc1KSI+JiN4YTsJCQkJCTx0aXRsZSBpZD0idGl0bGUxMDkyOCI+cmVjdDE2NDA2PC90aXRsZT4mI3hhOwkJCQkJPHJlY3QgaWQ9InJlY3QxMDkzMCIgeD0iMCIgeT0iNjkiIHN0eWxlPSJmaWxsOiM1NTZBOEE7IiB3aWR0aD0iMi4yNSIgaGVpZ2h0PSIyLjI1Ii8+JiN4YTsJCQkJPC9nPiYjeGE7CQkJPC9nPiYjeGE7CQk8L2c+JiN4YTsJCTxnIGlkPSJzaGFwZTIzNzQtMzEiIHRyYW5zZm9ybT0idHJhbnNsYXRlKDE3LjM2MjIsLTMuNzA0NykiPiYjeGE7CQkJPHRpdGxlIGlkPSJ0aXRsZTEwOTM1Ij5TaGVldC4yMzc0PC90aXRsZT4mI3hhOwkJCTxwYXRoIGlkPSJwYXRoMTA5MzciIGlua3NjYXBlOmNvbm5lY3Rvci1jdXJ2YXR1cmU9IjAiIHN0eWxlPSJmaWxsOiM1NTZBOEE7IiBkPSJNNDMuMjgsMzguM2MtNDEuNjIsMC00MS42MiwwLTQxLjYyLDAgICAgIEMwLjI4LDM4LjMsMCwzOC42MywwLDQwLjAxYzAsMjkuNTgsMCwyOS41OCwwLDI5LjU4YzAsMS4zOCwwLjI4LDEuNjYsMS42NiwxLjY2YzQxLjYyLDAsNDEuNjIsMCw0MS42MiwwICAgICBjMS40NCwwLDEuNzItMC4yOCwxLjcyLTEuNjZjMC0yOS41OCwwLTI5LjU4LDAtMjkuNThDNDUsMzguNjMsNDQuNzIsMzguMyw0My4yOCwzOC4zeiIvPiYjeGE7CQk8L2c+JiN4YTsJCTxnIGlkPSJzaGFwZTIzNzUtMzMiIHRyYW5zZm9ybT0idHJhbnNsYXRlKDE4LjQ2OTMsLTUuMjUyNykiPiYjeGE7CQkJPHRpdGxlIGlkPSJ0aXRsZTEwOTQwIj5TaGVldC4yMzc1PC90aXRsZT4mI3hhOwkJCTxwYXRoIGlkPSJwYXRoMTA5NDIiIGlua3NjYXBlOmNvbm5lY3Rvci1jdXJ2YXR1cmU9IjAiIHN0eWxlPSJmaWxsOiMwMEIwNTA7IiBkPSJNMCw0Ni4wNHYyNS4yMWg0Mi43OVY0Ni4wNEgweiIvPiYjeGE7CQk8L2c+JiN4YTsJCTxnIGlkPSJzaGFwZTIzNzYtMzUiIHRyYW5zZm9ybT0idHJhbnNsYXRlKDE4LjUyNDYsLTMxLjM0NzcpIj4mI3hhOwkJCTx0aXRsZSBpZD0idGl0bGUxMDk0NSI+U2hlZXQuMjM3NjwvdGl0bGU+JiN4YTsJCQk8cGF0aCBpZD0icGF0aDEwOTQ3IiBpbmtzY2FwZTpjb25uZWN0b3ItY3VydmF0dXJlPSIwIiBzdHlsZT0iZmlsbDojNTVEMkY2OyIgZD0iTTQuNDgsNjkuMDRjMCwxLjI3LTAuOTksMi4yMS0yLjIxLDIuMjEgICAgIFMwLDcwLjMxLDAsNjkuMDRjMC0xLjIyLDEuMDUtMi4yMSwyLjI3LTIuMjFTNC40OCw2Ny44Miw0LjQ4LDY5LjA0eiIvPiYjeGE7CQk8L2c+JiN4YTsJCTxnIGlkPSJzaGFwZTIzNzctMzciIHRyYW5zZm9ybT0idHJhbnNsYXRlKDE5LjQ2NTYsLTMyLjU2NCkiPiYjeGE7CQkJPHRpdGxlIGlkPSJ0aXRsZTEwOTUwIj5TaGVldC4yMzc3PC90aXRsZT4mI3hhOwkJCTxwYXRoIGlkPSJwYXRoMTA5NTIiIGlua3NjYXBlOmNvbm5lY3Rvci1jdXJ2YXR1cmU9IjAiIHN0eWxlPSJmaWxsOiNGRkZGRkY7IiBkPSJNMC44OSw3MC4wM2wwLjc3LTAuNzJIMS4wNUwwLDcwLjI1bDEuMDUsMWgwLjYxICAgICBsLTAuNzctMC43N2gxLjc3di0wLjQ1TDAuODksNzAuMDN6Ii8+JiN4YTsJCTwvZz4mI3hhOwkJPGcgaWQ9InNoYXBlMjM3OC0zOSIgdHJhbnNmb3JtPSJ0cmFuc2xhdGUoMjMuODM4MywtMzIuNTY0KSI+JiN4YTsJCQk8dGl0bGUgaWQ9InRpdGxlMTA5NTUiPlNoZWV0LjIzNzg8L3RpdGxlPiYjeGE7CQkJPHBhdGggaWQ9InBhdGgxMDk1NyIgaW5rc2NhcGU6Y29ubmVjdG9yLWN1cnZhdHVyZT0iMCIgc3R5bGU9ImZpbGw6I0ZGRkZGRjsiIGQ9Ik0wLDY5LjE1djIuMWgzNy40N3YtMi4xSDB6Ii8+JiN4YTsJCTwvZz4mI3hhOwkJPGcgaWQ9InNoYXBlMjM3OS00MSIgdHJhbnNmb3JtPSJ0cmFuc2xhdGUoMjguOTMwNSwtMTMuMzI0NSkiPiYjeGE7CQkJPHRpdGxlIGlkPSJ0aXRsZTEwOTYwIj5TaGVldC4yMzc5PC90aXRsZT4mI3hhOwkJCTxwYXRoIGlkPSJwYXRoMTA5NjIiIGlua3NjYXBlOmNvbm5lY3Rvci1jdXJ2YXR1cmU9IjAiIHN0eWxlPSJmaWxsOiNGRkZGRkY7IiBkPSJNMjEuMDksNjYuNDRjMC0xLjExLTAuODktMi4wNS0yLjA1LTIuMDUgICAgIGMtMy4xLDAtMy4xLDAtMy4xLDBjLTIuNzEtMi42NS0yLjcxLTIuNjUtMi43MS0yLjY1Yy02LjY0LDAtNi42NCwwLTYuNjQsMGMtMi44MywyLjcxLTIuODMsMi43MS0yLjgzLDIuNzEgICAgIGMtMS43MSwwLjE3LTMuMSwxLjYtMy4xLDMuMzdjMCwwLjY3LDAsMC42NywwLDAuNjdjLTAuNjYsMC0wLjY2LDAtMC42NiwwYzAsMS4zMiwwLDEuMzIsMCwxLjMyYzIuODgsMCwyLjg4LDAsMi44OCwwICAgICBjMC4yNywwLjgzLDEuMDUsMS40NCwxLjk0LDEuNDRjMC44OCwwLDEuNi0wLjYxLDEuODgtMS40NGM4LjQxLDAsOC40MSwwLDguNDEsMGMwLjMzLDAuODMsMS4wNSwxLjQ0LDEuOTQsMS40NCAgICAgYzAuODgsMCwxLjYtMC42MSwxLjk0LTEuNDRjMi43NiwwLDIuNzYsMCwyLjc2LDBjMC0xLjMyLDAtMS4zMiwwLTEuMzJjLTAuNjYsMC0wLjY2LDAtMC42NiwwTDIxLjA5LDY2LjQ0eiBNMTkuNzYsNjYuNDQgICAgIGMwLDIuMDUsMCwyLjA1LDAsMi4wNWMtMC43NywwLTAuNzcsMC0wLjc3LDBjLTAuMzQtMC43OC0xLjA2LTEuMzktMS45NC0xLjM5Yy0wLjg5LDAtMS42MSwwLjYxLTEuOTQsMS4zOWMtNS41OSwwLTUuNTksMC01LjU5LDAgICAgIGMwLTIuNzEsMC0yLjcxLDAtMi43MWM5LjUyLDAsOS41MiwwLDkuNTIsMEMxOS40OCw2NS43OCwxOS43Niw2Ni4wNSwxOS43Niw2Ni40NHogTTE0LDY0LjM5Yy00LjQ4LDAtNC40OCwwLTQuNDgsMCAgICAgYzAtMS4zMiwwLTEuMzIsMC0xLjMyYzMuMTYsMCwzLjE2LDAsMy4xNiwwTDE0LDY0LjM5eiBNNy4wOCw2My4wN2MxLjExLDAsMS4xMSwwLDEuMTEsMGMwLDEuMzIsMCwxLjMyLDAsMS4zMiAgICAgYy0yLjQzLDAtMi40MywwLTIuNDMsMEw3LjA4LDYzLjA3eiBNMi4wNSw2Ny44MmMwLTEuMTYsMC44OC0yLjA0LDIuMS0yLjA0YzQuMDQsMCw0LjA0LDAsNC4wNCwwYzAsMi43MSwwLDIuNzEsMCwyLjcxICAgICBjLTEuNDksMC0xLjQ5LDAtMS40OSwwYy0wLjI4LTAuNzgtMS0xLjM5LTEuODgtMS4zOWMtMC44OSwwLTEuNjcsMC42MS0xLjk0LDEuMzljLTAuODMsMC0wLjgzLDAtMC44MywwVjY3LjgyeiBNNC44Miw2OS44MSAgICAgYy0wLjM5LDAtMC42Ny0wLjI3LTAuNjctMC42NmMwLTAuMzMsMC4yOC0wLjY2LDAuNjctMC42NmMwLjMzLDAsMC42NiwwLjMzLDAuNjYsMC42NkM1LjQ4LDY5LjU0LDUuMTUsNjkuODEsNC44Miw2OS44MXogICAgICBNMTcuMDUsNjkuODFjLTAuMzksMC0wLjY3LTAuMjctMC42Ny0wLjY2YzAtMC4zMywwLjI4LTAuNjYsMC42Ny0wLjY2czAuNjYsMC4zMywwLjY2LDAuNjZDMTcuNzEsNjkuNTQsMTcuNDQsNjkuODEsMTcuMDUsNjkuODEgICAgIHoiLz4mI3hhOwkJPC9nPiYjeGE7CQk8ZyBpZD0ic2hhcGUyMzgwLTQzIiB0cmFuc2Zvcm09InRyYW5zbGF0ZSgxOC4zMjcxLC01LjIyNzI5KSI+JiN4YTsJCQk8dGl0bGUgaWQ9InRpdGxlMTA5NjUiPlNoZWV0LjIzODA8L3RpdGxlPiYjeGE7CQkJPHBhdGggaWQ9InBhdGgxMDk2NyIgaW5rc2NhcGU6Y29ubmVjdG9yLWN1cnZhdHVyZT0iMCIgc3R5bGU9ImZpbGw6IzU1RDJGNjsiIGQ9Ik0wLDQ2LjAzdjI1LjIyaDQyLjg1VjQ2LjAzSDB6Ii8+JiN4YTsJCTwvZz4mI3hhOwkJPGcgaWQ9Imdyb3VwMjM4MS00NSIgdHJhbnNmb3JtPSJ0cmFuc2xhdGUoMjkuNzA3MiwtOC40MjM1NykiPiYjeGE7CQkJPHRpdGxlIGlkPSJ0aXRsZTEwOTcwIj5XZWJzaXRlczwvdGl0bGU+JiN4YTsJCQk8ZyBpZD0ic2hhcGUyMzgyLTQ2Ij4mI3hhOwkJCQk8dGl0bGUgaWQ9InRpdGxlMTA5NzIiPlNoZWV0LjIzODI8L3RpdGxlPiYjeGE7CQkJCTxwYXRoIGlkPSJwYXRoMTA5NzQiIGlua3NjYXBlOmNvbm5lY3Rvci1jdXJ2YXR1cmU9IjAiIHN0eWxlPSJmaWxsOiNGRkZGRkY7IiBkPSJNMTAuMSw1MS4wNGM1LjU5LDAsMTAuMjEsNC40OSwxMC4yMSwxMC4wNSAgICAgIGMwLDUuNjctNC42MiwxMC4xNi0xMC4yMSwxMC4xNkM0LjUyLDcxLjI1LDAsNjYuNzYsMCw2MS4wOUMwLDU1LjUzLDQuNTIsNTEuMDQsMTAuMSw1MS4wNHogTTEzLjg2LDY5LjQzICAgICAgYy0wLjMyLTEuNzEsMC42NS00LjU5LDAuMTEtNS4xM2MtMC4yMS0wLjExLTAuNDMtMC4yMS0wLjY0LTAuMTFjLTAuNDMsMC4xMS0wLjg2LDAuMzItMS4xOSwwLjIyICAgICAgYy0xLjgyLTAuODYtMC43NS0zLjc1LDEuMDgtNC4zOWMwLjMyLTAuMSwwLjY0LTAuMSwwLjk3LTAuMWMwLjUzLTAuMTEsMC44Ni0wLjExLDAuODYsMC4yMWMwLDAuNDMsMC44NiwwLjc1LDEuMDcsMC43NSAgICAgIGMwLjExLDAsMC4xMS0wLjMyLDAuMjItMC4zMmMwLjc1LDAsMS4yOCwwLjQzLDEuMzksMC4xYzAuMjItMS4wNywwLjExLTAuNTMtMC43NS0wLjY0Yy0wLjMyLTAuMS0wLjExLTAuNjQtMC40My0wLjY0ICAgICAgYy0wLjIxLTAuMSwwLjExLDAuNjQtMC4yMSwwLjQzYy0wLjQzLTAuMzItMC42NS0xLjA3LTEuMDgtMS4xOGMtMC41NC0wLjEsMC4zMiwwLjQzLDAuNDMsMC43NWMwLjExLDAuMzItMC4zMiwwLjc1LTAuNTQsMC40MyAgICAgIGMtMC4xLTAuMTEsMC40My0wLjQzLTAuMjEtMC44NmMtMC4xMS0wLjIxLTAuNDMtMC4yMS0wLjY1LDBjLTAuMzIsMC4zMy0wLjQzLDAuNjQtMC41MywwLjY0Yy0wLjMzLDAuMjItMC41NCwwLjIyLTAuODYsMC4xMSAgICAgIGMtMC40My0wLjExLTAuMzItMS4wNywwLjEtMC45NmMxLjI5LDAuMzIsMC4xMS0wLjQzLDAuNDMtMC42NGMwLjExLTAuMTEsMC41NC0wLjQzLDAuNzYtMC43NWMwLjIxLTAuMjEsMC4xLTAuODUsMC41My0wLjc1ICAgICAgYzAuMjIsMCwwLjExLDAuNDMsMC4zMywwLjU0YzAuMSwwLjEsMC40MywwLDAuNjQsMGMwLjMyLDAsMC4zMi0wLjIyLDAuMzItMC41NGMwLTAuNDMsMC43Ni0wLjMyLDAuNzYtMC41MyAgICAgIGMtMC4xMS0wLjMyLTAuODYsMC4xLTAuODYtMC4zMmMwLTAuNTQsMC42NC0wLjY1LDAuMjEtMC43NWMtMC4zMi0wLjExLTAuNzUsMC4yMS0wLjY0LDAuOTZjMC4xLDAuNzUsMC4yMSwxLjA3LTAuMzMsMC44NSAgICAgIGMtMC40My0wLjMxLDAuMTEtMC44NS0wLjMyLTAuNjRjLTAuMzIsMC4yMi0wLjU0LDAuMzMtMC41NC0wLjIxYzAtMC40MywwLjg2LTEuNzEsMS41MS0xLjkzYy0xLjE5LTAuOTYtMi41OC0xLjYtNC4xOS0xLjgxbDAsMCAgICAgIGMwLDAuODUsMCwxLjM5LTAuMTEsMS44MWMwLDAuNTQtMS42MSwwLjY1LTEuODMsMS42MWMtMC4yMSwwLjg2LTAuNTMsMC4zMi0xLjA3LTAuMzJzMC4xMS0xLjUtMC4yMS0yLjAzICAgICAgQzguMTcsNTIuNzUsNy4yLDUzLjUsNy4yLDUyLjk2YzAtMC4yMSwwLjIyLTAuNDIsMC4yMi0wLjUzYy0wLjExLDAuMTEtMC4yMiwwLjExLTAuMzMsMC4xMWMtMC4zMiwwLjIxLTAuNTMsMC44Ni0wLjY0LDAuOTYgICAgICBjLTAuMzIsMC40MywwLjQzLDAuMzIsMC43NSwwLjc1YzAuNDMsMC42NCwwLjc1LDEuMDcsMC41NCwxLjM5Yy0wLjExLDAuMzItMS40LDAtMS4xOC0wLjU0YzAuMzItMC41MywwLjExLTAuNjQtMC4yMi0wLjc0ICAgICAgYy0wLjMyLDAtMC4zMiwwLjQyLTAuMzIsMC45NmMwLDAuNDMtMC44NiwwLjUzLTEuMjksMC45NmMtMC40MywwLjUzLDAuMzIsMC45NiwwLjk3LDEuMThjMC42NCwwLjIxLDAuMjEtMC44NiwwLjQzLTEuMzkgICAgICBjMC4yMS0wLjc1LDAuOTYtMC4xMSwxLjUsMC41M2MwLjQzLDAuNjQsMS4xOCwxLjUsMC4yMiwxLjkzYy0xLjYyLDAuNjQtMi4yNiwxLjM5LTIuNTgsMi4wM2MtMC4zMywwLjY0LDAsMC45Ni0wLjIyLDEuMTcgICAgICBjLTAuMjEsMC4yMi0wLjIxLTAuMS0wLjQzLTAuNjRjLTAuMjEtMC4zMi0wLjk2LTAuMzItMS4yOSwwLjMyYy0wLjIxLDAuMTEtMC4yMSwwLjQzLTAuMjEsMC43NWMwLDEuMDcsMC43NS0wLjMyLDEuMTgtMC4xICAgICAgYzAuNTQsMC4xLTAuNDMsMC4yMS0wLjMyLDAuNjRjMC4xLDAuNDMsMC43NS0wLjIyLDAuNTQsMC43NGMtMC4xMSwwLjU0LDAuNzUsMC4xMSwxLjI5LTAuMWMxLjE4LTAuNDMsMi4wNCwxLjUsMi45LDEuODIgICAgICBjMC45NiwwLjMyLDEuMjksMC41MywxLjA3LDAuOTZjLTAuNjQsMS4yOC0xLjkzLDIuMTQtMi41OCwzLjY0YzAuODYsMC4zMSwxLjk0LDAuNDIsMi45LDAuNDIgICAgICBDMTEuNSw3MC4xOCwxMi42OCw2OS45NywxMy44Niw2OS40M3ogTTE5LjAyLDYzLjIzYy0wLjIxLDAtMC40MywwLjExLTAuNTQsMC4xMWMtMC41My0wLjIxLTAuMjEtMi4zNS0wLjk2LTIuMjUgICAgICBjLTAuMzIsMC4xMSwwLjIxLDEuNzEsMC45NiwyLjU3YzAuMTEsMC4xMSwwLjIyLDAsMC40NCwwQzE4LjkyLDYzLjU1LDE5LjAyLDYzLjM0LDE5LjAyLDYzLjIzeiBNMTguNDgsNjQuNzMgICAgICBjLTAuODYtMC4yMi0xLjUsMS43MS0xLjcxLDIuNTZDMTcuNTIsNjYuNTUsMTguMDYsNjUuNjksMTguNDgsNjQuNzN6IE01LjU5LDY5LjAxYzAuMTEtMC44NiwwLjIyLTEuODIsMC0xLjkzICAgICAgYy0wLjc1LTAuNjQtMS4yOS0xLjYtMC41NC0yLjU3YzAuMTEtMC4xLDAuMjItMC4yMSwwLjIyLTAuNDJjMC4xLTAuMzItMC4yMi0wLjExLTAuNzUtMC4xMWMtMC41NCwwLTAuMTEtMC44NS0xLjE5LTAuOTYgICAgICBjLTEuMDctMC4xMS0xLjA3LTAuMzItMS4xOC0wLjk2YzAtMC42NS0wLjY0LTEuMjktMS4xOC0xLjRjMCwwLjExLDAsMC4zMywwLDAuNDNDMC45Nyw2NC41MSwyLjksNjcuNTEsNS41OSw2OS4wMXogICAgICAgTTExLjYxLDU1LjQzYzAuNDMsMC4yMSwwLjg2LTAuMTEsMC43NS0wLjQzQzEyLjA0LDU0LjQ2LDExLjA3LDU0Ljc4LDExLjYxLDU1LjQzeiBNMTMuNDMsNTYuMjhjMC4zMywwLDAuNTQsMC42NCwwLjQzLDAuOTYgICAgICBjLTAuMjEsMC42NC0wLjc1LDAuMjItMC44Ni0wLjIxQzEzLDU2LjYsMTMuMTEsNTYuMjgsMTMuNDMsNTYuMjh6IE0xNi45OCw1OS4yOGMtMC4zMi0wLjMzLTAuMjEtMC43NSwwLjIyLTAuODYgICAgICBjMC43NS0wLjExLDEuNzIsMC42NCwxLjA3LDAuODZDMTcuOTUsNTkuMzgsMTcuNDEsNTkuMzgsMTYuOTgsNTkuMjh6IE00Ljk0LDYxLjk1YzAuMzMsMCwxLjE5LDAuMjEsMS40LDAuNDMgICAgICBjMC4yMiwwLjMyLTAuNjQsMC4yMS0xLjE4LDBDNC44NCw2Mi4yNyw0LjYyLDYyLjA2LDQuOTQsNjEuOTV6Ii8+JiN4YTsJCQk8L2c+JiN4YTsJCTwvZz4mI3hhOwk8L2c+JiN4YTs8L2c+JiN4YTs8L3N2Zz4=;imageBorder=none;imageBackground=none;shadow=0;perimeterSpacing=6;fontStyle=1;labelPosition=center;align=center;spacingTop=0;spacing=2;" parent="1" vertex="1">
          <mxGeometry x="550" y="615" width="99.9" height="111" as="geometry" />
        </mxCell>
        <mxCell id="lAx5uchjGVzoTK3gPOGS-38" value="" style="fillColor=#28A8E0;verticalLabelPosition=bottom;sketch=0;html=1;strokeColor=#ffffff;verticalAlign=top;align=center;points=[[0.145,0.145,0],[0.5,0,0],[0.855,0.145,0],[1,0.5,0],[0.855,0.855,0],[0.5,1,0],[0.145,0.855,0],[0,0.5,0]];pointerEvents=1;shape=mxgraph.cisco_safe.compositeIcon;bgIcon=ellipse;resIcon=mxgraph.cisco_safe.capability.email_encryption;" parent="1" vertex="1">
          <mxGeometry x="660.5" y="951" width="60" height="63" as="geometry" />
        </mxCell>
        <mxCell id="lAx5uchjGVzoTK3gPOGS-47" value="" style="group;fontStyle=1" parent="1" vertex="1" connectable="0">
          <mxGeometry x="576.5" y="314" width="90" height="90" as="geometry" />
        </mxCell>
        <mxCell id="lAx5uchjGVzoTK3gPOGS-45" value="RWS REGIONAL" style="shape=image;verticalLabelPosition=top;labelBackgroundColor=#ffffff;verticalAlign=bottom;aspect=fixed;imageAspect=0;image=data:image/svg+xml,PHN2ZyB4bWxuczpjYz0iaHR0cDovL2NyZWF0aXZlY29tbW9ucy5vcmcvbnMjIiB4bWxuczpkYz0iaHR0cDovL3B1cmwub3JnL2RjL2VsZW1lbnRzLzEuMS8iIHhtbG5zOmlua3NjYXBlPSJodHRwOi8vd3d3Lmlua3NjYXBlLm9yZy9uYW1lc3BhY2VzL2lua3NjYXBlIiB4bWxuczpyZGY9Imh0dHA6Ly93d3cudzMub3JnLzE5OTkvMDIvMjItcmRmLXN5bnRheC1ucyMiIHhtbG5zOnNvZGlwb2RpPSJodHRwOi8vc29kaXBvZGkuc291cmNlZm9yZ2UubmV0L0RURC9zb2RpcG9kaS0wLmR0ZCIgeG1sbnM6c3ZnPSJodHRwOi8vd3d3LnczLm9yZy8yMDAwL3N2ZyIgeG1sbnM9Imh0dHA6Ly93d3cudzMub3JnLzIwMDAvc3ZnIiB4bWxuczp4bGluaz0iaHR0cDovL3d3dy53My5vcmcvMTk5OS94bGluayIgdmVyc2lvbj0iMS4xIiBpZD0ic3ZnNTc2NyIgaW5rc2NhcGU6dmVyc2lvbj0iMC45Mi4zICgyNDA1NTQ2LCAyMDE4LTAzLTExKSIgc29kaXBvZGk6ZG9jbmFtZT0ic2VydmVyXzEuc3ZnIiB4PSIwcHgiIHk9IjBweCIgdmlld0JveD0iMCAwIDM2Ljc1IDYwLjc1IiBzdHlsZT0iZW5hYmxlLWJhY2tncm91bmQ6bmV3IDAgMCAzNi43NSA2MC43NTsiIHhtbDpzcGFjZT0icHJlc2VydmUiPiYjeGE7PHNvZGlwb2RpOm5hbWVkdmlldyBib3JkZXJjb2xvcj0iIzY2NjY2NiIgYm9yZGVyb3BhY2l0eT0iMSIgZml0LW1hcmdpbi1ib3R0b209IjAiIGZpdC1tYXJnaW4tbGVmdD0iMCIgZml0LW1hcmdpbi1yaWdodD0iMCIgZml0LW1hcmdpbi10b3A9IjAiIGdyaWR0b2xlcmFuY2U9IjEwIiBndWlkZXRvbGVyYW5jZT0iMTAiIGlkPSJuYW1lZHZpZXc1NzY5IiBpbmtzY2FwZTpjdXJyZW50LWxheWVyPSJzdmc1NzY3IiBpbmtzY2FwZTpjeD0iMjQuNSIgaW5rc2NhcGU6Y3k9IjQwLjUwMDAwNSIgaW5rc2NhcGU6cGFnZW9wYWNpdHk9IjAiIGlua3NjYXBlOnBhZ2VzaGFkb3c9IjIiIGlua3NjYXBlOndpbmRvdy1oZWlnaHQ9IjEwMTciIGlua3NjYXBlOndpbmRvdy1tYXhpbWl6ZWQ9IjEiIGlua3NjYXBlOndpbmRvdy13aWR0aD0iMTkyMCIgaW5rc2NhcGU6d2luZG93LXg9Ii04IiBpbmtzY2FwZTp3aW5kb3cteT0iLTgiIGlua3NjYXBlOnpvb209IjEwLjQ0NTc4NyIgb2JqZWN0dG9sZXJhbmNlPSIxMCIgcGFnZWNvbG9yPSIjZmZmZmZmIiBzaG93Z3JpZD0iZmFsc2UiPiYjeGE7CTwvc29kaXBvZGk6bmFtZWR2aWV3PiYjeGE7PGcgaWQ9Imc1NzY1IiB0cmFuc2Zvcm09InRyYW5zbGF0ZSgtMC43NSwtMC43NSkiPiYjeGE7CTx0aXRsZSBpZD0idGl0bGU1NzA3Ij5QYWdlLTE8L3RpdGxlPiYjeGE7CTxnIGlkPSJncm91cDc1NDYtMSIgdHJhbnNmb3JtPSJ0cmFuc2xhdGUoMS41LC0xLjUpIj4mI3hhOwkJPHRpdGxlIGlkPSJ0aXRsZTU3MDkiPlNlcnZlciAjMTwvdGl0bGU+JiN4YTsJCTxnIGlkPSJzaGFwZTc1NDctMiI+JiN4YTsJCQk8dGl0bGUgaWQ9InRpdGxlNTcxMSI+cmVjdDE1NjEwPC90aXRsZT4mI3hhOwkJCSYjeGE7CQkJCTxyZWN0IGlkPSJyZWN0NTcxMyIgeD0iMCIgeT0iMyIgc3R5bGU9ImZpbGw6I0ZGRkZGRjtzdHJva2U6IzU1NkE4QTtzdHJva2Utd2lkdGg6MS41O3N0cm9rZS1taXRlcmxpbWl0OjM7IiB3aWR0aD0iMzUuMjUiIGhlaWdodD0iNTkuMjUiLz4mI3hhOwkJPC9nPiYjeGE7CQk8ZyBpZD0iZ3JvdXA3NTQ4LTQiIHRyYW5zZm9ybT0idHJhbnNsYXRlKDEuNSwtMC43NSkiPiYjeGE7CQkJPHRpdGxlIGlkPSJ0aXRsZTU3MTYiPmcxNTYyMjwvdGl0bGU+JiN4YTsJCQk8ZyBpZD0ic2hhcGU3NTQ5LTUiIHRyYW5zZm9ybT0idHJhbnNsYXRlKDE3LjI1KSI+JiN4YTsJCQkJPHRpdGxlIGlkPSJ0aXRsZTU3MTgiPnJlY3QxNTYxMjwvdGl0bGU+JiN4YTsJCQkJPHJlY3QgaWQ9InJlY3Q1NzIwIiB4PSIwIiB5PSI0LjUiIHN0eWxlPSJmaWxsOiNFNUU1RTU7IiB3aWR0aD0iMTUuNzUiIGhlaWdodD0iNTcuNzUiLz4mI3hhOwkJCTwvZz4mI3hhOwkJCTxnIGlkPSJzaGFwZTc1NTAtNyIgdHJhbnNmb3JtPSJ0cmFuc2xhdGUoMCwtNDkuNSkiPiYjeGE7CQkJCTx0aXRsZSBpZD0idGl0bGU1NzIzIj5wb2x5Z29uMTU2MTQ8L3RpdGxlPiYjeGE7CQkJCTxyZWN0IGlkPSJyZWN0NTcyNSIgeD0iMCIgeT0iNjAiIHN0eWxlPSJmaWxsOm5vbmU7IiB3aWR0aD0iMjciIGhlaWdodD0iMi4yNSIvPiYjeGE7CQkJPC9nPiYjeGE7CQkJPGcgaWQ9InNoYXBlNzU1MS05IiB0cmFuc2Zvcm09InRyYW5zbGF0ZSgwLC00OS41KSI+JiN4YTsJCQkJPHRpdGxlIGlkPSJ0aXRsZTU3MjgiPnBvbHlsaW5lMTU2MTY8L3RpdGxlPiYjeGE7CQkJCTxyZWN0IGlkPSJyZWN0NTczMCIgeD0iMCIgeT0iNjAiIHN0eWxlPSJmaWxsOm5vbmU7IiB3aWR0aD0iMjciIGhlaWdodD0iMi4yNSIvPiYjeGE7CQkJPC9nPiYjeGE7CQkJPGcgaWQ9InNoYXBlNzU1Mi0xMSIgdHJhbnNmb3JtPSJ0cmFuc2xhdGUoMCwtNDkuNSkiPiYjeGE7CQkJCTx0aXRsZSBpZD0idGl0bGU1NzMzIj5yZWN0MTU2MTg8L3RpdGxlPiYjeGE7CQkJCTxyZWN0IGlkPSJyZWN0NTczNSIgeD0iMCIgeT0iNjAiIHN0eWxlPSJmaWxsOiMyQkM3RjQ7IiB3aWR0aD0iMTgiIGhlaWdodD0iMi4yNSIvPiYjeGE7CQkJPC9nPiYjeGE7CQkJPGcgaWQ9InNoYXBlNzU1My0xMyIgdHJhbnNmb3JtPSJ0cmFuc2xhdGUoMTcuMjUsLTQ5LjUpIj4mI3hhOwkJCQk8dGl0bGUgaWQ9InRpdGxlNTczOCI+cmVjdDE1NjIwPC90aXRsZT4mI3hhOwkJCQk8cmVjdCBpZD0icmVjdDU3NDAiIHg9IjAiIHk9IjYwIiBzdHlsZT0iZmlsbDojNTU2QThBOyIgd2lkdGg9IjE1Ljc1IiBoZWlnaHQ9IjIuMjUiLz4mI3hhOwkJCTwvZz4mI3hhOwkJPC9nPiYjeGE7CQk8ZyBpZD0ic2hhcGU3NTU0LTE1IiB0cmFuc2Zvcm09InRyYW5zbGF0ZSgwLjc1LC01MC4yNSkiPiYjeGE7CQkJPHRpdGxlIGlkPSJ0aXRsZTU3NDQiPnJlY3QxNTYyNDwvdGl0bGU+JiN4YTsJCQk8cmVjdCBpZD0icmVjdDU3NDYiIHg9IjAiIHk9IjYwIiBzdHlsZT0iZmlsbDojNTU2QThBOyIgd2lkdGg9IjIuMjUiIGhlaWdodD0iMi4yNSIvPiYjeGE7CQk8L2c+JiN4YTsJCTxnIGlkPSJzaGFwZTc1NTUtMTciIHRyYW5zZm9ybT0idHJhbnNsYXRlKDEuNSwtNDQuMjUpIj4mI3hhOwkJCTx0aXRsZSBpZD0idGl0bGU1NzQ5Ij5yZWN0MTU2MjY8L3RpdGxlPiYjeGE7CQkJPHJlY3QgaWQ9InJlY3Q1NzUxIiB4PSIwIiB5PSI2MCIgc3R5bGU9ImZpbGw6IzJCQzdGNDsiIHdpZHRoPSIxOCIgaGVpZ2h0PSIyLjI1Ii8+JiN4YTsJCTwvZz4mI3hhOwkJPGcgaWQ9InNoYXBlNzU1Ni0xOSIgdHJhbnNmb3JtPSJ0cmFuc2xhdGUoMTguNzUsLTQ0LjI1KSI+JiN4YTsJCQk8dGl0bGUgaWQ9InRpdGxlNTc1NCI+cmVjdDE1NjI4PC90aXRsZT4mI3hhOwkJCTxyZWN0IGlkPSJyZWN0NTc1NiIgeD0iMCIgeT0iNjAiIHN0eWxlPSJmaWxsOiM1NTZBOEE7IiB3aWR0aD0iMTUuNzUiIGhlaWdodD0iMi4yNSIvPiYjeGE7CQk8L2c+JiN4YTsJCTxnIGlkPSJzaGFwZTc1NTctMjEiIHRyYW5zZm9ybT0idHJhbnNsYXRlKDAuNzUsLTQ0LjI1KSI+JiN4YTsJCQk8dGl0bGUgaWQ9InRpdGxlNTc1OSI+cmVjdDE1NjMwPC90aXRsZT4mI3hhOwkJCTxyZWN0IGlkPSJyZWN0NTc2MSIgeD0iMCIgeT0iNjAiIHN0eWxlPSJmaWxsOiM1NTZBOEE7IiB3aWR0aD0iMi4yNSIgaGVpZ2h0PSIyLjI1Ii8+JiN4YTsJCTwvZz4mI3hhOwk8L2c+JiN4YTs8L2c+JiN4YTs8L3N2Zz4=;labelPosition=center;align=center;fontStyle=1" parent="lAx5uchjGVzoTK3gPOGS-47" vertex="1">
          <mxGeometry x="-4" width="54.59016393442623" height="90" as="geometry" />
        </mxCell>
        <mxCell id="lAx5uchjGVzoTK3gPOGS-24" value="" style="shape=image;verticalLabelPosition=top;labelBackgroundColor=#ffffff;verticalAlign=bottom;aspect=fixed;imageAspect=0;image=data:image/svg+xml,PHN2ZyB4bWxuczpjYz0iaHR0cDovL2NyZWF0aXZlY29tbW9ucy5vcmcvbnMjIiB4bWxuczpkYz0iaHR0cDovL3B1cmwub3JnL2RjL2VsZW1lbnRzLzEuMS8iIHhtbG5zOmlua3NjYXBlPSJodHRwOi8vd3d3Lmlua3NjYXBlLm9yZy9uYW1lc3BhY2VzL2lua3NjYXBlIiB4bWxuczpyZGY9Imh0dHA6Ly93d3cudzMub3JnLzE5OTkvMDIvMjItcmRmLXN5bnRheC1ucyMiIHhtbG5zOnNvZGlwb2RpPSJodHRwOi8vc29kaXBvZGkuc291cmNlZm9yZ2UubmV0L0RURC9zb2RpcG9kaS0wLmR0ZCIgeG1sbnM6c3ZnPSJodHRwOi8vd3d3LnczLm9yZy8yMDAwL3N2ZyIgeG1sbnM9Imh0dHA6Ly93d3cudzMub3JnLzIwMDAvc3ZnIiB4bWxuczp4bGluaz0iaHR0cDovL3d3dy53My5vcmcvMTk5OS94bGluayIgdmVyc2lvbj0iMS4xIiBpZD0ic3ZnNTUwIiBpbmtzY2FwZTp2ZXJzaW9uPSIwLjkyLjMgKDI0MDU1NDYsIDIwMTgtMDMtMTEpIiBzb2RpcG9kaTpkb2NuYW1lPSJ3b3JrZmxvdy5zdmciIHg9IjBweCIgeT0iMHB4IiB2aWV3Qm94PSIwIDAgNDEuMDUgNDguMDEiIHN0eWxlPSJlbmFibGUtYmFja2dyb3VuZDpuZXcgMCAwIDQxLjA1IDQ4LjAxOyIgeG1sOnNwYWNlPSJwcmVzZXJ2ZSI+JiN4YTs8c29kaXBvZGk6bmFtZWR2aWV3IGJvcmRlcmNvbG9yPSIjNjY2NjY2IiBib3JkZXJvcGFjaXR5PSIxIiBmaXQtbWFyZ2luLWJvdHRvbT0iMCIgZml0LW1hcmdpbi1sZWZ0PSIwIiBmaXQtbWFyZ2luLXJpZ2h0PSIwIiBmaXQtbWFyZ2luLXRvcD0iMCIgZ3JpZHRvbGVyYW5jZT0iMTAiIGd1aWRldG9sZXJhbmNlPSIxMCIgaWQ9Im5hbWVkdmlldzU1MiIgaW5rc2NhcGU6Y3VycmVudC1sYXllcj0ic3ZnNTUwIiBpbmtzY2FwZTpjeD0iMzMuOTI4MjUiIGlua3NjYXBlOmN5PSIyNC42MTczMzIiIGlua3NjYXBlOnBhZ2VvcGFjaXR5PSIwIiBpbmtzY2FwZTpwYWdlc2hhZG93PSIyIiBpbmtzY2FwZTp3aW5kb3ctaGVpZ2h0PSIxMDE3IiBpbmtzY2FwZTp3aW5kb3ctbWF4aW1pemVkPSIxIiBpbmtzY2FwZTp3aW5kb3ctd2lkdGg9IjE5MjAiIGlua3NjYXBlOndpbmRvdy14PSItOCIgaW5rc2NhcGU6d2luZG93LXk9Ii04IiBpbmtzY2FwZTp6b29tPSI5LjI4ODgxMTgiIG9iamVjdHRvbGVyYW5jZT0iMTAiIHBhZ2Vjb2xvcj0iI2ZmZmZmZiIgc2hvd2dyaWQ9ImZhbHNlIj4mI3hhOwk8L3NvZGlwb2RpOm5hbWVkdmlldz4mI3hhOzxnIGlkPSJzaGFwZTI4OTgtMiIgdHJhbnNmb3JtPSJyb3RhdGUoOTAsMzcuNSw0My41KSI+JiN4YTsJPHRpdGxlIGlkPSJ0aXRsZTQ5NyI+bGluZTExMTM8L3RpdGxlPiYjeGE7CTxwYXRoIGlkPSJwYXRoNDk5IiBpbmtzY2FwZTpjb25uZWN0b3ItY3VydmF0dXJlPSIwIiBzdHlsZT0iZmlsbDpub25lO3N0cm9rZTojNTU2QThBO3N0cm9rZS13aWR0aDoxLjU7c3Ryb2tlLW1pdGVybGltaXQ6MzsiIGQ9IiAgIE0wLDQ5LjVoMzQuNSIvPiYjeGE7PC9nPiYjeGE7PGcgaWQ9InNoYXBlMjg5OS01IiB0cmFuc2Zvcm09InRyYW5zbGF0ZSgxMi43NSwtMjUuNSkiPiYjeGE7CTx0aXRsZSBpZD0idGl0bGU1MDIiPmxpbmUxMTE1PC90aXRsZT4mI3hhOwk8cGF0aCBpZD0icGF0aDUwNCIgaW5rc2NhcGU6Y29ubmVjdG9yLWN1cnZhdHVyZT0iMCIgc3R5bGU9ImZpbGw6bm9uZTtzdHJva2U6IzU1NkE4QTtzdHJva2Utd2lkdGg6MS41O3N0cm9rZS1taXRlcmxpbWl0OjM7IiBkPSIgICBNMCw0OS41aDE4Ljc1Ii8+JiN4YTs8L2c+JiN4YTs8ZyBpZD0ic2hhcGUyOTAwLTgiIHRyYW5zZm9ybT0icm90YXRlKDkwLDM2LjM3NSwzNi43NSkiPiYjeGE7CTx0aXRsZSBpZD0idGl0bGU1MDciPnJlY3QxMTE3PC90aXRsZT4mI3hhOwkmI3hhOwkJPHJlY3QgaWQ9InJlY3Q1MDkiIHg9Ii0yLjI1IiB5PSIzNy41IiB0cmFuc2Zvcm09Im1hdHJpeCgyLjUzNTE4MmUtMDYgMSAtMSAyLjUzNTE4MmUtMDYgNDcuMjUgMzcuNDk5OSkiIHN0eWxlPSJmaWxsOiNGRkZGRkY7IiB3aWR0aD0iMTQuMjUiIGhlaWdodD0iOS43NSIvPiYjeGE7PC9nPiYjeGE7PGcgaWQ9InNoYXBlMjkwMS0xMCIgdHJhbnNmb3JtPSJ0cmFuc2xhdGUoMjMuMjUsLTM4LjI1KSI+JiN4YTsJPHRpdGxlIGlkPSJ0aXRsZTUxMiI+cGF0aDExMTk8L3RpdGxlPiYjeGE7CTxyZWN0IGlkPSJyZWN0NTE0IiB5PSIzOSIgc3R5bGU9ImZpbGw6I0ZGRkZGRjtzdHJva2U6IzU1NkE4QTtzdHJva2Utd2lkdGg6MS41O3N0cm9rZS1taXRlcmxpbWl0OjM7IiB3aWR0aD0iMTUiIGhlaWdodD0iMTAuNSIvPiYjeGE7PC9nPiYjeGE7PGcgaWQ9InNoYXBlMjkwMi0xMiIgdHJhbnNmb3JtPSJyb3RhdGUoOTAsMTYuNSwzNC4xMjUpIj4mI3hhOwk8dGl0bGUgaWQ9InRpdGxlNTE3Ij5yZWN0MTEyMTwvdGl0bGU+JiN4YTsJJiN4YTsJCTxyZWN0IGlkPSJyZWN0NTE5IiB4PSItMS41IiB5PSIzNi43NSIgdHJhbnNmb3JtPSJtYXRyaXgoMi41MzUxODJlLTA2IDEgLTEgMi41MzUxODJlLTA2IDQ4IDM2Ljc0OTkpIiBzdHlsZT0iZmlsbDojRkZGRkZGOyIgd2lkdGg9IjE0LjI1IiBoZWlnaHQ9IjExLjI1Ii8+JiN4YTs8L2c+JiN4YTs8ZyBpZD0ic2hhcGUyOTAzLTE0IiB0cmFuc2Zvcm09InRyYW5zbGF0ZSgwLjc1LC0yMC4yNSkiPiYjeGE7CTx0aXRsZSBpZD0idGl0bGU1MjIiPnBhdGgxMTIzPC90aXRsZT4mI3hhOwk8cmVjdCBpZD0icmVjdDUyNCIgeT0iMzcuNSIgc3R5bGU9ImZpbGw6I0ZGRkZGRjtzdHJva2U6IzU1NkE4QTtzdHJva2Utd2lkdGg6MS41O3N0cm9rZS1taXRlcmxpbWl0OjM7IiB3aWR0aD0iMTUiIGhlaWdodD0iMTIiLz4mI3hhOzwvZz4mI3hhOzxnIGlkPSJzaGFwZTI5MDQtMTYiIHRyYW5zZm9ybT0idHJhbnNsYXRlKDI3LjI1NzQsLTQuMDA3MzYpIj4mI3hhOwk8dGl0bGUgaWQ9InRpdGxlNTI3Ij5wYXRoMTEyNTwvdGl0bGU+JiN4YTsJJiN4YTsJCTxwYXRoIGlkPSJwYXRoNTI5IiBpbmtzY2FwZTpjb25uZWN0b3ItY3VydmF0dXJlPSIwIiBzdHlsZT0iZmlsbDojRkZGRkZGO3N0cm9rZTojNTU2QThBO3N0cm9rZS13aWR0aDoxLjU7c3Ryb2tlLW1pdGVybGltaXQ6MzsiIGQ9IiAgIE00LjI0LDM5LjI2Yy0zLjMxLDAtNiwyLjY5LTYsNnMyLjY5LDYsNiw2czYtMi42OSw2LTZTNy41NSwzOS4yNiw0LjI0LDM5LjI2eiIvPiYjeGE7PC9nPiYjeGE7PGcgaWQ9InNoYXBlMjkwNS0xOCIgdHJhbnNmb3JtPSJ0cmFuc2xhdGUoLTMuNzUsLTEuNSkiPiYjeGE7CTx0aXRsZSBpZD0idGl0bGU1MzIiPnJlY3QxMTI3PC90aXRsZT4mI3hhOwk8cmVjdCBpZD0icmVjdDUzNCIgeT0iMS41IiBzdHlsZT0iZmlsbDpub25lOyIgd2lkdGg9IjQ4IiBoZWlnaHQ9IjQ4Ii8+JiN4YTs8L2c+JiN4YTs8ZyBpZD0ic2hhcGUyOTA2LTIwIiB0cmFuc2Zvcm09InRyYW5zbGF0ZSgxLjUsLTIxKSI+JiN4YTsJPHRpdGxlIGlkPSJ0aXRsZTUzNyI+cmVjdDExMjk8L3RpdGxlPiYjeGE7CTxyZWN0IGlkPSJyZWN0NTM5IiB5PSIzOSIgc3R5bGU9ImZpbGw6I0U1RTVFNTsiIHdpZHRoPSIxMy41IiBoZWlnaHQ9IjEwLjUiLz4mI3hhOzwvZz4mI3hhOzxnIGlkPSJzaGFwZTI5MDctMjIiIHRyYW5zZm9ybT0icm90YXRlKC0xMzUsMTUuMjQyNzk1LDI4LjI0ODAzOCkiPiYjeGE7CTx0aXRsZSBpZD0idGl0bGU1NDIiPnJlY3QxMTMxPC90aXRsZT4mI3hhOwkmI3hhOwkJPHJlY3QgaWQ9InJlY3Q1NDQiIHg9IjAiIHk9IjM2IiB0cmFuc2Zvcm09Im1hdHJpeCgtMi41MzUxODJlLTA2IC0xIDEgLTIuNTM1MTgyZS0wNiAtMzYgNDkuNTAwMSkiIHN0eWxlPSJmaWxsOiMyQkM3RjQ7IiB3aWR0aD0iMTMuNSIgaGVpZ2h0PSIxMy41Ii8+JiN4YTs8L2c+JiN4YTs8L3N2Zz4=;labelPosition=center;align=center;fontStyle=1" parent="lAx5uchjGVzoTK3gPOGS-47" vertex="1">
          <mxGeometry x="29.5" y="17.704918032786885" width="60.49180327868853" height="70.81967213114754" as="geometry" />
        </mxCell>
        <mxCell id="lAx5uchjGVzoTK3gPOGS-49" style="edgeStyle=none;curved=1;rounded=0;orthogonalLoop=1;jettySize=auto;html=1;exitX=0;exitY=0.5;exitDx=0;exitDy=0;fontSize=12;startSize=8;endSize=8;" parent="lAx5uchjGVzoTK3gPOGS-47" source="lAx5uchjGVzoTK3gPOGS-24" target="lAx5uchjGVzoTK3gPOGS-24" edge="1">
          <mxGeometry relative="1" as="geometry" />
        </mxCell>
        <mxCell id="lAx5uchjGVzoTK3gPOGS-52" style="edgeStyle=none;curved=1;rounded=0;orthogonalLoop=1;jettySize=auto;html=1;entryX=0.5;entryY=0;entryDx=0;entryDy=0;fontSize=12;startSize=8;endSize=8;startArrow=classic;startFill=1;fillColor=#dae8fc;strokeColor=#6c8ebf;strokeWidth=3;endArrow=classic;endFill=1;" parent="1" source="lAx5uchjGVzoTK3gPOGS-45" target="lAx5uchjGVzoTK3gPOGS-26" edge="1">
          <mxGeometry relative="1" as="geometry" />
        </mxCell>
        <mxCell id="lAx5uchjGVzoTK3gPOGS-68" value="Dual Control Maker/Approver" style="edgeLabel;html=1;align=center;verticalAlign=top;resizable=0;points=[];fontSize=12;horizontal=0;" parent="lAx5uchjGVzoTK3gPOGS-52" vertex="1" connectable="0">
          <mxGeometry x="-0.0068" y="2" relative="1" as="geometry">
            <mxPoint as="offset" />
          </mxGeometry>
        </mxCell>
        <mxCell id="lAx5uchjGVzoTK3gPOGS-53" value="1" style="shape=image;verticalLabelPosition=middle;labelBackgroundColor=#ffffff;verticalAlign=middle;aspect=fixed;imageAspect=0;image=data:image/svg+xml,PHN2ZyB4bWxuczpjYz0iaHR0cDovL2NyZWF0aXZlY29tbW9ucy5vcmcvbnMjIiB4bWxuczpkYz0iaHR0cDovL3B1cmwub3JnL2RjL2VsZW1lbnRzLzEuMS8iIHhtbG5zOmlua3NjYXBlPSJodHRwOi8vd3d3Lmlua3NjYXBlLm9yZy9uYW1lc3BhY2VzL2lua3NjYXBlIiB4bWxuczpyZGY9Imh0dHA6Ly93d3cudzMub3JnLzE5OTkvMDIvMjItcmRmLXN5bnRheC1ucyMiIHhtbG5zOnNvZGlwb2RpPSJodHRwOi8vc29kaXBvZGkuc291cmNlZm9yZ2UubmV0L0RURC9zb2RpcG9kaS0wLmR0ZCIgeG1sbnM6c3ZnPSJodHRwOi8vd3d3LnczLm9yZy8yMDAwL3N2ZyIgeG1sbnM9Imh0dHA6Ly93d3cudzMub3JnLzIwMDAvc3ZnIiB4bWxuczp4bGluaz0iaHR0cDovL3d3dy53My5vcmcvMTk5OS94bGluayIgdmVyc2lvbj0iMS4xIiBpZD0ic3ZnMTE5NjkzIiBpbmtzY2FwZTp2ZXJzaW9uPSIwLjkyLjMgKDI0MDU1NDYsIDIwMTgtMDMtMTEpIiBzb2RpcG9kaTpkb2NuYW1lPSJhenVyZV9jb3J0b25hX21hbmFnZW1lbnRfc3VpdGUuc3ZnIiB4PSIwcHgiIHk9IjBweCIgdmlld0JveD0iMCAwIDY1LjA2IDY1LjA2IiBzdHlsZT0iZW5hYmxlLWJhY2tncm91bmQ6bmV3IDAgMCA2NS4wNiA2NS4wNjsiIHhtbDpzcGFjZT0icHJlc2VydmUiPiYjeGE7PHNvZGlwb2RpOm5hbWVkdmlldyBib3JkZXJjb2xvcj0iIzY2NjY2NiIgYm9yZGVyb3BhY2l0eT0iMSIgZml0LW1hcmdpbi1ib3R0b209IjAiIGZpdC1tYXJnaW4tbGVmdD0iMCIgZml0LW1hcmdpbi1yaWdodD0iMCIgZml0LW1hcmdpbi10b3A9IjAiIGdyaWR0b2xlcmFuY2U9IjEwIiBndWlkZXRvbGVyYW5jZT0iMTAiIGlkPSJuYW1lZHZpZXcxMTk2OTUiIGlua3NjYXBlOmN1cnJlbnQtbGF5ZXI9InN2ZzExOTY5MyIgaW5rc2NhcGU6Y3g9IjQzLjM3MDIyNSIgaW5rc2NhcGU6Y3k9IjQzLjM3NTQyNSIgaW5rc2NhcGU6cGFnZW9wYWNpdHk9IjAiIGlua3NjYXBlOnBhZ2VzaGFkb3c9IjIiIGlua3NjYXBlOndpbmRvdy1oZWlnaHQ9IjEwMTciIGlua3NjYXBlOndpbmRvdy1tYXhpbWl6ZWQ9IjEiIGlua3NjYXBlOndpbmRvdy13aWR0aD0iMTkyMCIgaW5rc2NhcGU6d2luZG93LXg9Ii04IiBpbmtzY2FwZTp3aW5kb3cteT0iLTgiIGlua3NjYXBlOnpvb209IjguMDIwMjIwOSIgb2JqZWN0dG9sZXJhbmNlPSIxMCIgcGFnZWNvbG9yPSIjZmZmZmZmIiBzaG93Z3JpZD0iZmFsc2UiPiYjeGE7CTwvc29kaXBvZGk6bmFtZWR2aWV3PiYjeGE7PGcgaWQ9ImcxMTk2OTEiIHRyYW5zZm9ybT0idHJhbnNsYXRlKC04LjAxMDQ3LC04LjAwOTUzKSI+JiN4YTsJPHRpdGxlIGlkPSJ0aXRsZTExOTY3MyI+UGFnZS0xPC90aXRsZT4mI3hhOwk8ZyBpZD0iZ3JvdXAxMzUzLTEiIHRyYW5zZm9ybT0idHJhbnNsYXRlKDguMDEwNDcsLTguMDEwNDcpIj4mI3hhOwkJPHRpdGxlIGlkPSJ0aXRsZTExOTY3NSI+QXp1cmUgQ29ydG9uYSBNYW5hZ2VtZW50IFN1aXRlPC90aXRsZT4mI3hhOwkJPGcgaWQ9Imdyb3VwMTM1NC0yIj4mI3hhOwkJCTx0aXRsZSBpZD0idGl0bGUxMTk2NzciPlNoZWV0LjEzNTQ8L3RpdGxlPiYjeGE7CQkJPGcgaWQ9InNoYXBlMTM1NS0zIj4mI3hhOwkJCQk8dGl0bGUgaWQ9InRpdGxlMTE5Njc5Ij5TaGVldC4xMzU1PC90aXRsZT4mI3hhOwkJCQk8cGF0aCBpZD0icGF0aDExOTY4MSIgaW5rc2NhcGU6Y29ubmVjdG9yLWN1cnZhdHVyZT0iMCIgc3R5bGU9ImZpbGw6IzAwNzlENjtmaWxsLW9wYWNpdHk6MC40OyIgZD0iTTMyLjUzLDE2LjAyICAgICAgYzIuOTgsMCw1Ljg3LDAuNDMsOC42LDEuMTljMi44MSwwLjc3LDUuMzYsMS44OCw3Ljc1LDMuMzJjMi4zOCwxLjQ1LDQuNTksMy4xNSw2LjU1LDUuMTFzMy42Niw0LjE4LDUuMTEsNi41NiAgICAgIHMyLjU2LDUuMDIsMy4zMiw3Ljc1YzAuNzcsMi44MSwxLjIsNS42MiwxLjIsOC42YzAsMi45OC0wLjQzLDUuODctMS4yLDguNmMtMC43NiwyLjgxLTEuODcsNS4zNi0zLjMyLDcuNzUgICAgICBjLTEuNDUsMi4zOC0zLjE1LDQuNi01LjExLDYuNTVjLTEuOTYsMS45Ni00LjE3LDMuNjctNi41NSw1LjExYy0yLjM5LDEuNDUtNS4wMywyLjU2LTcuNzUsMy4zMmMtMi44MSwwLjc3LTUuNjIsMS4yLTguNiwxLjIgICAgICBzLTUuODgtMC40My04LjYtMS4yYy0yLjgxLTAuNzYtNS4zNy0xLjg3LTcuNzUtMy4zMmMtMi4zOS0xLjQ0LTQuNi0zLjE1LTYuNTYtNS4xMWMtMS45Ni0xLjk1LTMuNjYtNC4xNy01LjExLTYuNTUgICAgICBjLTEuNDQtMi4zOS0yLjU1LTUuMDMtMy4zMi03Ljc1QzAuNDMsNTQuNDIsMCw1MS41MywwLDQ4LjU1czAuNDMtNS44OCwxLjE5LTguNmMwLjc3LTIuODEsMS44OC01LjM3LDMuMzItNy43NSAgICAgIGMxLjQ1LTIuMzgsMy4xNS00LjYsNS4xMS02LjU2czQuMTctMy42Niw2LjU2LTUuMTFjMi4zOC0xLjQ0LDUuMDItMi41NSw3Ljc1LTMuMzJDMjYuNjUsMTYuNDUsMjkuNTUsMTYuMDIsMzIuNTMsMTYuMDJ6ICAgICAgIE0zMi41Myw3Ni42NWMyLjU1LDAsNS4xMS0wLjM0LDcuNDktMS4wMmMyLjM5LTAuNjgsNC42LTEuNjIsNi43My0yLjgxYzIuMDQtMS4yLDQtMi43Myw1LjctNC40M2MxLjcxLTEuNywzLjE1LTMuNTgsNC40My01LjcxICAgICAgYzEuMTktMi4wNCwyLjEzLTQuMzQsMi44MS02LjcyYzAuNjgtMi4zOSwxLjAyLTQuODYsMS4wMi03LjVzLTAuMzQtNS4xMS0xLjAyLTcuNDljLTAuNjgtMi4zOC0xLjYyLTQuNi0yLjgxLTYuNzMgICAgICBjLTEuMTktMi4wNC0yLjcyLTQtNC40My01LjdjLTEuNy0xLjctMy41Ny0zLjE1LTUuNy00LjQzYy0yLjA1LTEuMTktNC4zNC0yLjEzLTYuNzMtMi44MWMtMi4zOC0wLjY4LTQuODUtMS4wMi03LjQ5LTEuMDIgICAgICBjLTIuNTYsMC01LjExLDAuMzQtNy41LDEuMDJjLTIuMzgsMC42OC00LjU5LDEuNjItNi43MiwyLjgxYy0yLjA1LDEuMTktNCwyLjczLTUuNzEsNC40M2MtMS43LDEuNy0zLjE1LDMuNTctNC40Myw1LjcgICAgICBjLTEuMTksMi4wNS0yLjEyLDQuMzUtMi44MSw2LjczYy0wLjY4LDIuMzgtMS4wMiw0Ljg1LTEuMDIsNy40OXMwLjM0LDUuMTEsMS4wMiw3LjVjMC42OSwyLjM4LDEuNjIsNC41OSwyLjgxLDYuNzIgICAgICBjMS4yLDIuMDUsMi43Myw0LjAxLDQuNDMsNS43MWMxLjcxLDEuNywzLjU4LDMuMTUsNS43MSw0LjQzYzIuMDQsMS4xOSw0LjM0LDIuMTMsNi43MiwyLjgxQzI3LjUsNzYuMzEsMjkuOTcsNzYuNjUsMzIuNTMsNzYuNjUgICAgICB6Ii8+JiN4YTsJCQk8L2c+JiN4YTsJCQk8ZyBpZD0ic2hhcGUxMzU2LTUiIHRyYW5zZm9ybT0idHJhbnNsYXRlKDQuMDAyMDgsLTMuOTE2OTMpIj4mI3hhOwkJCQk8dGl0bGUgaWQ9InRpdGxlMTE5Njg0Ij5TaGVldC4xMzU2PC90aXRsZT4mI3hhOwkJCQk8cGF0aCBpZD0icGF0aDExOTY4NiIgaW5rc2NhcGU6Y29ubmVjdG9yLWN1cnZhdHVyZT0iMCIgc3R5bGU9ImZpbGw6IzAwNzlENjsiIGQ9Ik0yOC41MywyNC4wM2MyLjY0LDAsNS4xOSwwLjM0LDcuNTcsMS4wMiAgICAgIGMyLjM5LDAuNjgsNC42OSwxLjYxLDYuODIsMi44OWMyLjEyLDEuMjgsNCwyLjczLDUuNzksNC40M2MxLjcsMS43LDMuMjMsMy42Niw0LjQyLDUuNzljMS4yOCwyLjEzLDIuMjIsNC4zNCwyLjksNi44MSAgICAgIGMwLjY4LDIuMzksMS4wMiw0Ljk0LDEuMDIsNy41OGMwLDIuNjQtMC4zNCw1LjE5LTEuMDIsNy41OGMtMC42OCwyLjM4LTEuNjIsNC42OC0yLjksNi44MWMtMS4yNywyLjEzLTIuNzIsNC00LjQyLDUuNzkgICAgICBjLTEuNzEsMS43LTMuNjcsMy4yNC01Ljc5LDQuNDNjLTIuMTMsMS4yOC00LjM1LDIuMjEtNi44MiwyLjg5Yy0yLjM4LDAuNjktNC45MywxLjAzLTcuNTcsMS4wM3MtNS4yLTAuMzQtNy41OC0xLjAzICAgICAgYy0yLjM5LTAuNjgtNC42OS0xLjYxLTYuODEtMi44OWMtMi4xMy0xLjI4LTQuMDEtMi43My01LjgtNC40M2MtMS43LTEuNy0zLjIzLTMuNjYtNC40Mi01Ljc5Yy0xLjI4LTIuMTMtMi4yMi00LjM0LTIuOS02LjgxICAgICAgQzAuMzQsNTcuNzQsMCw1NS4xOSwwLDUyLjU1czAuMzQtNS4xOSwxLjAyLTcuNThjMC42OC0yLjM4LDEuNjItNC42OCwyLjktNi44MWMxLjI3LTIuMTMsMi43Mi00LDQuNDItNS43OSAgICAgIGMxLjcxLTEuNywzLjY3LTMuMjQsNS44LTQuNDNjMi4xMi0xLjI4LDQuMzQtMi4yMSw2LjgxLTIuODlTMjUuODksMjQuMDMsMjguNTMsMjQuMDN6IE0yOC41Myw3NS4zN2MyLjEyLDAsNC4wOC0wLjI1LDYuMDQtMC44NSAgICAgIGMxLjk2LTAuNTEsMy43NS0xLjI4LDUuNDUtMi4zYzEuNy0xLjAyLDMuMjQtMi4yMSw0LjYtMy41OGMxLjM2LTEuMzYsMi41NS0yLjk4LDMuNTgtNC41OWMxLjAyLTEuNzEsMS43OC0zLjUsMi4yOS01LjQ1ICAgICAgYzAuNTItMS45NiwwLjg2LTQuMDEsMC44Ni02LjEzYzAtMi4xMy0wLjI2LTQuMDktMC44Ni02LjA1Yy0wLjUxLTEuOTYtMS4yNy0zLjc1LTIuMjktNS40NWMtMS4wMy0xLjctMi4yMi0zLjI0LTMuNTgtNC42ICAgICAgYy0xLjM2LTEuMzYtMi45OC0yLjU1LTQuNi0zLjU3Yy0xLjctMS4wMy0zLjQ5LTEuNzktNS40NS0yLjNjLTEuOTYtMC41MS00LTAuODUtNi4wNC0wLjg1Yy0yLjEzLDAtNC4wOSwwLjI1LTYuMDUsMC44NSAgICAgIGMtMS45NiwwLjUxLTMuNzUsMS4yNy01LjQ1LDIuM2MtMS43LDEuMDItMy4yNCwyLjIxLTQuNiwzLjU3cy0yLjU1LDIuOTgtMy41Nyw0LjZjLTEuMDMsMS43LTEuNzksMy40OS0yLjMsNS40NSAgICAgIHMtMC44NSw0LTAuODUsNi4wNWMwLDIuMTIsMC4yNSw0LjA4LDAuODUsNi4wNGMwLjUxLDEuOTYsMS4yNywzLjc1LDIuMyw1LjQ1YzEuMDIsMS43LDIuMjEsMy4yNCwzLjU3LDQuNnMyLjk4LDIuNTUsNC42LDMuNTggICAgICBjMS43LDEuMDIsMy40OSwxLjc4LDUuNDUsMi4yOUMyNC4zNSw3NS4xMiwyNi40LDc1LjM3LDI4LjUzLDc1LjM3eiIvPiYjeGE7CQkJPC9nPiYjeGE7CQk8L2c+JiN4YTsJPC9nPiYjeGE7PC9nPiYjeGE7PC9zdmc+;labelPosition=center;align=center;imageBackground=none;fillStyle=solid;fontStyle=1" parent="1" vertex="1">
          <mxGeometry x="193" y="609" width="30" height="30" as="geometry" />
        </mxCell>
        <mxCell id="lAx5uchjGVzoTK3gPOGS-54" value="2" style="shape=image;verticalLabelPosition=middle;labelBackgroundColor=#ffffff;verticalAlign=middle;aspect=fixed;imageAspect=0;image=data:image/svg+xml,PHN2ZyB4bWxuczpjYz0iaHR0cDovL2NyZWF0aXZlY29tbW9ucy5vcmcvbnMjIiB4bWxuczpkYz0iaHR0cDovL3B1cmwub3JnL2RjL2VsZW1lbnRzLzEuMS8iIHhtbG5zOmlua3NjYXBlPSJodHRwOi8vd3d3Lmlua3NjYXBlLm9yZy9uYW1lc3BhY2VzL2lua3NjYXBlIiB4bWxuczpyZGY9Imh0dHA6Ly93d3cudzMub3JnLzE5OTkvMDIvMjItcmRmLXN5bnRheC1ucyMiIHhtbG5zOnNvZGlwb2RpPSJodHRwOi8vc29kaXBvZGkuc291cmNlZm9yZ2UubmV0L0RURC9zb2RpcG9kaS0wLmR0ZCIgeG1sbnM6c3ZnPSJodHRwOi8vd3d3LnczLm9yZy8yMDAwL3N2ZyIgeG1sbnM9Imh0dHA6Ly93d3cudzMub3JnLzIwMDAvc3ZnIiB4bWxuczp4bGluaz0iaHR0cDovL3d3dy53My5vcmcvMTk5OS94bGluayIgdmVyc2lvbj0iMS4xIiBpZD0ic3ZnMTE5NjkzIiBpbmtzY2FwZTp2ZXJzaW9uPSIwLjkyLjMgKDI0MDU1NDYsIDIwMTgtMDMtMTEpIiBzb2RpcG9kaTpkb2NuYW1lPSJhenVyZV9jb3J0b25hX21hbmFnZW1lbnRfc3VpdGUuc3ZnIiB4PSIwcHgiIHk9IjBweCIgdmlld0JveD0iMCAwIDY1LjA2IDY1LjA2IiBzdHlsZT0iZW5hYmxlLWJhY2tncm91bmQ6bmV3IDAgMCA2NS4wNiA2NS4wNjsiIHhtbDpzcGFjZT0icHJlc2VydmUiPiYjeGE7PHNvZGlwb2RpOm5hbWVkdmlldyBib3JkZXJjb2xvcj0iIzY2NjY2NiIgYm9yZGVyb3BhY2l0eT0iMSIgZml0LW1hcmdpbi1ib3R0b209IjAiIGZpdC1tYXJnaW4tbGVmdD0iMCIgZml0LW1hcmdpbi1yaWdodD0iMCIgZml0LW1hcmdpbi10b3A9IjAiIGdyaWR0b2xlcmFuY2U9IjEwIiBndWlkZXRvbGVyYW5jZT0iMTAiIGlkPSJuYW1lZHZpZXcxMTk2OTUiIGlua3NjYXBlOmN1cnJlbnQtbGF5ZXI9InN2ZzExOTY5MyIgaW5rc2NhcGU6Y3g9IjQzLjM3MDIyNSIgaW5rc2NhcGU6Y3k9IjQzLjM3NTQyNSIgaW5rc2NhcGU6cGFnZW9wYWNpdHk9IjAiIGlua3NjYXBlOnBhZ2VzaGFkb3c9IjIiIGlua3NjYXBlOndpbmRvdy1oZWlnaHQ9IjEwMTciIGlua3NjYXBlOndpbmRvdy1tYXhpbWl6ZWQ9IjEiIGlua3NjYXBlOndpbmRvdy13aWR0aD0iMTkyMCIgaW5rc2NhcGU6d2luZG93LXg9Ii04IiBpbmtzY2FwZTp3aW5kb3cteT0iLTgiIGlua3NjYXBlOnpvb209IjguMDIwMjIwOSIgb2JqZWN0dG9sZXJhbmNlPSIxMCIgcGFnZWNvbG9yPSIjZmZmZmZmIiBzaG93Z3JpZD0iZmFsc2UiPiYjeGE7CTwvc29kaXBvZGk6bmFtZWR2aWV3PiYjeGE7PGcgaWQ9ImcxMTk2OTEiIHRyYW5zZm9ybT0idHJhbnNsYXRlKC04LjAxMDQ3LC04LjAwOTUzKSI+JiN4YTsJPHRpdGxlIGlkPSJ0aXRsZTExOTY3MyI+UGFnZS0xPC90aXRsZT4mI3hhOwk8ZyBpZD0iZ3JvdXAxMzUzLTEiIHRyYW5zZm9ybT0idHJhbnNsYXRlKDguMDEwNDcsLTguMDEwNDcpIj4mI3hhOwkJPHRpdGxlIGlkPSJ0aXRsZTExOTY3NSI+QXp1cmUgQ29ydG9uYSBNYW5hZ2VtZW50IFN1aXRlPC90aXRsZT4mI3hhOwkJPGcgaWQ9Imdyb3VwMTM1NC0yIj4mI3hhOwkJCTx0aXRsZSBpZD0idGl0bGUxMTk2NzciPlNoZWV0LjEzNTQ8L3RpdGxlPiYjeGE7CQkJPGcgaWQ9InNoYXBlMTM1NS0zIj4mI3hhOwkJCQk8dGl0bGUgaWQ9InRpdGxlMTE5Njc5Ij5TaGVldC4xMzU1PC90aXRsZT4mI3hhOwkJCQk8cGF0aCBpZD0icGF0aDExOTY4MSIgaW5rc2NhcGU6Y29ubmVjdG9yLWN1cnZhdHVyZT0iMCIgc3R5bGU9ImZpbGw6IzAwNzlENjtmaWxsLW9wYWNpdHk6MC40OyIgZD0iTTMyLjUzLDE2LjAyICAgICAgYzIuOTgsMCw1Ljg3LDAuNDMsOC42LDEuMTljMi44MSwwLjc3LDUuMzYsMS44OCw3Ljc1LDMuMzJjMi4zOCwxLjQ1LDQuNTksMy4xNSw2LjU1LDUuMTFzMy42Niw0LjE4LDUuMTEsNi41NiAgICAgIHMyLjU2LDUuMDIsMy4zMiw3Ljc1YzAuNzcsMi44MSwxLjIsNS42MiwxLjIsOC42YzAsMi45OC0wLjQzLDUuODctMS4yLDguNmMtMC43NiwyLjgxLTEuODcsNS4zNi0zLjMyLDcuNzUgICAgICBjLTEuNDUsMi4zOC0zLjE1LDQuNi01LjExLDYuNTVjLTEuOTYsMS45Ni00LjE3LDMuNjctNi41NSw1LjExYy0yLjM5LDEuNDUtNS4wMywyLjU2LTcuNzUsMy4zMmMtMi44MSwwLjc3LTUuNjIsMS4yLTguNiwxLjIgICAgICBzLTUuODgtMC40My04LjYtMS4yYy0yLjgxLTAuNzYtNS4zNy0xLjg3LTcuNzUtMy4zMmMtMi4zOS0xLjQ0LTQuNi0zLjE1LTYuNTYtNS4xMWMtMS45Ni0xLjk1LTMuNjYtNC4xNy01LjExLTYuNTUgICAgICBjLTEuNDQtMi4zOS0yLjU1LTUuMDMtMy4zMi03Ljc1QzAuNDMsNTQuNDIsMCw1MS41MywwLDQ4LjU1czAuNDMtNS44OCwxLjE5LTguNmMwLjc3LTIuODEsMS44OC01LjM3LDMuMzItNy43NSAgICAgIGMxLjQ1LTIuMzgsMy4xNS00LjYsNS4xMS02LjU2czQuMTctMy42Niw2LjU2LTUuMTFjMi4zOC0xLjQ0LDUuMDItMi41NSw3Ljc1LTMuMzJDMjYuNjUsMTYuNDUsMjkuNTUsMTYuMDIsMzIuNTMsMTYuMDJ6ICAgICAgIE0zMi41Myw3Ni42NWMyLjU1LDAsNS4xMS0wLjM0LDcuNDktMS4wMmMyLjM5LTAuNjgsNC42LTEuNjIsNi43My0yLjgxYzIuMDQtMS4yLDQtMi43Myw1LjctNC40M2MxLjcxLTEuNywzLjE1LTMuNTgsNC40My01LjcxICAgICAgYzEuMTktMi4wNCwyLjEzLTQuMzQsMi44MS02LjcyYzAuNjgtMi4zOSwxLjAyLTQuODYsMS4wMi03LjVzLTAuMzQtNS4xMS0xLjAyLTcuNDljLTAuNjgtMi4zOC0xLjYyLTQuNi0yLjgxLTYuNzMgICAgICBjLTEuMTktMi4wNC0yLjcyLTQtNC40My01LjdjLTEuNy0xLjctMy41Ny0zLjE1LTUuNy00LjQzYy0yLjA1LTEuMTktNC4zNC0yLjEzLTYuNzMtMi44MWMtMi4zOC0wLjY4LTQuODUtMS4wMi03LjQ5LTEuMDIgICAgICBjLTIuNTYsMC01LjExLDAuMzQtNy41LDEuMDJjLTIuMzgsMC42OC00LjU5LDEuNjItNi43MiwyLjgxYy0yLjA1LDEuMTktNCwyLjczLTUuNzEsNC40M2MtMS43LDEuNy0zLjE1LDMuNTctNC40Myw1LjcgICAgICBjLTEuMTksMi4wNS0yLjEyLDQuMzUtMi44MSw2LjczYy0wLjY4LDIuMzgtMS4wMiw0Ljg1LTEuMDIsNy40OXMwLjM0LDUuMTEsMS4wMiw3LjVjMC42OSwyLjM4LDEuNjIsNC41OSwyLjgxLDYuNzIgICAgICBjMS4yLDIuMDUsMi43Myw0LjAxLDQuNDMsNS43MWMxLjcxLDEuNywzLjU4LDMuMTUsNS43MSw0LjQzYzIuMDQsMS4xOSw0LjM0LDIuMTMsNi43MiwyLjgxQzI3LjUsNzYuMzEsMjkuOTcsNzYuNjUsMzIuNTMsNzYuNjUgICAgICB6Ii8+JiN4YTsJCQk8L2c+JiN4YTsJCQk8ZyBpZD0ic2hhcGUxMzU2LTUiIHRyYW5zZm9ybT0idHJhbnNsYXRlKDQuMDAyMDgsLTMuOTE2OTMpIj4mI3hhOwkJCQk8dGl0bGUgaWQ9InRpdGxlMTE5Njg0Ij5TaGVldC4xMzU2PC90aXRsZT4mI3hhOwkJCQk8cGF0aCBpZD0icGF0aDExOTY4NiIgaW5rc2NhcGU6Y29ubmVjdG9yLWN1cnZhdHVyZT0iMCIgc3R5bGU9ImZpbGw6IzAwNzlENjsiIGQ9Ik0yOC41MywyNC4wM2MyLjY0LDAsNS4xOSwwLjM0LDcuNTcsMS4wMiAgICAgIGMyLjM5LDAuNjgsNC42OSwxLjYxLDYuODIsMi44OWMyLjEyLDEuMjgsNCwyLjczLDUuNzksNC40M2MxLjcsMS43LDMuMjMsMy42Niw0LjQyLDUuNzljMS4yOCwyLjEzLDIuMjIsNC4zNCwyLjksNi44MSAgICAgIGMwLjY4LDIuMzksMS4wMiw0Ljk0LDEuMDIsNy41OGMwLDIuNjQtMC4zNCw1LjE5LTEuMDIsNy41OGMtMC42OCwyLjM4LTEuNjIsNC42OC0yLjksNi44MWMtMS4yNywyLjEzLTIuNzIsNC00LjQyLDUuNzkgICAgICBjLTEuNzEsMS43LTMuNjcsMy4yNC01Ljc5LDQuNDNjLTIuMTMsMS4yOC00LjM1LDIuMjEtNi44MiwyLjg5Yy0yLjM4LDAuNjktNC45MywxLjAzLTcuNTcsMS4wM3MtNS4yLTAuMzQtNy41OC0xLjAzICAgICAgYy0yLjM5LTAuNjgtNC42OS0xLjYxLTYuODEtMi44OWMtMi4xMy0xLjI4LTQuMDEtMi43My01LjgtNC40M2MtMS43LTEuNy0zLjIzLTMuNjYtNC40Mi01Ljc5Yy0xLjI4LTIuMTMtMi4yMi00LjM0LTIuOS02LjgxICAgICAgQzAuMzQsNTcuNzQsMCw1NS4xOSwwLDUyLjU1czAuMzQtNS4xOSwxLjAyLTcuNThjMC42OC0yLjM4LDEuNjItNC42OCwyLjktNi44MWMxLjI3LTIuMTMsMi43Mi00LDQuNDItNS43OSAgICAgIGMxLjcxLTEuNywzLjY3LTMuMjQsNS44LTQuNDNjMi4xMi0xLjI4LDQuMzQtMi4yMSw2LjgxLTIuODlTMjUuODksMjQuMDMsMjguNTMsMjQuMDN6IE0yOC41Myw3NS4zN2MyLjEyLDAsNC4wOC0wLjI1LDYuMDQtMC44NSAgICAgIGMxLjk2LTAuNTEsMy43NS0xLjI4LDUuNDUtMi4zYzEuNy0xLjAyLDMuMjQtMi4yMSw0LjYtMy41OGMxLjM2LTEuMzYsMi41NS0yLjk4LDMuNTgtNC41OWMxLjAyLTEuNzEsMS43OC0zLjUsMi4yOS01LjQ1ICAgICAgYzAuNTItMS45NiwwLjg2LTQuMDEsMC44Ni02LjEzYzAtMi4xMy0wLjI2LTQuMDktMC44Ni02LjA1Yy0wLjUxLTEuOTYtMS4yNy0zLjc1LTIuMjktNS40NWMtMS4wMy0xLjctMi4yMi0zLjI0LTMuNTgtNC42ICAgICAgYy0xLjM2LTEuMzYtMi45OC0yLjU1LTQuNi0zLjU3Yy0xLjctMS4wMy0zLjQ5LTEuNzktNS40NS0yLjNjLTEuOTYtMC41MS00LTAuODUtNi4wNC0wLjg1Yy0yLjEzLDAtNC4wOSwwLjI1LTYuMDUsMC44NSAgICAgIGMtMS45NiwwLjUxLTMuNzUsMS4yNy01LjQ1LDIuM2MtMS43LDEuMDItMy4yNCwyLjIxLTQuNiwzLjU3cy0yLjU1LDIuOTgtMy41Nyw0LjZjLTEuMDMsMS43LTEuNzksMy40OS0yLjMsNS40NSAgICAgIHMtMC44NSw0LTAuODUsNi4wNWMwLDIuMTIsMC4yNSw0LjA4LDAuODUsNi4wNGMwLjUxLDEuOTYsMS4yNywzLjc1LDIuMyw1LjQ1YzEuMDIsMS43LDIuMjEsMy4yNCwzLjU3LDQuNnMyLjk4LDIuNTUsNC42LDMuNTggICAgICBjMS43LDEuMDIsMy40OSwxLjc4LDUuNDUsMi4yOUMyNC4zNSw3NS4xMiwyNi40LDc1LjM3LDI4LjUzLDc1LjM3eiIvPiYjeGE7CQkJPC9nPiYjeGE7CQk8L2c+JiN4YTsJPC9nPiYjeGE7PC9nPiYjeGE7PC9zdmc+;labelPosition=center;align=center;imageBackground=none;fillStyle=solid;fontStyle=1" parent="1" vertex="1">
          <mxGeometry x="770" y="696" width="30" height="30" as="geometry" />
        </mxCell>
        <mxCell id="lAx5uchjGVzoTK3gPOGS-55" value="3" style="shape=image;verticalLabelPosition=middle;labelBackgroundColor=#ffffff;verticalAlign=middle;aspect=fixed;imageAspect=0;image=data:image/svg+xml,PHN2ZyB4bWxuczpjYz0iaHR0cDovL2NyZWF0aXZlY29tbW9ucy5vcmcvbnMjIiB4bWxuczpkYz0iaHR0cDovL3B1cmwub3JnL2RjL2VsZW1lbnRzLzEuMS8iIHhtbG5zOmlua3NjYXBlPSJodHRwOi8vd3d3Lmlua3NjYXBlLm9yZy9uYW1lc3BhY2VzL2lua3NjYXBlIiB4bWxuczpyZGY9Imh0dHA6Ly93d3cudzMub3JnLzE5OTkvMDIvMjItcmRmLXN5bnRheC1ucyMiIHhtbG5zOnNvZGlwb2RpPSJodHRwOi8vc29kaXBvZGkuc291cmNlZm9yZ2UubmV0L0RURC9zb2RpcG9kaS0wLmR0ZCIgeG1sbnM6c3ZnPSJodHRwOi8vd3d3LnczLm9yZy8yMDAwL3N2ZyIgeG1sbnM9Imh0dHA6Ly93d3cudzMub3JnLzIwMDAvc3ZnIiB4bWxuczp4bGluaz0iaHR0cDovL3d3dy53My5vcmcvMTk5OS94bGluayIgdmVyc2lvbj0iMS4xIiBpZD0ic3ZnMTE5NjkzIiBpbmtzY2FwZTp2ZXJzaW9uPSIwLjkyLjMgKDI0MDU1NDYsIDIwMTgtMDMtMTEpIiBzb2RpcG9kaTpkb2NuYW1lPSJhenVyZV9jb3J0b25hX21hbmFnZW1lbnRfc3VpdGUuc3ZnIiB4PSIwcHgiIHk9IjBweCIgdmlld0JveD0iMCAwIDY1LjA2IDY1LjA2IiBzdHlsZT0iZW5hYmxlLWJhY2tncm91bmQ6bmV3IDAgMCA2NS4wNiA2NS4wNjsiIHhtbDpzcGFjZT0icHJlc2VydmUiPiYjeGE7PHNvZGlwb2RpOm5hbWVkdmlldyBib3JkZXJjb2xvcj0iIzY2NjY2NiIgYm9yZGVyb3BhY2l0eT0iMSIgZml0LW1hcmdpbi1ib3R0b209IjAiIGZpdC1tYXJnaW4tbGVmdD0iMCIgZml0LW1hcmdpbi1yaWdodD0iMCIgZml0LW1hcmdpbi10b3A9IjAiIGdyaWR0b2xlcmFuY2U9IjEwIiBndWlkZXRvbGVyYW5jZT0iMTAiIGlkPSJuYW1lZHZpZXcxMTk2OTUiIGlua3NjYXBlOmN1cnJlbnQtbGF5ZXI9InN2ZzExOTY5MyIgaW5rc2NhcGU6Y3g9IjQzLjM3MDIyNSIgaW5rc2NhcGU6Y3k9IjQzLjM3NTQyNSIgaW5rc2NhcGU6cGFnZW9wYWNpdHk9IjAiIGlua3NjYXBlOnBhZ2VzaGFkb3c9IjIiIGlua3NjYXBlOndpbmRvdy1oZWlnaHQ9IjEwMTciIGlua3NjYXBlOndpbmRvdy1tYXhpbWl6ZWQ9IjEiIGlua3NjYXBlOndpbmRvdy13aWR0aD0iMTkyMCIgaW5rc2NhcGU6d2luZG93LXg9Ii04IiBpbmtzY2FwZTp3aW5kb3cteT0iLTgiIGlua3NjYXBlOnpvb209IjguMDIwMjIwOSIgb2JqZWN0dG9sZXJhbmNlPSIxMCIgcGFnZWNvbG9yPSIjZmZmZmZmIiBzaG93Z3JpZD0iZmFsc2UiPiYjeGE7CTwvc29kaXBvZGk6bmFtZWR2aWV3PiYjeGE7PGcgaWQ9ImcxMTk2OTEiIHRyYW5zZm9ybT0idHJhbnNsYXRlKC04LjAxMDQ3LC04LjAwOTUzKSI+JiN4YTsJPHRpdGxlIGlkPSJ0aXRsZTExOTY3MyI+UGFnZS0xPC90aXRsZT4mI3hhOwk8ZyBpZD0iZ3JvdXAxMzUzLTEiIHRyYW5zZm9ybT0idHJhbnNsYXRlKDguMDEwNDcsLTguMDEwNDcpIj4mI3hhOwkJPHRpdGxlIGlkPSJ0aXRsZTExOTY3NSI+QXp1cmUgQ29ydG9uYSBNYW5hZ2VtZW50IFN1aXRlPC90aXRsZT4mI3hhOwkJPGcgaWQ9Imdyb3VwMTM1NC0yIj4mI3hhOwkJCTx0aXRsZSBpZD0idGl0bGUxMTk2NzciPlNoZWV0LjEzNTQ8L3RpdGxlPiYjeGE7CQkJPGcgaWQ9InNoYXBlMTM1NS0zIj4mI3hhOwkJCQk8dGl0bGUgaWQ9InRpdGxlMTE5Njc5Ij5TaGVldC4xMzU1PC90aXRsZT4mI3hhOwkJCQk8cGF0aCBpZD0icGF0aDExOTY4MSIgaW5rc2NhcGU6Y29ubmVjdG9yLWN1cnZhdHVyZT0iMCIgc3R5bGU9ImZpbGw6IzAwNzlENjtmaWxsLW9wYWNpdHk6MC40OyIgZD0iTTMyLjUzLDE2LjAyICAgICAgYzIuOTgsMCw1Ljg3LDAuNDMsOC42LDEuMTljMi44MSwwLjc3LDUuMzYsMS44OCw3Ljc1LDMuMzJjMi4zOCwxLjQ1LDQuNTksMy4xNSw2LjU1LDUuMTFzMy42Niw0LjE4LDUuMTEsNi41NiAgICAgIHMyLjU2LDUuMDIsMy4zMiw3Ljc1YzAuNzcsMi44MSwxLjIsNS42MiwxLjIsOC42YzAsMi45OC0wLjQzLDUuODctMS4yLDguNmMtMC43NiwyLjgxLTEuODcsNS4zNi0zLjMyLDcuNzUgICAgICBjLTEuNDUsMi4zOC0zLjE1LDQuNi01LjExLDYuNTVjLTEuOTYsMS45Ni00LjE3LDMuNjctNi41NSw1LjExYy0yLjM5LDEuNDUtNS4wMywyLjU2LTcuNzUsMy4zMmMtMi44MSwwLjc3LTUuNjIsMS4yLTguNiwxLjIgICAgICBzLTUuODgtMC40My04LjYtMS4yYy0yLjgxLTAuNzYtNS4zNy0xLjg3LTcuNzUtMy4zMmMtMi4zOS0xLjQ0LTQuNi0zLjE1LTYuNTYtNS4xMWMtMS45Ni0xLjk1LTMuNjYtNC4xNy01LjExLTYuNTUgICAgICBjLTEuNDQtMi4zOS0yLjU1LTUuMDMtMy4zMi03Ljc1QzAuNDMsNTQuNDIsMCw1MS41MywwLDQ4LjU1czAuNDMtNS44OCwxLjE5LTguNmMwLjc3LTIuODEsMS44OC01LjM3LDMuMzItNy43NSAgICAgIGMxLjQ1LTIuMzgsMy4xNS00LjYsNS4xMS02LjU2czQuMTctMy42Niw2LjU2LTUuMTFjMi4zOC0xLjQ0LDUuMDItMi41NSw3Ljc1LTMuMzJDMjYuNjUsMTYuNDUsMjkuNTUsMTYuMDIsMzIuNTMsMTYuMDJ6ICAgICAgIE0zMi41Myw3Ni42NWMyLjU1LDAsNS4xMS0wLjM0LDcuNDktMS4wMmMyLjM5LTAuNjgsNC42LTEuNjIsNi43My0yLjgxYzIuMDQtMS4yLDQtMi43Myw1LjctNC40M2MxLjcxLTEuNywzLjE1LTMuNTgsNC40My01LjcxICAgICAgYzEuMTktMi4wNCwyLjEzLTQuMzQsMi44MS02LjcyYzAuNjgtMi4zOSwxLjAyLTQuODYsMS4wMi03LjVzLTAuMzQtNS4xMS0xLjAyLTcuNDljLTAuNjgtMi4zOC0xLjYyLTQuNi0yLjgxLTYuNzMgICAgICBjLTEuMTktMi4wNC0yLjcyLTQtNC40My01LjdjLTEuNy0xLjctMy41Ny0zLjE1LTUuNy00LjQzYy0yLjA1LTEuMTktNC4zNC0yLjEzLTYuNzMtMi44MWMtMi4zOC0wLjY4LTQuODUtMS4wMi03LjQ5LTEuMDIgICAgICBjLTIuNTYsMC01LjExLDAuMzQtNy41LDEuMDJjLTIuMzgsMC42OC00LjU5LDEuNjItNi43MiwyLjgxYy0yLjA1LDEuMTktNCwyLjczLTUuNzEsNC40M2MtMS43LDEuNy0zLjE1LDMuNTctNC40Myw1LjcgICAgICBjLTEuMTksMi4wNS0yLjEyLDQuMzUtMi44MSw2LjczYy0wLjY4LDIuMzgtMS4wMiw0Ljg1LTEuMDIsNy40OXMwLjM0LDUuMTEsMS4wMiw3LjVjMC42OSwyLjM4LDEuNjIsNC41OSwyLjgxLDYuNzIgICAgICBjMS4yLDIuMDUsMi43Myw0LjAxLDQuNDMsNS43MWMxLjcxLDEuNywzLjU4LDMuMTUsNS43MSw0LjQzYzIuMDQsMS4xOSw0LjM0LDIuMTMsNi43MiwyLjgxQzI3LjUsNzYuMzEsMjkuOTcsNzYuNjUsMzIuNTMsNzYuNjUgICAgICB6Ii8+JiN4YTsJCQk8L2c+JiN4YTsJCQk8ZyBpZD0ic2hhcGUxMzU2LTUiIHRyYW5zZm9ybT0idHJhbnNsYXRlKDQuMDAyMDgsLTMuOTE2OTMpIj4mI3hhOwkJCQk8dGl0bGUgaWQ9InRpdGxlMTE5Njg0Ij5TaGVldC4xMzU2PC90aXRsZT4mI3hhOwkJCQk8cGF0aCBpZD0icGF0aDExOTY4NiIgaW5rc2NhcGU6Y29ubmVjdG9yLWN1cnZhdHVyZT0iMCIgc3R5bGU9ImZpbGw6IzAwNzlENjsiIGQ9Ik0yOC41MywyNC4wM2MyLjY0LDAsNS4xOSwwLjM0LDcuNTcsMS4wMiAgICAgIGMyLjM5LDAuNjgsNC42OSwxLjYxLDYuODIsMi44OWMyLjEyLDEuMjgsNCwyLjczLDUuNzksNC40M2MxLjcsMS43LDMuMjMsMy42Niw0LjQyLDUuNzljMS4yOCwyLjEzLDIuMjIsNC4zNCwyLjksNi44MSAgICAgIGMwLjY4LDIuMzksMS4wMiw0Ljk0LDEuMDIsNy41OGMwLDIuNjQtMC4zNCw1LjE5LTEuMDIsNy41OGMtMC42OCwyLjM4LTEuNjIsNC42OC0yLjksNi44MWMtMS4yNywyLjEzLTIuNzIsNC00LjQyLDUuNzkgICAgICBjLTEuNzEsMS43LTMuNjcsMy4yNC01Ljc5LDQuNDNjLTIuMTMsMS4yOC00LjM1LDIuMjEtNi44MiwyLjg5Yy0yLjM4LDAuNjktNC45MywxLjAzLTcuNTcsMS4wM3MtNS4yLTAuMzQtNy41OC0xLjAzICAgICAgYy0yLjM5LTAuNjgtNC42OS0xLjYxLTYuODEtMi44OWMtMi4xMy0xLjI4LTQuMDEtMi43My01LjgtNC40M2MtMS43LTEuNy0zLjIzLTMuNjYtNC40Mi01Ljc5Yy0xLjI4LTIuMTMtMi4yMi00LjM0LTIuOS02LjgxICAgICAgQzAuMzQsNTcuNzQsMCw1NS4xOSwwLDUyLjU1czAuMzQtNS4xOSwxLjAyLTcuNThjMC42OC0yLjM4LDEuNjItNC42OCwyLjktNi44MWMxLjI3LTIuMTMsMi43Mi00LDQuNDItNS43OSAgICAgIGMxLjcxLTEuNywzLjY3LTMuMjQsNS44LTQuNDNjMi4xMi0xLjI4LDQuMzQtMi4yMSw2LjgxLTIuODlTMjUuODksMjQuMDMsMjguNTMsMjQuMDN6IE0yOC41Myw3NS4zN2MyLjEyLDAsNC4wOC0wLjI1LDYuMDQtMC44NSAgICAgIGMxLjk2LTAuNTEsMy43NS0xLjI4LDUuNDUtMi4zYzEuNy0xLjAyLDMuMjQtMi4yMSw0LjYtMy41OGMxLjM2LTEuMzYsMi41NS0yLjk4LDMuNTgtNC41OWMxLjAyLTEuNzEsMS43OC0zLjUsMi4yOS01LjQ1ICAgICAgYzAuNTItMS45NiwwLjg2LTQuMDEsMC44Ni02LjEzYzAtMi4xMy0wLjI2LTQuMDktMC44Ni02LjA1Yy0wLjUxLTEuOTYtMS4yNy0zLjc1LTIuMjktNS40NWMtMS4wMy0xLjctMi4yMi0zLjI0LTMuNTgtNC42ICAgICAgYy0xLjM2LTEuMzYtMi45OC0yLjU1LTQuNi0zLjU3Yy0xLjctMS4wMy0zLjQ5LTEuNzktNS40NS0yLjNjLTEuOTYtMC41MS00LTAuODUtNi4wNC0wLjg1Yy0yLjEzLDAtNC4wOSwwLjI1LTYuMDUsMC44NSAgICAgIGMtMS45NiwwLjUxLTMuNzUsMS4yNy01LjQ1LDIuM2MtMS43LDEuMDItMy4yNCwyLjIxLTQuNiwzLjU3cy0yLjU1LDIuOTgtMy41Nyw0LjZjLTEuMDMsMS43LTEuNzksMy40OS0yLjMsNS40NSAgICAgIHMtMC44NSw0LTAuODUsNi4wNWMwLDIuMTIsMC4yNSw0LjA4LDAuODUsNi4wNGMwLjUxLDEuOTYsMS4yNywzLjc1LDIuMyw1LjQ1YzEuMDIsMS43LDIuMjEsMy4yNCwzLjU3LDQuNnMyLjk4LDIuNTUsNC42LDMuNTggICAgICBjMS43LDEuMDIsMy40OSwxLjc4LDUuNDUsMi4yOUMyNC4zNSw3NS4xMiwyNi40LDc1LjM3LDI4LjUzLDc1LjM3eiIvPiYjeGE7CQkJPC9nPiYjeGE7CQk8L2c+JiN4YTsJPC9nPiYjeGE7PC9nPiYjeGE7PC9zdmc+;labelPosition=center;align=center;imageBackground=none;fillStyle=solid;fontStyle=1" parent="1" vertex="1">
          <mxGeometry x="1210" y="696" width="30" height="30" as="geometry" />
        </mxCell>
        <mxCell id="lAx5uchjGVzoTK3gPOGS-56" value="4" style="shape=image;verticalLabelPosition=middle;labelBackgroundColor=#ffffff;verticalAlign=middle;aspect=fixed;imageAspect=0;image=data:image/svg+xml,PHN2ZyB4bWxuczpjYz0iaHR0cDovL2NyZWF0aXZlY29tbW9ucy5vcmcvbnMjIiB4bWxuczpkYz0iaHR0cDovL3B1cmwub3JnL2RjL2VsZW1lbnRzLzEuMS8iIHhtbG5zOmlua3NjYXBlPSJodHRwOi8vd3d3Lmlua3NjYXBlLm9yZy9uYW1lc3BhY2VzL2lua3NjYXBlIiB4bWxuczpyZGY9Imh0dHA6Ly93d3cudzMub3JnLzE5OTkvMDIvMjItcmRmLXN5bnRheC1ucyMiIHhtbG5zOnNvZGlwb2RpPSJodHRwOi8vc29kaXBvZGkuc291cmNlZm9yZ2UubmV0L0RURC9zb2RpcG9kaS0wLmR0ZCIgeG1sbnM6c3ZnPSJodHRwOi8vd3d3LnczLm9yZy8yMDAwL3N2ZyIgeG1sbnM9Imh0dHA6Ly93d3cudzMub3JnLzIwMDAvc3ZnIiB4bWxuczp4bGluaz0iaHR0cDovL3d3dy53My5vcmcvMTk5OS94bGluayIgdmVyc2lvbj0iMS4xIiBpZD0ic3ZnMTE5NjkzIiBpbmtzY2FwZTp2ZXJzaW9uPSIwLjkyLjMgKDI0MDU1NDYsIDIwMTgtMDMtMTEpIiBzb2RpcG9kaTpkb2NuYW1lPSJhenVyZV9jb3J0b25hX21hbmFnZW1lbnRfc3VpdGUuc3ZnIiB4PSIwcHgiIHk9IjBweCIgdmlld0JveD0iMCAwIDY1LjA2IDY1LjA2IiBzdHlsZT0iZW5hYmxlLWJhY2tncm91bmQ6bmV3IDAgMCA2NS4wNiA2NS4wNjsiIHhtbDpzcGFjZT0icHJlc2VydmUiPiYjeGE7PHNvZGlwb2RpOm5hbWVkdmlldyBib3JkZXJjb2xvcj0iIzY2NjY2NiIgYm9yZGVyb3BhY2l0eT0iMSIgZml0LW1hcmdpbi1ib3R0b209IjAiIGZpdC1tYXJnaW4tbGVmdD0iMCIgZml0LW1hcmdpbi1yaWdodD0iMCIgZml0LW1hcmdpbi10b3A9IjAiIGdyaWR0b2xlcmFuY2U9IjEwIiBndWlkZXRvbGVyYW5jZT0iMTAiIGlkPSJuYW1lZHZpZXcxMTk2OTUiIGlua3NjYXBlOmN1cnJlbnQtbGF5ZXI9InN2ZzExOTY5MyIgaW5rc2NhcGU6Y3g9IjQzLjM3MDIyNSIgaW5rc2NhcGU6Y3k9IjQzLjM3NTQyNSIgaW5rc2NhcGU6cGFnZW9wYWNpdHk9IjAiIGlua3NjYXBlOnBhZ2VzaGFkb3c9IjIiIGlua3NjYXBlOndpbmRvdy1oZWlnaHQ9IjEwMTciIGlua3NjYXBlOndpbmRvdy1tYXhpbWl6ZWQ9IjEiIGlua3NjYXBlOndpbmRvdy13aWR0aD0iMTkyMCIgaW5rc2NhcGU6d2luZG93LXg9Ii04IiBpbmtzY2FwZTp3aW5kb3cteT0iLTgiIGlua3NjYXBlOnpvb209IjguMDIwMjIwOSIgb2JqZWN0dG9sZXJhbmNlPSIxMCIgcGFnZWNvbG9yPSIjZmZmZmZmIiBzaG93Z3JpZD0iZmFsc2UiPiYjeGE7CTwvc29kaXBvZGk6bmFtZWR2aWV3PiYjeGE7PGcgaWQ9ImcxMTk2OTEiIHRyYW5zZm9ybT0idHJhbnNsYXRlKC04LjAxMDQ3LC04LjAwOTUzKSI+JiN4YTsJPHRpdGxlIGlkPSJ0aXRsZTExOTY3MyI+UGFnZS0xPC90aXRsZT4mI3hhOwk8ZyBpZD0iZ3JvdXAxMzUzLTEiIHRyYW5zZm9ybT0idHJhbnNsYXRlKDguMDEwNDcsLTguMDEwNDcpIj4mI3hhOwkJPHRpdGxlIGlkPSJ0aXRsZTExOTY3NSI+QXp1cmUgQ29ydG9uYSBNYW5hZ2VtZW50IFN1aXRlPC90aXRsZT4mI3hhOwkJPGcgaWQ9Imdyb3VwMTM1NC0yIj4mI3hhOwkJCTx0aXRsZSBpZD0idGl0bGUxMTk2NzciPlNoZWV0LjEzNTQ8L3RpdGxlPiYjeGE7CQkJPGcgaWQ9InNoYXBlMTM1NS0zIj4mI3hhOwkJCQk8dGl0bGUgaWQ9InRpdGxlMTE5Njc5Ij5TaGVldC4xMzU1PC90aXRsZT4mI3hhOwkJCQk8cGF0aCBpZD0icGF0aDExOTY4MSIgaW5rc2NhcGU6Y29ubmVjdG9yLWN1cnZhdHVyZT0iMCIgc3R5bGU9ImZpbGw6IzAwNzlENjtmaWxsLW9wYWNpdHk6MC40OyIgZD0iTTMyLjUzLDE2LjAyICAgICAgYzIuOTgsMCw1Ljg3LDAuNDMsOC42LDEuMTljMi44MSwwLjc3LDUuMzYsMS44OCw3Ljc1LDMuMzJjMi4zOCwxLjQ1LDQuNTksMy4xNSw2LjU1LDUuMTFzMy42Niw0LjE4LDUuMTEsNi41NiAgICAgIHMyLjU2LDUuMDIsMy4zMiw3Ljc1YzAuNzcsMi44MSwxLjIsNS42MiwxLjIsOC42YzAsMi45OC0wLjQzLDUuODctMS4yLDguNmMtMC43NiwyLjgxLTEuODcsNS4zNi0zLjMyLDcuNzUgICAgICBjLTEuNDUsMi4zOC0zLjE1LDQuNi01LjExLDYuNTVjLTEuOTYsMS45Ni00LjE3LDMuNjctNi41NSw1LjExYy0yLjM5LDEuNDUtNS4wMywyLjU2LTcuNzUsMy4zMmMtMi44MSwwLjc3LTUuNjIsMS4yLTguNiwxLjIgICAgICBzLTUuODgtMC40My04LjYtMS4yYy0yLjgxLTAuNzYtNS4zNy0xLjg3LTcuNzUtMy4zMmMtMi4zOS0xLjQ0LTQuNi0zLjE1LTYuNTYtNS4xMWMtMS45Ni0xLjk1LTMuNjYtNC4xNy01LjExLTYuNTUgICAgICBjLTEuNDQtMi4zOS0yLjU1LTUuMDMtMy4zMi03Ljc1QzAuNDMsNTQuNDIsMCw1MS41MywwLDQ4LjU1czAuNDMtNS44OCwxLjE5LTguNmMwLjc3LTIuODEsMS44OC01LjM3LDMuMzItNy43NSAgICAgIGMxLjQ1LTIuMzgsMy4xNS00LjYsNS4xMS02LjU2czQuMTctMy42Niw2LjU2LTUuMTFjMi4zOC0xLjQ0LDUuMDItMi41NSw3Ljc1LTMuMzJDMjYuNjUsMTYuNDUsMjkuNTUsMTYuMDIsMzIuNTMsMTYuMDJ6ICAgICAgIE0zMi41Myw3Ni42NWMyLjU1LDAsNS4xMS0wLjM0LDcuNDktMS4wMmMyLjM5LTAuNjgsNC42LTEuNjIsNi43My0yLjgxYzIuMDQtMS4yLDQtMi43Myw1LjctNC40M2MxLjcxLTEuNywzLjE1LTMuNTgsNC40My01LjcxICAgICAgYzEuMTktMi4wNCwyLjEzLTQuMzQsMi44MS02LjcyYzAuNjgtMi4zOSwxLjAyLTQuODYsMS4wMi03LjVzLTAuMzQtNS4xMS0xLjAyLTcuNDljLTAuNjgtMi4zOC0xLjYyLTQuNi0yLjgxLTYuNzMgICAgICBjLTEuMTktMi4wNC0yLjcyLTQtNC40My01LjdjLTEuNy0xLjctMy41Ny0zLjE1LTUuNy00LjQzYy0yLjA1LTEuMTktNC4zNC0yLjEzLTYuNzMtMi44MWMtMi4zOC0wLjY4LTQuODUtMS4wMi03LjQ5LTEuMDIgICAgICBjLTIuNTYsMC01LjExLDAuMzQtNy41LDEuMDJjLTIuMzgsMC42OC00LjU5LDEuNjItNi43MiwyLjgxYy0yLjA1LDEuMTktNCwyLjczLTUuNzEsNC40M2MtMS43LDEuNy0zLjE1LDMuNTctNC40Myw1LjcgICAgICBjLTEuMTksMi4wNS0yLjEyLDQuMzUtMi44MSw2LjczYy0wLjY4LDIuMzgtMS4wMiw0Ljg1LTEuMDIsNy40OXMwLjM0LDUuMTEsMS4wMiw3LjVjMC42OSwyLjM4LDEuNjIsNC41OSwyLjgxLDYuNzIgICAgICBjMS4yLDIuMDUsMi43Myw0LjAxLDQuNDMsNS43MWMxLjcxLDEuNywzLjU4LDMuMTUsNS43MSw0LjQzYzIuMDQsMS4xOSw0LjM0LDIuMTMsNi43MiwyLjgxQzI3LjUsNzYuMzEsMjkuOTcsNzYuNjUsMzIuNTMsNzYuNjUgICAgICB6Ii8+JiN4YTsJCQk8L2c+JiN4YTsJCQk8ZyBpZD0ic2hhcGUxMzU2LTUiIHRyYW5zZm9ybT0idHJhbnNsYXRlKDQuMDAyMDgsLTMuOTE2OTMpIj4mI3hhOwkJCQk8dGl0bGUgaWQ9InRpdGxlMTE5Njg0Ij5TaGVldC4xMzU2PC90aXRsZT4mI3hhOwkJCQk8cGF0aCBpZD0icGF0aDExOTY4NiIgaW5rc2NhcGU6Y29ubmVjdG9yLWN1cnZhdHVyZT0iMCIgc3R5bGU9ImZpbGw6IzAwNzlENjsiIGQ9Ik0yOC41MywyNC4wM2MyLjY0LDAsNS4xOSwwLjM0LDcuNTcsMS4wMiAgICAgIGMyLjM5LDAuNjgsNC42OSwxLjYxLDYuODIsMi44OWMyLjEyLDEuMjgsNCwyLjczLDUuNzksNC40M2MxLjcsMS43LDMuMjMsMy42Niw0LjQyLDUuNzljMS4yOCwyLjEzLDIuMjIsNC4zNCwyLjksNi44MSAgICAgIGMwLjY4LDIuMzksMS4wMiw0Ljk0LDEuMDIsNy41OGMwLDIuNjQtMC4zNCw1LjE5LTEuMDIsNy41OGMtMC42OCwyLjM4LTEuNjIsNC42OC0yLjksNi44MWMtMS4yNywyLjEzLTIuNzIsNC00LjQyLDUuNzkgICAgICBjLTEuNzEsMS43LTMuNjcsMy4yNC01Ljc5LDQuNDNjLTIuMTMsMS4yOC00LjM1LDIuMjEtNi44MiwyLjg5Yy0yLjM4LDAuNjktNC45MywxLjAzLTcuNTcsMS4wM3MtNS4yLTAuMzQtNy41OC0xLjAzICAgICAgYy0yLjM5LTAuNjgtNC42OS0xLjYxLTYuODEtMi44OWMtMi4xMy0xLjI4LTQuMDEtMi43My01LjgtNC40M2MtMS43LTEuNy0zLjIzLTMuNjYtNC40Mi01Ljc5Yy0xLjI4LTIuMTMtMi4yMi00LjM0LTIuOS02LjgxICAgICAgQzAuMzQsNTcuNzQsMCw1NS4xOSwwLDUyLjU1czAuMzQtNS4xOSwxLjAyLTcuNThjMC42OC0yLjM4LDEuNjItNC42OCwyLjktNi44MWMxLjI3LTIuMTMsMi43Mi00LDQuNDItNS43OSAgICAgIGMxLjcxLTEuNywzLjY3LTMuMjQsNS44LTQuNDNjMi4xMi0xLjI4LDQuMzQtMi4yMSw2LjgxLTIuODlTMjUuODksMjQuMDMsMjguNTMsMjQuMDN6IE0yOC41Myw3NS4zN2MyLjEyLDAsNC4wOC0wLjI1LDYuMDQtMC44NSAgICAgIGMxLjk2LTAuNTEsMy43NS0xLjI4LDUuNDUtMi4zYzEuNy0xLjAyLDMuMjQtMi4yMSw0LjYtMy41OGMxLjM2LTEuMzYsMi41NS0yLjk4LDMuNTgtNC41OWMxLjAyLTEuNzEsMS43OC0zLjUsMi4yOS01LjQ1ICAgICAgYzAuNTItMS45NiwwLjg2LTQuMDEsMC44Ni02LjEzYzAtMi4xMy0wLjI2LTQuMDktMC44Ni02LjA1Yy0wLjUxLTEuOTYtMS4yNy0zLjc1LTIuMjktNS40NWMtMS4wMy0xLjctMi4yMi0zLjI0LTMuNTgtNC42ICAgICAgYy0xLjM2LTEuMzYtMi45OC0yLjU1LTQuNi0zLjU3Yy0xLjctMS4wMy0zLjQ5LTEuNzktNS40NS0yLjNjLTEuOTYtMC41MS00LTAuODUtNi4wNC0wLjg1Yy0yLjEzLDAtNC4wOSwwLjI1LTYuMDUsMC44NSAgICAgIGMtMS45NiwwLjUxLTMuNzUsMS4yNy01LjQ1LDIuM2MtMS43LDEuMDItMy4yNCwyLjIxLTQuNiwzLjU3cy0yLjU1LDIuOTgtMy41Nyw0LjZjLTEuMDMsMS43LTEuNzksMy40OS0yLjMsNS40NSAgICAgIHMtMC44NSw0LTAuODUsNi4wNWMwLDIuMTIsMC4yNSw0LjA4LDAuODUsNi4wNGMwLjUxLDEuOTYsMS4yNywzLjc1LDIuMyw1LjQ1YzEuMDIsMS43LDIuMjEsMy4yNCwzLjU3LDQuNnMyLjk4LDIuNTUsNC42LDMuNTggICAgICBjMS43LDEuMDIsMy40OSwxLjc4LDUuNDUsMi4yOUMyNC4zNSw3NS4xMiwyNi40LDc1LjM3LDI4LjUzLDc1LjM3eiIvPiYjeGE7CQkJPC9nPiYjeGE7CQk8L2c+JiN4YTsJPC9nPiYjeGE7PC9nPiYjeGE7PC9zdmc+;labelPosition=center;align=center;imageBackground=none;fillStyle=solid;fontStyle=1" parent="1" vertex="1">
          <mxGeometry x="570" y="550" width="30" height="30" as="geometry" />
        </mxCell>
        <mxCell id="lAx5uchjGVzoTK3gPOGS-57" value="5" style="shape=image;verticalLabelPosition=middle;labelBackgroundColor=#ffffff;verticalAlign=middle;aspect=fixed;imageAspect=0;image=data:image/svg+xml,PHN2ZyB4bWxuczpjYz0iaHR0cDovL2NyZWF0aXZlY29tbW9ucy5vcmcvbnMjIiB4bWxuczpkYz0iaHR0cDovL3B1cmwub3JnL2RjL2VsZW1lbnRzLzEuMS8iIHhtbG5zOmlua3NjYXBlPSJodHRwOi8vd3d3Lmlua3NjYXBlLm9yZy9uYW1lc3BhY2VzL2lua3NjYXBlIiB4bWxuczpyZGY9Imh0dHA6Ly93d3cudzMub3JnLzE5OTkvMDIvMjItcmRmLXN5bnRheC1ucyMiIHhtbG5zOnNvZGlwb2RpPSJodHRwOi8vc29kaXBvZGkuc291cmNlZm9yZ2UubmV0L0RURC9zb2RpcG9kaS0wLmR0ZCIgeG1sbnM6c3ZnPSJodHRwOi8vd3d3LnczLm9yZy8yMDAwL3N2ZyIgeG1sbnM9Imh0dHA6Ly93d3cudzMub3JnLzIwMDAvc3ZnIiB4bWxuczp4bGluaz0iaHR0cDovL3d3dy53My5vcmcvMTk5OS94bGluayIgdmVyc2lvbj0iMS4xIiBpZD0ic3ZnMTE5NjkzIiBpbmtzY2FwZTp2ZXJzaW9uPSIwLjkyLjMgKDI0MDU1NDYsIDIwMTgtMDMtMTEpIiBzb2RpcG9kaTpkb2NuYW1lPSJhenVyZV9jb3J0b25hX21hbmFnZW1lbnRfc3VpdGUuc3ZnIiB4PSIwcHgiIHk9IjBweCIgdmlld0JveD0iMCAwIDY1LjA2IDY1LjA2IiBzdHlsZT0iZW5hYmxlLWJhY2tncm91bmQ6bmV3IDAgMCA2NS4wNiA2NS4wNjsiIHhtbDpzcGFjZT0icHJlc2VydmUiPiYjeGE7PHNvZGlwb2RpOm5hbWVkdmlldyBib3JkZXJjb2xvcj0iIzY2NjY2NiIgYm9yZGVyb3BhY2l0eT0iMSIgZml0LW1hcmdpbi1ib3R0b209IjAiIGZpdC1tYXJnaW4tbGVmdD0iMCIgZml0LW1hcmdpbi1yaWdodD0iMCIgZml0LW1hcmdpbi10b3A9IjAiIGdyaWR0b2xlcmFuY2U9IjEwIiBndWlkZXRvbGVyYW5jZT0iMTAiIGlkPSJuYW1lZHZpZXcxMTk2OTUiIGlua3NjYXBlOmN1cnJlbnQtbGF5ZXI9InN2ZzExOTY5MyIgaW5rc2NhcGU6Y3g9IjQzLjM3MDIyNSIgaW5rc2NhcGU6Y3k9IjQzLjM3NTQyNSIgaW5rc2NhcGU6cGFnZW9wYWNpdHk9IjAiIGlua3NjYXBlOnBhZ2VzaGFkb3c9IjIiIGlua3NjYXBlOndpbmRvdy1oZWlnaHQ9IjEwMTciIGlua3NjYXBlOndpbmRvdy1tYXhpbWl6ZWQ9IjEiIGlua3NjYXBlOndpbmRvdy13aWR0aD0iMTkyMCIgaW5rc2NhcGU6d2luZG93LXg9Ii04IiBpbmtzY2FwZTp3aW5kb3cteT0iLTgiIGlua3NjYXBlOnpvb209IjguMDIwMjIwOSIgb2JqZWN0dG9sZXJhbmNlPSIxMCIgcGFnZWNvbG9yPSIjZmZmZmZmIiBzaG93Z3JpZD0iZmFsc2UiPiYjeGE7CTwvc29kaXBvZGk6bmFtZWR2aWV3PiYjeGE7PGcgaWQ9ImcxMTk2OTEiIHRyYW5zZm9ybT0idHJhbnNsYXRlKC04LjAxMDQ3LC04LjAwOTUzKSI+JiN4YTsJPHRpdGxlIGlkPSJ0aXRsZTExOTY3MyI+UGFnZS0xPC90aXRsZT4mI3hhOwk8ZyBpZD0iZ3JvdXAxMzUzLTEiIHRyYW5zZm9ybT0idHJhbnNsYXRlKDguMDEwNDcsLTguMDEwNDcpIj4mI3hhOwkJPHRpdGxlIGlkPSJ0aXRsZTExOTY3NSI+QXp1cmUgQ29ydG9uYSBNYW5hZ2VtZW50IFN1aXRlPC90aXRsZT4mI3hhOwkJPGcgaWQ9Imdyb3VwMTM1NC0yIj4mI3hhOwkJCTx0aXRsZSBpZD0idGl0bGUxMTk2NzciPlNoZWV0LjEzNTQ8L3RpdGxlPiYjeGE7CQkJPGcgaWQ9InNoYXBlMTM1NS0zIj4mI3hhOwkJCQk8dGl0bGUgaWQ9InRpdGxlMTE5Njc5Ij5TaGVldC4xMzU1PC90aXRsZT4mI3hhOwkJCQk8cGF0aCBpZD0icGF0aDExOTY4MSIgaW5rc2NhcGU6Y29ubmVjdG9yLWN1cnZhdHVyZT0iMCIgc3R5bGU9ImZpbGw6IzAwNzlENjtmaWxsLW9wYWNpdHk6MC40OyIgZD0iTTMyLjUzLDE2LjAyICAgICAgYzIuOTgsMCw1Ljg3LDAuNDMsOC42LDEuMTljMi44MSwwLjc3LDUuMzYsMS44OCw3Ljc1LDMuMzJjMi4zOCwxLjQ1LDQuNTksMy4xNSw2LjU1LDUuMTFzMy42Niw0LjE4LDUuMTEsNi41NiAgICAgIHMyLjU2LDUuMDIsMy4zMiw3Ljc1YzAuNzcsMi44MSwxLjIsNS42MiwxLjIsOC42YzAsMi45OC0wLjQzLDUuODctMS4yLDguNmMtMC43NiwyLjgxLTEuODcsNS4zNi0zLjMyLDcuNzUgICAgICBjLTEuNDUsMi4zOC0zLjE1LDQuNi01LjExLDYuNTVjLTEuOTYsMS45Ni00LjE3LDMuNjctNi41NSw1LjExYy0yLjM5LDEuNDUtNS4wMywyLjU2LTcuNzUsMy4zMmMtMi44MSwwLjc3LTUuNjIsMS4yLTguNiwxLjIgICAgICBzLTUuODgtMC40My04LjYtMS4yYy0yLjgxLTAuNzYtNS4zNy0xLjg3LTcuNzUtMy4zMmMtMi4zOS0xLjQ0LTQuNi0zLjE1LTYuNTYtNS4xMWMtMS45Ni0xLjk1LTMuNjYtNC4xNy01LjExLTYuNTUgICAgICBjLTEuNDQtMi4zOS0yLjU1LTUuMDMtMy4zMi03Ljc1QzAuNDMsNTQuNDIsMCw1MS41MywwLDQ4LjU1czAuNDMtNS44OCwxLjE5LTguNmMwLjc3LTIuODEsMS44OC01LjM3LDMuMzItNy43NSAgICAgIGMxLjQ1LTIuMzgsMy4xNS00LjYsNS4xMS02LjU2czQuMTctMy42Niw2LjU2LTUuMTFjMi4zOC0xLjQ0LDUuMDItMi41NSw3Ljc1LTMuMzJDMjYuNjUsMTYuNDUsMjkuNTUsMTYuMDIsMzIuNTMsMTYuMDJ6ICAgICAgIE0zMi41Myw3Ni42NWMyLjU1LDAsNS4xMS0wLjM0LDcuNDktMS4wMmMyLjM5LTAuNjgsNC42LTEuNjIsNi43My0yLjgxYzIuMDQtMS4yLDQtMi43Myw1LjctNC40M2MxLjcxLTEuNywzLjE1LTMuNTgsNC40My01LjcxICAgICAgYzEuMTktMi4wNCwyLjEzLTQuMzQsMi44MS02LjcyYzAuNjgtMi4zOSwxLjAyLTQuODYsMS4wMi03LjVzLTAuMzQtNS4xMS0xLjAyLTcuNDljLTAuNjgtMi4zOC0xLjYyLTQuNi0yLjgxLTYuNzMgICAgICBjLTEuMTktMi4wNC0yLjcyLTQtNC40My01LjdjLTEuNy0xLjctMy41Ny0zLjE1LTUuNy00LjQzYy0yLjA1LTEuMTktNC4zNC0yLjEzLTYuNzMtMi44MWMtMi4zOC0wLjY4LTQuODUtMS4wMi03LjQ5LTEuMDIgICAgICBjLTIuNTYsMC01LjExLDAuMzQtNy41LDEuMDJjLTIuMzgsMC42OC00LjU5LDEuNjItNi43MiwyLjgxYy0yLjA1LDEuMTktNCwyLjczLTUuNzEsNC40M2MtMS43LDEuNy0zLjE1LDMuNTctNC40Myw1LjcgICAgICBjLTEuMTksMi4wNS0yLjEyLDQuMzUtMi44MSw2LjczYy0wLjY4LDIuMzgtMS4wMiw0Ljg1LTEuMDIsNy40OXMwLjM0LDUuMTEsMS4wMiw3LjVjMC42OSwyLjM4LDEuNjIsNC41OSwyLjgxLDYuNzIgICAgICBjMS4yLDIuMDUsMi43Myw0LjAxLDQuNDMsNS43MWMxLjcxLDEuNywzLjU4LDMuMTUsNS43MSw0LjQzYzIuMDQsMS4xOSw0LjM0LDIuMTMsNi43MiwyLjgxQzI3LjUsNzYuMzEsMjkuOTcsNzYuNjUsMzIuNTMsNzYuNjUgICAgICB6Ii8+JiN4YTsJCQk8L2c+JiN4YTsJCQk8ZyBpZD0ic2hhcGUxMzU2LTUiIHRyYW5zZm9ybT0idHJhbnNsYXRlKDQuMDAyMDgsLTMuOTE2OTMpIj4mI3hhOwkJCQk8dGl0bGUgaWQ9InRpdGxlMTE5Njg0Ij5TaGVldC4xMzU2PC90aXRsZT4mI3hhOwkJCQk8cGF0aCBpZD0icGF0aDExOTY4NiIgaW5rc2NhcGU6Y29ubmVjdG9yLWN1cnZhdHVyZT0iMCIgc3R5bGU9ImZpbGw6IzAwNzlENjsiIGQ9Ik0yOC41MywyNC4wM2MyLjY0LDAsNS4xOSwwLjM0LDcuNTcsMS4wMiAgICAgIGMyLjM5LDAuNjgsNC42OSwxLjYxLDYuODIsMi44OWMyLjEyLDEuMjgsNCwyLjczLDUuNzksNC40M2MxLjcsMS43LDMuMjMsMy42Niw0LjQyLDUuNzljMS4yOCwyLjEzLDIuMjIsNC4zNCwyLjksNi44MSAgICAgIGMwLjY4LDIuMzksMS4wMiw0Ljk0LDEuMDIsNy41OGMwLDIuNjQtMC4zNCw1LjE5LTEuMDIsNy41OGMtMC42OCwyLjM4LTEuNjIsNC42OC0yLjksNi44MWMtMS4yNywyLjEzLTIuNzIsNC00LjQyLDUuNzkgICAgICBjLTEuNzEsMS43LTMuNjcsMy4yNC01Ljc5LDQuNDNjLTIuMTMsMS4yOC00LjM1LDIuMjEtNi44MiwyLjg5Yy0yLjM4LDAuNjktNC45MywxLjAzLTcuNTcsMS4wM3MtNS4yLTAuMzQtNy41OC0xLjAzICAgICAgYy0yLjM5LTAuNjgtNC42OS0xLjYxLTYuODEtMi44OWMtMi4xMy0xLjI4LTQuMDEtMi43My01LjgtNC40M2MtMS43LTEuNy0zLjIzLTMuNjYtNC40Mi01Ljc5Yy0xLjI4LTIuMTMtMi4yMi00LjM0LTIuOS02LjgxICAgICAgQzAuMzQsNTcuNzQsMCw1NS4xOSwwLDUyLjU1czAuMzQtNS4xOSwxLjAyLTcuNThjMC42OC0yLjM4LDEuNjItNC42OCwyLjktNi44MWMxLjI3LTIuMTMsMi43Mi00LDQuNDItNS43OSAgICAgIGMxLjcxLTEuNywzLjY3LTMuMjQsNS44LTQuNDNjMi4xMi0xLjI4LDQuMzQtMi4yMSw2LjgxLTIuODlTMjUuODksMjQuMDMsMjguNTMsMjQuMDN6IE0yOC41Myw3NS4zN2MyLjEyLDAsNC4wOC0wLjI1LDYuMDQtMC44NSAgICAgIGMxLjk2LTAuNTEsMy43NS0xLjI4LDUuNDUtMi4zYzEuNy0xLjAyLDMuMjQtMi4yMSw0LjYtMy41OGMxLjM2LTEuMzYsMi41NS0yLjk4LDMuNTgtNC41OWMxLjAyLTEuNzEsMS43OC0zLjUsMi4yOS01LjQ1ICAgICAgYzAuNTItMS45NiwwLjg2LTQuMDEsMC44Ni02LjEzYzAtMi4xMy0wLjI2LTQuMDktMC44Ni02LjA1Yy0wLjUxLTEuOTYtMS4yNy0zLjc1LTIuMjktNS40NWMtMS4wMy0xLjctMi4yMi0zLjI0LTMuNTgtNC42ICAgICAgYy0xLjM2LTEuMzYtMi45OC0yLjU1LTQuNi0zLjU3Yy0xLjctMS4wMy0zLjQ5LTEuNzktNS40NS0yLjNjLTEuOTYtMC41MS00LTAuODUtNi4wNC0wLjg1Yy0yLjEzLDAtNC4wOSwwLjI1LTYuMDUsMC44NSAgICAgIGMtMS45NiwwLjUxLTMuNzUsMS4yNy01LjQ1LDIuM2MtMS43LDEuMDItMy4yNCwyLjIxLTQuNiwzLjU3cy0yLjU1LDIuOTgtMy41Nyw0LjZjLTEuMDMsMS43LTEuNzksMy40OS0yLjMsNS40NSAgICAgIHMtMC44NSw0LTAuODUsNi4wNWMwLDIuMTIsMC4yNSw0LjA4LDAuODUsNi4wNGMwLjUxLDEuOTYsMS4yNywzLjc1LDIuMyw1LjQ1YzEuMDIsMS43LDIuMjEsMy4yNCwzLjU3LDQuNnMyLjk4LDIuNTUsNC42LDMuNTggICAgICBjMS43LDEuMDIsMy40OSwxLjc4LDUuNDUsMi4yOUMyNC4zNSw3NS4xMiwyNi40LDc1LjM3LDI4LjUzLDc1LjM3eiIvPiYjeGE7CQkJPC9nPiYjeGE7CQk8L2c+JiN4YTsJPC9nPiYjeGE7PC9nPiYjeGE7PC9zdmc+;labelPosition=center;align=center;imageBackground=none;fillStyle=solid;fontStyle=1" parent="1" vertex="1">
          <mxGeometry x="770" y="622" width="30" height="30" as="geometry" />
        </mxCell>
        <mxCell id="lAx5uchjGVzoTK3gPOGS-58" value="6" style="shape=image;verticalLabelPosition=middle;labelBackgroundColor=#ffffff;verticalAlign=middle;aspect=fixed;imageAspect=0;image=data:image/svg+xml,PHN2ZyB4bWxuczpjYz0iaHR0cDovL2NyZWF0aXZlY29tbW9ucy5vcmcvbnMjIiB4bWxuczpkYz0iaHR0cDovL3B1cmwub3JnL2RjL2VsZW1lbnRzLzEuMS8iIHhtbG5zOmlua3NjYXBlPSJodHRwOi8vd3d3Lmlua3NjYXBlLm9yZy9uYW1lc3BhY2VzL2lua3NjYXBlIiB4bWxuczpyZGY9Imh0dHA6Ly93d3cudzMub3JnLzE5OTkvMDIvMjItcmRmLXN5bnRheC1ucyMiIHhtbG5zOnNvZGlwb2RpPSJodHRwOi8vc29kaXBvZGkuc291cmNlZm9yZ2UubmV0L0RURC9zb2RpcG9kaS0wLmR0ZCIgeG1sbnM6c3ZnPSJodHRwOi8vd3d3LnczLm9yZy8yMDAwL3N2ZyIgeG1sbnM9Imh0dHA6Ly93d3cudzMub3JnLzIwMDAvc3ZnIiB4bWxuczp4bGluaz0iaHR0cDovL3d3dy53My5vcmcvMTk5OS94bGluayIgdmVyc2lvbj0iMS4xIiBpZD0ic3ZnMTE5NjkzIiBpbmtzY2FwZTp2ZXJzaW9uPSIwLjkyLjMgKDI0MDU1NDYsIDIwMTgtMDMtMTEpIiBzb2RpcG9kaTpkb2NuYW1lPSJhenVyZV9jb3J0b25hX21hbmFnZW1lbnRfc3VpdGUuc3ZnIiB4PSIwcHgiIHk9IjBweCIgdmlld0JveD0iMCAwIDY1LjA2IDY1LjA2IiBzdHlsZT0iZW5hYmxlLWJhY2tncm91bmQ6bmV3IDAgMCA2NS4wNiA2NS4wNjsiIHhtbDpzcGFjZT0icHJlc2VydmUiPiYjeGE7PHNvZGlwb2RpOm5hbWVkdmlldyBib3JkZXJjb2xvcj0iIzY2NjY2NiIgYm9yZGVyb3BhY2l0eT0iMSIgZml0LW1hcmdpbi1ib3R0b209IjAiIGZpdC1tYXJnaW4tbGVmdD0iMCIgZml0LW1hcmdpbi1yaWdodD0iMCIgZml0LW1hcmdpbi10b3A9IjAiIGdyaWR0b2xlcmFuY2U9IjEwIiBndWlkZXRvbGVyYW5jZT0iMTAiIGlkPSJuYW1lZHZpZXcxMTk2OTUiIGlua3NjYXBlOmN1cnJlbnQtbGF5ZXI9InN2ZzExOTY5MyIgaW5rc2NhcGU6Y3g9IjQzLjM3MDIyNSIgaW5rc2NhcGU6Y3k9IjQzLjM3NTQyNSIgaW5rc2NhcGU6cGFnZW9wYWNpdHk9IjAiIGlua3NjYXBlOnBhZ2VzaGFkb3c9IjIiIGlua3NjYXBlOndpbmRvdy1oZWlnaHQ9IjEwMTciIGlua3NjYXBlOndpbmRvdy1tYXhpbWl6ZWQ9IjEiIGlua3NjYXBlOndpbmRvdy13aWR0aD0iMTkyMCIgaW5rc2NhcGU6d2luZG93LXg9Ii04IiBpbmtzY2FwZTp3aW5kb3cteT0iLTgiIGlua3NjYXBlOnpvb209IjguMDIwMjIwOSIgb2JqZWN0dG9sZXJhbmNlPSIxMCIgcGFnZWNvbG9yPSIjZmZmZmZmIiBzaG93Z3JpZD0iZmFsc2UiPiYjeGE7CTwvc29kaXBvZGk6bmFtZWR2aWV3PiYjeGE7PGcgaWQ9ImcxMTk2OTEiIHRyYW5zZm9ybT0idHJhbnNsYXRlKC04LjAxMDQ3LC04LjAwOTUzKSI+JiN4YTsJPHRpdGxlIGlkPSJ0aXRsZTExOTY3MyI+UGFnZS0xPC90aXRsZT4mI3hhOwk8ZyBpZD0iZ3JvdXAxMzUzLTEiIHRyYW5zZm9ybT0idHJhbnNsYXRlKDguMDEwNDcsLTguMDEwNDcpIj4mI3hhOwkJPHRpdGxlIGlkPSJ0aXRsZTExOTY3NSI+QXp1cmUgQ29ydG9uYSBNYW5hZ2VtZW50IFN1aXRlPC90aXRsZT4mI3hhOwkJPGcgaWQ9Imdyb3VwMTM1NC0yIj4mI3hhOwkJCTx0aXRsZSBpZD0idGl0bGUxMTk2NzciPlNoZWV0LjEzNTQ8L3RpdGxlPiYjeGE7CQkJPGcgaWQ9InNoYXBlMTM1NS0zIj4mI3hhOwkJCQk8dGl0bGUgaWQ9InRpdGxlMTE5Njc5Ij5TaGVldC4xMzU1PC90aXRsZT4mI3hhOwkJCQk8cGF0aCBpZD0icGF0aDExOTY4MSIgaW5rc2NhcGU6Y29ubmVjdG9yLWN1cnZhdHVyZT0iMCIgc3R5bGU9ImZpbGw6IzAwNzlENjtmaWxsLW9wYWNpdHk6MC40OyIgZD0iTTMyLjUzLDE2LjAyICAgICAgYzIuOTgsMCw1Ljg3LDAuNDMsOC42LDEuMTljMi44MSwwLjc3LDUuMzYsMS44OCw3Ljc1LDMuMzJjMi4zOCwxLjQ1LDQuNTksMy4xNSw2LjU1LDUuMTFzMy42Niw0LjE4LDUuMTEsNi41NiAgICAgIHMyLjU2LDUuMDIsMy4zMiw3Ljc1YzAuNzcsMi44MSwxLjIsNS42MiwxLjIsOC42YzAsMi45OC0wLjQzLDUuODctMS4yLDguNmMtMC43NiwyLjgxLTEuODcsNS4zNi0zLjMyLDcuNzUgICAgICBjLTEuNDUsMi4zOC0zLjE1LDQuNi01LjExLDYuNTVjLTEuOTYsMS45Ni00LjE3LDMuNjctNi41NSw1LjExYy0yLjM5LDEuNDUtNS4wMywyLjU2LTcuNzUsMy4zMmMtMi44MSwwLjc3LTUuNjIsMS4yLTguNiwxLjIgICAgICBzLTUuODgtMC40My04LjYtMS4yYy0yLjgxLTAuNzYtNS4zNy0xLjg3LTcuNzUtMy4zMmMtMi4zOS0xLjQ0LTQuNi0zLjE1LTYuNTYtNS4xMWMtMS45Ni0xLjk1LTMuNjYtNC4xNy01LjExLTYuNTUgICAgICBjLTEuNDQtMi4zOS0yLjU1LTUuMDMtMy4zMi03Ljc1QzAuNDMsNTQuNDIsMCw1MS41MywwLDQ4LjU1czAuNDMtNS44OCwxLjE5LTguNmMwLjc3LTIuODEsMS44OC01LjM3LDMuMzItNy43NSAgICAgIGMxLjQ1LTIuMzgsMy4xNS00LjYsNS4xMS02LjU2czQuMTctMy42Niw2LjU2LTUuMTFjMi4zOC0xLjQ0LDUuMDItMi41NSw3Ljc1LTMuMzJDMjYuNjUsMTYuNDUsMjkuNTUsMTYuMDIsMzIuNTMsMTYuMDJ6ICAgICAgIE0zMi41Myw3Ni42NWMyLjU1LDAsNS4xMS0wLjM0LDcuNDktMS4wMmMyLjM5LTAuNjgsNC42LTEuNjIsNi43My0yLjgxYzIuMDQtMS4yLDQtMi43Myw1LjctNC40M2MxLjcxLTEuNywzLjE1LTMuNTgsNC40My01LjcxICAgICAgYzEuMTktMi4wNCwyLjEzLTQuMzQsMi44MS02LjcyYzAuNjgtMi4zOSwxLjAyLTQuODYsMS4wMi03LjVzLTAuMzQtNS4xMS0xLjAyLTcuNDljLTAuNjgtMi4zOC0xLjYyLTQuNi0yLjgxLTYuNzMgICAgICBjLTEuMTktMi4wNC0yLjcyLTQtNC40My01LjdjLTEuNy0xLjctMy41Ny0zLjE1LTUuNy00LjQzYy0yLjA1LTEuMTktNC4zNC0yLjEzLTYuNzMtMi44MWMtMi4zOC0wLjY4LTQuODUtMS4wMi03LjQ5LTEuMDIgICAgICBjLTIuNTYsMC01LjExLDAuMzQtNy41LDEuMDJjLTIuMzgsMC42OC00LjU5LDEuNjItNi43MiwyLjgxYy0yLjA1LDEuMTktNCwyLjczLTUuNzEsNC40M2MtMS43LDEuNy0zLjE1LDMuNTctNC40Myw1LjcgICAgICBjLTEuMTksMi4wNS0yLjEyLDQuMzUtMi44MSw2LjczYy0wLjY4LDIuMzgtMS4wMiw0Ljg1LTEuMDIsNy40OXMwLjM0LDUuMTEsMS4wMiw3LjVjMC42OSwyLjM4LDEuNjIsNC41OSwyLjgxLDYuNzIgICAgICBjMS4yLDIuMDUsMi43Myw0LjAxLDQuNDMsNS43MWMxLjcxLDEuNywzLjU4LDMuMTUsNS43MSw0LjQzYzIuMDQsMS4xOSw0LjM0LDIuMTMsNi43MiwyLjgxQzI3LjUsNzYuMzEsMjkuOTcsNzYuNjUsMzIuNTMsNzYuNjUgICAgICB6Ii8+JiN4YTsJCQk8L2c+JiN4YTsJCQk8ZyBpZD0ic2hhcGUxMzU2LTUiIHRyYW5zZm9ybT0idHJhbnNsYXRlKDQuMDAyMDgsLTMuOTE2OTMpIj4mI3hhOwkJCQk8dGl0bGUgaWQ9InRpdGxlMTE5Njg0Ij5TaGVldC4xMzU2PC90aXRsZT4mI3hhOwkJCQk8cGF0aCBpZD0icGF0aDExOTY4NiIgaW5rc2NhcGU6Y29ubmVjdG9yLWN1cnZhdHVyZT0iMCIgc3R5bGU9ImZpbGw6IzAwNzlENjsiIGQ9Ik0yOC41MywyNC4wM2MyLjY0LDAsNS4xOSwwLjM0LDcuNTcsMS4wMiAgICAgIGMyLjM5LDAuNjgsNC42OSwxLjYxLDYuODIsMi44OWMyLjEyLDEuMjgsNCwyLjczLDUuNzksNC40M2MxLjcsMS43LDMuMjMsMy42Niw0LjQyLDUuNzljMS4yOCwyLjEzLDIuMjIsNC4zNCwyLjksNi44MSAgICAgIGMwLjY4LDIuMzksMS4wMiw0Ljk0LDEuMDIsNy41OGMwLDIuNjQtMC4zNCw1LjE5LTEuMDIsNy41OGMtMC42OCwyLjM4LTEuNjIsNC42OC0yLjksNi44MWMtMS4yNywyLjEzLTIuNzIsNC00LjQyLDUuNzkgICAgICBjLTEuNzEsMS43LTMuNjcsMy4yNC01Ljc5LDQuNDNjLTIuMTMsMS4yOC00LjM1LDIuMjEtNi44MiwyLjg5Yy0yLjM4LDAuNjktNC45MywxLjAzLTcuNTcsMS4wM3MtNS4yLTAuMzQtNy41OC0xLjAzICAgICAgYy0yLjM5LTAuNjgtNC42OS0xLjYxLTYuODEtMi44OWMtMi4xMy0xLjI4LTQuMDEtMi43My01LjgtNC40M2MtMS43LTEuNy0zLjIzLTMuNjYtNC40Mi01Ljc5Yy0xLjI4LTIuMTMtMi4yMi00LjM0LTIuOS02LjgxICAgICAgQzAuMzQsNTcuNzQsMCw1NS4xOSwwLDUyLjU1czAuMzQtNS4xOSwxLjAyLTcuNThjMC42OC0yLjM4LDEuNjItNC42OCwyLjktNi44MWMxLjI3LTIuMTMsMi43Mi00LDQuNDItNS43OSAgICAgIGMxLjcxLTEuNywzLjY3LTMuMjQsNS44LTQuNDNjMi4xMi0xLjI4LDQuMzQtMi4yMSw2LjgxLTIuODlTMjUuODksMjQuMDMsMjguNTMsMjQuMDN6IE0yOC41Myw3NS4zN2MyLjEyLDAsNC4wOC0wLjI1LDYuMDQtMC44NSAgICAgIGMxLjk2LTAuNTEsMy43NS0xLjI4LDUuNDUtMi4zYzEuNy0xLjAyLDMuMjQtMi4yMSw0LjYtMy41OGMxLjM2LTEuMzYsMi41NS0yLjk4LDMuNTgtNC41OWMxLjAyLTEuNzEsMS43OC0zLjUsMi4yOS01LjQ1ICAgICAgYzAuNTItMS45NiwwLjg2LTQuMDEsMC44Ni02LjEzYzAtMi4xMy0wLjI2LTQuMDktMC44Ni02LjA1Yy0wLjUxLTEuOTYtMS4yNy0zLjc1LTIuMjktNS40NWMtMS4wMy0xLjctMi4yMi0zLjI0LTMuNTgtNC42ICAgICAgYy0xLjM2LTEuMzYtMi45OC0yLjU1LTQuNi0zLjU3Yy0xLjctMS4wMy0zLjQ5LTEuNzktNS40NS0yLjNjLTEuOTYtMC41MS00LTAuODUtNi4wNC0wLjg1Yy0yLjEzLDAtNC4wOSwwLjI1LTYuMDUsMC44NSAgICAgIGMtMS45NiwwLjUxLTMuNzUsMS4yNy01LjQ1LDIuM2MtMS43LDEuMDItMy4yNCwyLjIxLTQuNiwzLjU3cy0yLjU1LDIuOTgtMy41Nyw0LjZjLTEuMDMsMS43LTEuNzksMy40OS0yLjMsNS40NSAgICAgIHMtMC44NSw0LTAuODUsNi4wNWMwLDIuMTIsMC4yNSw0LjA4LDAuODUsNi4wNGMwLjUxLDEuOTYsMS4yNywzLjc1LDIuMyw1LjQ1YzEuMDIsMS43LDIuMjEsMy4yNCwzLjU3LDQuNnMyLjk4LDIuNTUsNC42LDMuNTggICAgICBjMS43LDEuMDIsMy40OSwxLjc4LDUuNDUsMi4yOUMyNC4zNSw3NS4xMiwyNi40LDc1LjM3LDI4LjUzLDc1LjM3eiIvPiYjeGE7CQkJPC9nPiYjeGE7CQk8L2c+JiN4YTsJPC9nPiYjeGE7PC9nPiYjeGE7PC9zdmc+;labelPosition=center;align=center;imageBackground=none;fillStyle=solid;fontStyle=1" parent="1" vertex="1">
          <mxGeometry x="1209" y="622" width="30" height="30" as="geometry" />
        </mxCell>
        <mxCell id="lAx5uchjGVzoTK3gPOGS-59" value="7" style="shape=image;verticalLabelPosition=middle;labelBackgroundColor=#ffffff;verticalAlign=middle;aspect=fixed;imageAspect=0;image=data:image/svg+xml,PHN2ZyB4bWxuczpjYz0iaHR0cDovL2NyZWF0aXZlY29tbW9ucy5vcmcvbnMjIiB4bWxuczpkYz0iaHR0cDovL3B1cmwub3JnL2RjL2VsZW1lbnRzLzEuMS8iIHhtbG5zOmlua3NjYXBlPSJodHRwOi8vd3d3Lmlua3NjYXBlLm9yZy9uYW1lc3BhY2VzL2lua3NjYXBlIiB4bWxuczpyZGY9Imh0dHA6Ly93d3cudzMub3JnLzE5OTkvMDIvMjItcmRmLXN5bnRheC1ucyMiIHhtbG5zOnNvZGlwb2RpPSJodHRwOi8vc29kaXBvZGkuc291cmNlZm9yZ2UubmV0L0RURC9zb2RpcG9kaS0wLmR0ZCIgeG1sbnM6c3ZnPSJodHRwOi8vd3d3LnczLm9yZy8yMDAwL3N2ZyIgeG1sbnM9Imh0dHA6Ly93d3cudzMub3JnLzIwMDAvc3ZnIiB4bWxuczp4bGluaz0iaHR0cDovL3d3dy53My5vcmcvMTk5OS94bGluayIgdmVyc2lvbj0iMS4xIiBpZD0ic3ZnMTE5NjkzIiBpbmtzY2FwZTp2ZXJzaW9uPSIwLjkyLjMgKDI0MDU1NDYsIDIwMTgtMDMtMTEpIiBzb2RpcG9kaTpkb2NuYW1lPSJhenVyZV9jb3J0b25hX21hbmFnZW1lbnRfc3VpdGUuc3ZnIiB4PSIwcHgiIHk9IjBweCIgdmlld0JveD0iMCAwIDY1LjA2IDY1LjA2IiBzdHlsZT0iZW5hYmxlLWJhY2tncm91bmQ6bmV3IDAgMCA2NS4wNiA2NS4wNjsiIHhtbDpzcGFjZT0icHJlc2VydmUiPiYjeGE7PHNvZGlwb2RpOm5hbWVkdmlldyBib3JkZXJjb2xvcj0iIzY2NjY2NiIgYm9yZGVyb3BhY2l0eT0iMSIgZml0LW1hcmdpbi1ib3R0b209IjAiIGZpdC1tYXJnaW4tbGVmdD0iMCIgZml0LW1hcmdpbi1yaWdodD0iMCIgZml0LW1hcmdpbi10b3A9IjAiIGdyaWR0b2xlcmFuY2U9IjEwIiBndWlkZXRvbGVyYW5jZT0iMTAiIGlkPSJuYW1lZHZpZXcxMTk2OTUiIGlua3NjYXBlOmN1cnJlbnQtbGF5ZXI9InN2ZzExOTY5MyIgaW5rc2NhcGU6Y3g9IjQzLjM3MDIyNSIgaW5rc2NhcGU6Y3k9IjQzLjM3NTQyNSIgaW5rc2NhcGU6cGFnZW9wYWNpdHk9IjAiIGlua3NjYXBlOnBhZ2VzaGFkb3c9IjIiIGlua3NjYXBlOndpbmRvdy1oZWlnaHQ9IjEwMTciIGlua3NjYXBlOndpbmRvdy1tYXhpbWl6ZWQ9IjEiIGlua3NjYXBlOndpbmRvdy13aWR0aD0iMTkyMCIgaW5rc2NhcGU6d2luZG93LXg9Ii04IiBpbmtzY2FwZTp3aW5kb3cteT0iLTgiIGlua3NjYXBlOnpvb209IjguMDIwMjIwOSIgb2JqZWN0dG9sZXJhbmNlPSIxMCIgcGFnZWNvbG9yPSIjZmZmZmZmIiBzaG93Z3JpZD0iZmFsc2UiPiYjeGE7CTwvc29kaXBvZGk6bmFtZWR2aWV3PiYjeGE7PGcgaWQ9ImcxMTk2OTEiIHRyYW5zZm9ybT0idHJhbnNsYXRlKC04LjAxMDQ3LC04LjAwOTUzKSI+JiN4YTsJPHRpdGxlIGlkPSJ0aXRsZTExOTY3MyI+UGFnZS0xPC90aXRsZT4mI3hhOwk8ZyBpZD0iZ3JvdXAxMzUzLTEiIHRyYW5zZm9ybT0idHJhbnNsYXRlKDguMDEwNDcsLTguMDEwNDcpIj4mI3hhOwkJPHRpdGxlIGlkPSJ0aXRsZTExOTY3NSI+QXp1cmUgQ29ydG9uYSBNYW5hZ2VtZW50IFN1aXRlPC90aXRsZT4mI3hhOwkJPGcgaWQ9Imdyb3VwMTM1NC0yIj4mI3hhOwkJCTx0aXRsZSBpZD0idGl0bGUxMTk2NzciPlNoZWV0LjEzNTQ8L3RpdGxlPiYjeGE7CQkJPGcgaWQ9InNoYXBlMTM1NS0zIj4mI3hhOwkJCQk8dGl0bGUgaWQ9InRpdGxlMTE5Njc5Ij5TaGVldC4xMzU1PC90aXRsZT4mI3hhOwkJCQk8cGF0aCBpZD0icGF0aDExOTY4MSIgaW5rc2NhcGU6Y29ubmVjdG9yLWN1cnZhdHVyZT0iMCIgc3R5bGU9ImZpbGw6IzAwNzlENjtmaWxsLW9wYWNpdHk6MC40OyIgZD0iTTMyLjUzLDE2LjAyICAgICAgYzIuOTgsMCw1Ljg3LDAuNDMsOC42LDEuMTljMi44MSwwLjc3LDUuMzYsMS44OCw3Ljc1LDMuMzJjMi4zOCwxLjQ1LDQuNTksMy4xNSw2LjU1LDUuMTFzMy42Niw0LjE4LDUuMTEsNi41NiAgICAgIHMyLjU2LDUuMDIsMy4zMiw3Ljc1YzAuNzcsMi44MSwxLjIsNS42MiwxLjIsOC42YzAsMi45OC0wLjQzLDUuODctMS4yLDguNmMtMC43NiwyLjgxLTEuODcsNS4zNi0zLjMyLDcuNzUgICAgICBjLTEuNDUsMi4zOC0zLjE1LDQuNi01LjExLDYuNTVjLTEuOTYsMS45Ni00LjE3LDMuNjctNi41NSw1LjExYy0yLjM5LDEuNDUtNS4wMywyLjU2LTcuNzUsMy4zMmMtMi44MSwwLjc3LTUuNjIsMS4yLTguNiwxLjIgICAgICBzLTUuODgtMC40My04LjYtMS4yYy0yLjgxLTAuNzYtNS4zNy0xLjg3LTcuNzUtMy4zMmMtMi4zOS0xLjQ0LTQuNi0zLjE1LTYuNTYtNS4xMWMtMS45Ni0xLjk1LTMuNjYtNC4xNy01LjExLTYuNTUgICAgICBjLTEuNDQtMi4zOS0yLjU1LTUuMDMtMy4zMi03Ljc1QzAuNDMsNTQuNDIsMCw1MS41MywwLDQ4LjU1czAuNDMtNS44OCwxLjE5LTguNmMwLjc3LTIuODEsMS44OC01LjM3LDMuMzItNy43NSAgICAgIGMxLjQ1LTIuMzgsMy4xNS00LjYsNS4xMS02LjU2czQuMTctMy42Niw2LjU2LTUuMTFjMi4zOC0xLjQ0LDUuMDItMi41NSw3Ljc1LTMuMzJDMjYuNjUsMTYuNDUsMjkuNTUsMTYuMDIsMzIuNTMsMTYuMDJ6ICAgICAgIE0zMi41Myw3Ni42NWMyLjU1LDAsNS4xMS0wLjM0LDcuNDktMS4wMmMyLjM5LTAuNjgsNC42LTEuNjIsNi43My0yLjgxYzIuMDQtMS4yLDQtMi43Myw1LjctNC40M2MxLjcxLTEuNywzLjE1LTMuNTgsNC40My01LjcxICAgICAgYzEuMTktMi4wNCwyLjEzLTQuMzQsMi44MS02LjcyYzAuNjgtMi4zOSwxLjAyLTQuODYsMS4wMi03LjVzLTAuMzQtNS4xMS0xLjAyLTcuNDljLTAuNjgtMi4zOC0xLjYyLTQuNi0yLjgxLTYuNzMgICAgICBjLTEuMTktMi4wNC0yLjcyLTQtNC40My01LjdjLTEuNy0xLjctMy41Ny0zLjE1LTUuNy00LjQzYy0yLjA1LTEuMTktNC4zNC0yLjEzLTYuNzMtMi44MWMtMi4zOC0wLjY4LTQuODUtMS4wMi03LjQ5LTEuMDIgICAgICBjLTIuNTYsMC01LjExLDAuMzQtNy41LDEuMDJjLTIuMzgsMC42OC00LjU5LDEuNjItNi43MiwyLjgxYy0yLjA1LDEuMTktNCwyLjczLTUuNzEsNC40M2MtMS43LDEuNy0zLjE1LDMuNTctNC40Myw1LjcgICAgICBjLTEuMTksMi4wNS0yLjEyLDQuMzUtMi44MSw2LjczYy0wLjY4LDIuMzgtMS4wMiw0Ljg1LTEuMDIsNy40OXMwLjM0LDUuMTEsMS4wMiw3LjVjMC42OSwyLjM4LDEuNjIsNC41OSwyLjgxLDYuNzIgICAgICBjMS4yLDIuMDUsMi43Myw0LjAxLDQuNDMsNS43MWMxLjcxLDEuNywzLjU4LDMuMTUsNS43MSw0LjQzYzIuMDQsMS4xOSw0LjM0LDIuMTMsNi43MiwyLjgxQzI3LjUsNzYuMzEsMjkuOTcsNzYuNjUsMzIuNTMsNzYuNjUgICAgICB6Ii8+JiN4YTsJCQk8L2c+JiN4YTsJCQk8ZyBpZD0ic2hhcGUxMzU2LTUiIHRyYW5zZm9ybT0idHJhbnNsYXRlKDQuMDAyMDgsLTMuOTE2OTMpIj4mI3hhOwkJCQk8dGl0bGUgaWQ9InRpdGxlMTE5Njg0Ij5TaGVldC4xMzU2PC90aXRsZT4mI3hhOwkJCQk8cGF0aCBpZD0icGF0aDExOTY4NiIgaW5rc2NhcGU6Y29ubmVjdG9yLWN1cnZhdHVyZT0iMCIgc3R5bGU9ImZpbGw6IzAwNzlENjsiIGQ9Ik0yOC41MywyNC4wM2MyLjY0LDAsNS4xOSwwLjM0LDcuNTcsMS4wMiAgICAgIGMyLjM5LDAuNjgsNC42OSwxLjYxLDYuODIsMi44OWMyLjEyLDEuMjgsNCwyLjczLDUuNzksNC40M2MxLjcsMS43LDMuMjMsMy42Niw0LjQyLDUuNzljMS4yOCwyLjEzLDIuMjIsNC4zNCwyLjksNi44MSAgICAgIGMwLjY4LDIuMzksMS4wMiw0Ljk0LDEuMDIsNy41OGMwLDIuNjQtMC4zNCw1LjE5LTEuMDIsNy41OGMtMC42OCwyLjM4LTEuNjIsNC42OC0yLjksNi44MWMtMS4yNywyLjEzLTIuNzIsNC00LjQyLDUuNzkgICAgICBjLTEuNzEsMS43LTMuNjcsMy4yNC01Ljc5LDQuNDNjLTIuMTMsMS4yOC00LjM1LDIuMjEtNi44MiwyLjg5Yy0yLjM4LDAuNjktNC45MywxLjAzLTcuNTcsMS4wM3MtNS4yLTAuMzQtNy41OC0xLjAzICAgICAgYy0yLjM5LTAuNjgtNC42OS0xLjYxLTYuODEtMi44OWMtMi4xMy0xLjI4LTQuMDEtMi43My01LjgtNC40M2MtMS43LTEuNy0zLjIzLTMuNjYtNC40Mi01Ljc5Yy0xLjI4LTIuMTMtMi4yMi00LjM0LTIuOS02LjgxICAgICAgQzAuMzQsNTcuNzQsMCw1NS4xOSwwLDUyLjU1czAuMzQtNS4xOSwxLjAyLTcuNThjMC42OC0yLjM4LDEuNjItNC42OCwyLjktNi44MWMxLjI3LTIuMTMsMi43Mi00LDQuNDItNS43OSAgICAgIGMxLjcxLTEuNywzLjY3LTMuMjQsNS44LTQuNDNjMi4xMi0xLjI4LDQuMzQtMi4yMSw2LjgxLTIuODlTMjUuODksMjQuMDMsMjguNTMsMjQuMDN6IE0yOC41Myw3NS4zN2MyLjEyLDAsNC4wOC0wLjI1LDYuMDQtMC44NSAgICAgIGMxLjk2LTAuNTEsMy43NS0xLjI4LDUuNDUtMi4zYzEuNy0xLjAyLDMuMjQtMi4yMSw0LjYtMy41OGMxLjM2LTEuMzYsMi41NS0yLjk4LDMuNTgtNC41OWMxLjAyLTEuNzEsMS43OC0zLjUsMi4yOS01LjQ1ICAgICAgYzAuNTItMS45NiwwLjg2LTQuMDEsMC44Ni02LjEzYzAtMi4xMy0wLjI2LTQuMDktMC44Ni02LjA1Yy0wLjUxLTEuOTYtMS4yNy0zLjc1LTIuMjktNS40NWMtMS4wMy0xLjctMi4yMi0zLjI0LTMuNTgtNC42ICAgICAgYy0xLjM2LTEuMzYtMi45OC0yLjU1LTQuNi0zLjU3Yy0xLjctMS4wMy0zLjQ5LTEuNzktNS40NS0yLjNjLTEuOTYtMC41MS00LTAuODUtNi4wNC0wLjg1Yy0yLjEzLDAtNC4wOSwwLjI1LTYuMDUsMC44NSAgICAgIGMtMS45NiwwLjUxLTMuNzUsMS4yNy01LjQ1LDIuM2MtMS43LDEuMDItMy4yNCwyLjIxLTQuNiwzLjU3cy0yLjU1LDIuOTgtMy41Nyw0LjZjLTEuMDMsMS43LTEuNzksMy40OS0yLjMsNS40NSAgICAgIHMtMC44NSw0LTAuODUsNi4wNWMwLDIuMTIsMC4yNSw0LjA4LDAuODUsNi4wNGMwLjUxLDEuOTYsMS4yNywzLjc1LDIuMyw1LjQ1YzEuMDIsMS43LDIuMjEsMy4yNCwzLjU3LDQuNnMyLjk4LDIuNTUsNC42LDMuNTggICAgICBjMS43LDEuMDIsMy40OSwxLjc4LDUuNDUsMi4yOUMyNC4zNSw3NS4xMiwyNi40LDc1LjM3LDI4LjUzLDc1LjM3eiIvPiYjeGE7CQkJPC9nPiYjeGE7CQk8L2c+JiN4YTsJPC9nPiYjeGE7PC9nPiYjeGE7PC9zdmc+;labelPosition=center;align=center;imageBackground=none;fillStyle=solid;fontStyle=1" parent="1" vertex="1">
          <mxGeometry x="820" y="773" width="30" height="30" as="geometry" />
        </mxCell>
        <mxCell id="lAx5uchjGVzoTK3gPOGS-60" value="8" style="shape=image;verticalLabelPosition=middle;labelBackgroundColor=#ffffff;verticalAlign=middle;aspect=fixed;imageAspect=0;image=data:image/svg+xml,PHN2ZyB4bWxuczpjYz0iaHR0cDovL2NyZWF0aXZlY29tbW9ucy5vcmcvbnMjIiB4bWxuczpkYz0iaHR0cDovL3B1cmwub3JnL2RjL2VsZW1lbnRzLzEuMS8iIHhtbG5zOmlua3NjYXBlPSJodHRwOi8vd3d3Lmlua3NjYXBlLm9yZy9uYW1lc3BhY2VzL2lua3NjYXBlIiB4bWxuczpyZGY9Imh0dHA6Ly93d3cudzMub3JnLzE5OTkvMDIvMjItcmRmLXN5bnRheC1ucyMiIHhtbG5zOnNvZGlwb2RpPSJodHRwOi8vc29kaXBvZGkuc291cmNlZm9yZ2UubmV0L0RURC9zb2RpcG9kaS0wLmR0ZCIgeG1sbnM6c3ZnPSJodHRwOi8vd3d3LnczLm9yZy8yMDAwL3N2ZyIgeG1sbnM9Imh0dHA6Ly93d3cudzMub3JnLzIwMDAvc3ZnIiB4bWxuczp4bGluaz0iaHR0cDovL3d3dy53My5vcmcvMTk5OS94bGluayIgdmVyc2lvbj0iMS4xIiBpZD0ic3ZnMTE5NjkzIiBpbmtzY2FwZTp2ZXJzaW9uPSIwLjkyLjMgKDI0MDU1NDYsIDIwMTgtMDMtMTEpIiBzb2RpcG9kaTpkb2NuYW1lPSJhenVyZV9jb3J0b25hX21hbmFnZW1lbnRfc3VpdGUuc3ZnIiB4PSIwcHgiIHk9IjBweCIgdmlld0JveD0iMCAwIDY1LjA2IDY1LjA2IiBzdHlsZT0iZW5hYmxlLWJhY2tncm91bmQ6bmV3IDAgMCA2NS4wNiA2NS4wNjsiIHhtbDpzcGFjZT0icHJlc2VydmUiPiYjeGE7PHNvZGlwb2RpOm5hbWVkdmlldyBib3JkZXJjb2xvcj0iIzY2NjY2NiIgYm9yZGVyb3BhY2l0eT0iMSIgZml0LW1hcmdpbi1ib3R0b209IjAiIGZpdC1tYXJnaW4tbGVmdD0iMCIgZml0LW1hcmdpbi1yaWdodD0iMCIgZml0LW1hcmdpbi10b3A9IjAiIGdyaWR0b2xlcmFuY2U9IjEwIiBndWlkZXRvbGVyYW5jZT0iMTAiIGlkPSJuYW1lZHZpZXcxMTk2OTUiIGlua3NjYXBlOmN1cnJlbnQtbGF5ZXI9InN2ZzExOTY5MyIgaW5rc2NhcGU6Y3g9IjQzLjM3MDIyNSIgaW5rc2NhcGU6Y3k9IjQzLjM3NTQyNSIgaW5rc2NhcGU6cGFnZW9wYWNpdHk9IjAiIGlua3NjYXBlOnBhZ2VzaGFkb3c9IjIiIGlua3NjYXBlOndpbmRvdy1oZWlnaHQ9IjEwMTciIGlua3NjYXBlOndpbmRvdy1tYXhpbWl6ZWQ9IjEiIGlua3NjYXBlOndpbmRvdy13aWR0aD0iMTkyMCIgaW5rc2NhcGU6d2luZG93LXg9Ii04IiBpbmtzY2FwZTp3aW5kb3cteT0iLTgiIGlua3NjYXBlOnpvb209IjguMDIwMjIwOSIgb2JqZWN0dG9sZXJhbmNlPSIxMCIgcGFnZWNvbG9yPSIjZmZmZmZmIiBzaG93Z3JpZD0iZmFsc2UiPiYjeGE7CTwvc29kaXBvZGk6bmFtZWR2aWV3PiYjeGE7PGcgaWQ9ImcxMTk2OTEiIHRyYW5zZm9ybT0idHJhbnNsYXRlKC04LjAxMDQ3LC04LjAwOTUzKSI+JiN4YTsJPHRpdGxlIGlkPSJ0aXRsZTExOTY3MyI+UGFnZS0xPC90aXRsZT4mI3hhOwk8ZyBpZD0iZ3JvdXAxMzUzLTEiIHRyYW5zZm9ybT0idHJhbnNsYXRlKDguMDEwNDcsLTguMDEwNDcpIj4mI3hhOwkJPHRpdGxlIGlkPSJ0aXRsZTExOTY3NSI+QXp1cmUgQ29ydG9uYSBNYW5hZ2VtZW50IFN1aXRlPC90aXRsZT4mI3hhOwkJPGcgaWQ9Imdyb3VwMTM1NC0yIj4mI3hhOwkJCTx0aXRsZSBpZD0idGl0bGUxMTk2NzciPlNoZWV0LjEzNTQ8L3RpdGxlPiYjeGE7CQkJPGcgaWQ9InNoYXBlMTM1NS0zIj4mI3hhOwkJCQk8dGl0bGUgaWQ9InRpdGxlMTE5Njc5Ij5TaGVldC4xMzU1PC90aXRsZT4mI3hhOwkJCQk8cGF0aCBpZD0icGF0aDExOTY4MSIgaW5rc2NhcGU6Y29ubmVjdG9yLWN1cnZhdHVyZT0iMCIgc3R5bGU9ImZpbGw6IzAwNzlENjtmaWxsLW9wYWNpdHk6MC40OyIgZD0iTTMyLjUzLDE2LjAyICAgICAgYzIuOTgsMCw1Ljg3LDAuNDMsOC42LDEuMTljMi44MSwwLjc3LDUuMzYsMS44OCw3Ljc1LDMuMzJjMi4zOCwxLjQ1LDQuNTksMy4xNSw2LjU1LDUuMTFzMy42Niw0LjE4LDUuMTEsNi41NiAgICAgIHMyLjU2LDUuMDIsMy4zMiw3Ljc1YzAuNzcsMi44MSwxLjIsNS42MiwxLjIsOC42YzAsMi45OC0wLjQzLDUuODctMS4yLDguNmMtMC43NiwyLjgxLTEuODcsNS4zNi0zLjMyLDcuNzUgICAgICBjLTEuNDUsMi4zOC0zLjE1LDQuNi01LjExLDYuNTVjLTEuOTYsMS45Ni00LjE3LDMuNjctNi41NSw1LjExYy0yLjM5LDEuNDUtNS4wMywyLjU2LTcuNzUsMy4zMmMtMi44MSwwLjc3LTUuNjIsMS4yLTguNiwxLjIgICAgICBzLTUuODgtMC40My04LjYtMS4yYy0yLjgxLTAuNzYtNS4zNy0xLjg3LTcuNzUtMy4zMmMtMi4zOS0xLjQ0LTQuNi0zLjE1LTYuNTYtNS4xMWMtMS45Ni0xLjk1LTMuNjYtNC4xNy01LjExLTYuNTUgICAgICBjLTEuNDQtMi4zOS0yLjU1LTUuMDMtMy4zMi03Ljc1QzAuNDMsNTQuNDIsMCw1MS41MywwLDQ4LjU1czAuNDMtNS44OCwxLjE5LTguNmMwLjc3LTIuODEsMS44OC01LjM3LDMuMzItNy43NSAgICAgIGMxLjQ1LTIuMzgsMy4xNS00LjYsNS4xMS02LjU2czQuMTctMy42Niw2LjU2LTUuMTFjMi4zOC0xLjQ0LDUuMDItMi41NSw3Ljc1LTMuMzJDMjYuNjUsMTYuNDUsMjkuNTUsMTYuMDIsMzIuNTMsMTYuMDJ6ICAgICAgIE0zMi41Myw3Ni42NWMyLjU1LDAsNS4xMS0wLjM0LDcuNDktMS4wMmMyLjM5LTAuNjgsNC42LTEuNjIsNi43My0yLjgxYzIuMDQtMS4yLDQtMi43Myw1LjctNC40M2MxLjcxLTEuNywzLjE1LTMuNTgsNC40My01LjcxICAgICAgYzEuMTktMi4wNCwyLjEzLTQuMzQsMi44MS02LjcyYzAuNjgtMi4zOSwxLjAyLTQuODYsMS4wMi03LjVzLTAuMzQtNS4xMS0xLjAyLTcuNDljLTAuNjgtMi4zOC0xLjYyLTQuNi0yLjgxLTYuNzMgICAgICBjLTEuMTktMi4wNC0yLjcyLTQtNC40My01LjdjLTEuNy0xLjctMy41Ny0zLjE1LTUuNy00LjQzYy0yLjA1LTEuMTktNC4zNC0yLjEzLTYuNzMtMi44MWMtMi4zOC0wLjY4LTQuODUtMS4wMi03LjQ5LTEuMDIgICAgICBjLTIuNTYsMC01LjExLDAuMzQtNy41LDEuMDJjLTIuMzgsMC42OC00LjU5LDEuNjItNi43MiwyLjgxYy0yLjA1LDEuMTktNCwyLjczLTUuNzEsNC40M2MtMS43LDEuNy0zLjE1LDMuNTctNC40Myw1LjcgICAgICBjLTEuMTksMi4wNS0yLjEyLDQuMzUtMi44MSw2LjczYy0wLjY4LDIuMzgtMS4wMiw0Ljg1LTEuMDIsNy40OXMwLjM0LDUuMTEsMS4wMiw3LjVjMC42OSwyLjM4LDEuNjIsNC41OSwyLjgxLDYuNzIgICAgICBjMS4yLDIuMDUsMi43Myw0LjAxLDQuNDMsNS43MWMxLjcxLDEuNywzLjU4LDMuMTUsNS43MSw0LjQzYzIuMDQsMS4xOSw0LjM0LDIuMTMsNi43MiwyLjgxQzI3LjUsNzYuMzEsMjkuOTcsNzYuNjUsMzIuNTMsNzYuNjUgICAgICB6Ii8+JiN4YTsJCQk8L2c+JiN4YTsJCQk8ZyBpZD0ic2hhcGUxMzU2LTUiIHRyYW5zZm9ybT0idHJhbnNsYXRlKDQuMDAyMDgsLTMuOTE2OTMpIj4mI3hhOwkJCQk8dGl0bGUgaWQ9InRpdGxlMTE5Njg0Ij5TaGVldC4xMzU2PC90aXRsZT4mI3hhOwkJCQk8cGF0aCBpZD0icGF0aDExOTY4NiIgaW5rc2NhcGU6Y29ubmVjdG9yLWN1cnZhdHVyZT0iMCIgc3R5bGU9ImZpbGw6IzAwNzlENjsiIGQ9Ik0yOC41MywyNC4wM2MyLjY0LDAsNS4xOSwwLjM0LDcuNTcsMS4wMiAgICAgIGMyLjM5LDAuNjgsNC42OSwxLjYxLDYuODIsMi44OWMyLjEyLDEuMjgsNCwyLjczLDUuNzksNC40M2MxLjcsMS43LDMuMjMsMy42Niw0LjQyLDUuNzljMS4yOCwyLjEzLDIuMjIsNC4zNCwyLjksNi44MSAgICAgIGMwLjY4LDIuMzksMS4wMiw0Ljk0LDEuMDIsNy41OGMwLDIuNjQtMC4zNCw1LjE5LTEuMDIsNy41OGMtMC42OCwyLjM4LTEuNjIsNC42OC0yLjksNi44MWMtMS4yNywyLjEzLTIuNzIsNC00LjQyLDUuNzkgICAgICBjLTEuNzEsMS43LTMuNjcsMy4yNC01Ljc5LDQuNDNjLTIuMTMsMS4yOC00LjM1LDIuMjEtNi44MiwyLjg5Yy0yLjM4LDAuNjktNC45MywxLjAzLTcuNTcsMS4wM3MtNS4yLTAuMzQtNy41OC0xLjAzICAgICAgYy0yLjM5LTAuNjgtNC42OS0xLjYxLTYuODEtMi44OWMtMi4xMy0xLjI4LTQuMDEtMi43My01LjgtNC40M2MtMS43LTEuNy0zLjIzLTMuNjYtNC40Mi01Ljc5Yy0xLjI4LTIuMTMtMi4yMi00LjM0LTIuOS02LjgxICAgICAgQzAuMzQsNTcuNzQsMCw1NS4xOSwwLDUyLjU1czAuMzQtNS4xOSwxLjAyLTcuNThjMC42OC0yLjM4LDEuNjItNC42OCwyLjktNi44MWMxLjI3LTIuMTMsMi43Mi00LDQuNDItNS43OSAgICAgIGMxLjcxLTEuNywzLjY3LTMuMjQsNS44LTQuNDNjMi4xMi0xLjI4LDQuMzQtMi4yMSw2LjgxLTIuODlTMjUuODksMjQuMDMsMjguNTMsMjQuMDN6IE0yOC41Myw3NS4zN2MyLjEyLDAsNC4wOC0wLjI1LDYuMDQtMC44NSAgICAgIGMxLjk2LTAuNTEsMy43NS0xLjI4LDUuNDUtMi4zYzEuNy0xLjAyLDMuMjQtMi4yMSw0LjYtMy41OGMxLjM2LTEuMzYsMi41NS0yLjk4LDMuNTgtNC41OWMxLjAyLTEuNzEsMS43OC0zLjUsMi4yOS01LjQ1ICAgICAgYzAuNTItMS45NiwwLjg2LTQuMDEsMC44Ni02LjEzYzAtMi4xMy0wLjI2LTQuMDktMC44Ni02LjA1Yy0wLjUxLTEuOTYtMS4yNy0zLjc1LTIuMjktNS40NWMtMS4wMy0xLjctMi4yMi0zLjI0LTMuNTgtNC42ICAgICAgYy0xLjM2LTEuMzYtMi45OC0yLjU1LTQuNi0zLjU3Yy0xLjctMS4wMy0zLjQ5LTEuNzktNS40NS0yLjNjLTEuOTYtMC41MS00LTAuODUtNi4wNC0wLjg1Yy0yLjEzLDAtNC4wOSwwLjI1LTYuMDUsMC44NSAgICAgIGMtMS45NiwwLjUxLTMuNzUsMS4yNy01LjQ1LDIuM2MtMS43LDEuMDItMy4yNCwyLjIxLTQuNiwzLjU3cy0yLjU1LDIuOTgtMy41Nyw0LjZjLTEuMDMsMS43LTEuNzksMy40OS0yLjMsNS40NSAgICAgIHMtMC44NSw0LTAuODUsNi4wNWMwLDIuMTIsMC4yNSw0LjA4LDAuODUsNi4wNGMwLjUxLDEuOTYsMS4yNywzLjc1LDIuMyw1LjQ1YzEuMDIsMS43LDIuMjEsMy4yNCwzLjU3LDQuNnMyLjk4LDIuNTUsNC42LDMuNTggICAgICBjMS43LDEuMDIsMy40OSwxLjc4LDUuNDUsMi4yOUMyNC4zNSw3NS4xMiwyNi40LDc1LjM3LDI4LjUzLDc1LjM3eiIvPiYjeGE7CQkJPC9nPiYjeGE7CQk8L2c+JiN4YTsJPC9nPiYjeGE7PC9nPiYjeGE7PC9zdmc+;labelPosition=center;align=center;imageBackground=none;fillStyle=solid;fontStyle=1" parent="1" vertex="1">
          <mxGeometry x="666.5" y="921" width="30" height="30" as="geometry" />
        </mxCell>
        <mxCell id="lAx5uchjGVzoTK3gPOGS-61" value="9" style="shape=image;verticalLabelPosition=middle;labelBackgroundColor=#ffffff;verticalAlign=middle;aspect=fixed;imageAspect=0;image=data:image/svg+xml,PHN2ZyB4bWxuczpjYz0iaHR0cDovL2NyZWF0aXZlY29tbW9ucy5vcmcvbnMjIiB4bWxuczpkYz0iaHR0cDovL3B1cmwub3JnL2RjL2VsZW1lbnRzLzEuMS8iIHhtbG5zOmlua3NjYXBlPSJodHRwOi8vd3d3Lmlua3NjYXBlLm9yZy9uYW1lc3BhY2VzL2lua3NjYXBlIiB4bWxuczpyZGY9Imh0dHA6Ly93d3cudzMub3JnLzE5OTkvMDIvMjItcmRmLXN5bnRheC1ucyMiIHhtbG5zOnNvZGlwb2RpPSJodHRwOi8vc29kaXBvZGkuc291cmNlZm9yZ2UubmV0L0RURC9zb2RpcG9kaS0wLmR0ZCIgeG1sbnM6c3ZnPSJodHRwOi8vd3d3LnczLm9yZy8yMDAwL3N2ZyIgeG1sbnM9Imh0dHA6Ly93d3cudzMub3JnLzIwMDAvc3ZnIiB4bWxuczp4bGluaz0iaHR0cDovL3d3dy53My5vcmcvMTk5OS94bGluayIgdmVyc2lvbj0iMS4xIiBpZD0ic3ZnMTE5NjkzIiBpbmtzY2FwZTp2ZXJzaW9uPSIwLjkyLjMgKDI0MDU1NDYsIDIwMTgtMDMtMTEpIiBzb2RpcG9kaTpkb2NuYW1lPSJhenVyZV9jb3J0b25hX21hbmFnZW1lbnRfc3VpdGUuc3ZnIiB4PSIwcHgiIHk9IjBweCIgdmlld0JveD0iMCAwIDY1LjA2IDY1LjA2IiBzdHlsZT0iZW5hYmxlLWJhY2tncm91bmQ6bmV3IDAgMCA2NS4wNiA2NS4wNjsiIHhtbDpzcGFjZT0icHJlc2VydmUiPiYjeGE7PHNvZGlwb2RpOm5hbWVkdmlldyBib3JkZXJjb2xvcj0iIzY2NjY2NiIgYm9yZGVyb3BhY2l0eT0iMSIgZml0LW1hcmdpbi1ib3R0b209IjAiIGZpdC1tYXJnaW4tbGVmdD0iMCIgZml0LW1hcmdpbi1yaWdodD0iMCIgZml0LW1hcmdpbi10b3A9IjAiIGdyaWR0b2xlcmFuY2U9IjEwIiBndWlkZXRvbGVyYW5jZT0iMTAiIGlkPSJuYW1lZHZpZXcxMTk2OTUiIGlua3NjYXBlOmN1cnJlbnQtbGF5ZXI9InN2ZzExOTY5MyIgaW5rc2NhcGU6Y3g9IjQzLjM3MDIyNSIgaW5rc2NhcGU6Y3k9IjQzLjM3NTQyNSIgaW5rc2NhcGU6cGFnZW9wYWNpdHk9IjAiIGlua3NjYXBlOnBhZ2VzaGFkb3c9IjIiIGlua3NjYXBlOndpbmRvdy1oZWlnaHQ9IjEwMTciIGlua3NjYXBlOndpbmRvdy1tYXhpbWl6ZWQ9IjEiIGlua3NjYXBlOndpbmRvdy13aWR0aD0iMTkyMCIgaW5rc2NhcGU6d2luZG93LXg9Ii04IiBpbmtzY2FwZTp3aW5kb3cteT0iLTgiIGlua3NjYXBlOnpvb209IjguMDIwMjIwOSIgb2JqZWN0dG9sZXJhbmNlPSIxMCIgcGFnZWNvbG9yPSIjZmZmZmZmIiBzaG93Z3JpZD0iZmFsc2UiPiYjeGE7CTwvc29kaXBvZGk6bmFtZWR2aWV3PiYjeGE7PGcgaWQ9ImcxMTk2OTEiIHRyYW5zZm9ybT0idHJhbnNsYXRlKC04LjAxMDQ3LC04LjAwOTUzKSI+JiN4YTsJPHRpdGxlIGlkPSJ0aXRsZTExOTY3MyI+UGFnZS0xPC90aXRsZT4mI3hhOwk8ZyBpZD0iZ3JvdXAxMzUzLTEiIHRyYW5zZm9ybT0idHJhbnNsYXRlKDguMDEwNDcsLTguMDEwNDcpIj4mI3hhOwkJPHRpdGxlIGlkPSJ0aXRsZTExOTY3NSI+QXp1cmUgQ29ydG9uYSBNYW5hZ2VtZW50IFN1aXRlPC90aXRsZT4mI3hhOwkJPGcgaWQ9Imdyb3VwMTM1NC0yIj4mI3hhOwkJCTx0aXRsZSBpZD0idGl0bGUxMTk2NzciPlNoZWV0LjEzNTQ8L3RpdGxlPiYjeGE7CQkJPGcgaWQ9InNoYXBlMTM1NS0zIj4mI3hhOwkJCQk8dGl0bGUgaWQ9InRpdGxlMTE5Njc5Ij5TaGVldC4xMzU1PC90aXRsZT4mI3hhOwkJCQk8cGF0aCBpZD0icGF0aDExOTY4MSIgaW5rc2NhcGU6Y29ubmVjdG9yLWN1cnZhdHVyZT0iMCIgc3R5bGU9ImZpbGw6IzAwNzlENjtmaWxsLW9wYWNpdHk6MC40OyIgZD0iTTMyLjUzLDE2LjAyICAgICAgYzIuOTgsMCw1Ljg3LDAuNDMsOC42LDEuMTljMi44MSwwLjc3LDUuMzYsMS44OCw3Ljc1LDMuMzJjMi4zOCwxLjQ1LDQuNTksMy4xNSw2LjU1LDUuMTFzMy42Niw0LjE4LDUuMTEsNi41NiAgICAgIHMyLjU2LDUuMDIsMy4zMiw3Ljc1YzAuNzcsMi44MSwxLjIsNS42MiwxLjIsOC42YzAsMi45OC0wLjQzLDUuODctMS4yLDguNmMtMC43NiwyLjgxLTEuODcsNS4zNi0zLjMyLDcuNzUgICAgICBjLTEuNDUsMi4zOC0zLjE1LDQuNi01LjExLDYuNTVjLTEuOTYsMS45Ni00LjE3LDMuNjctNi41NSw1LjExYy0yLjM5LDEuNDUtNS4wMywyLjU2LTcuNzUsMy4zMmMtMi44MSwwLjc3LTUuNjIsMS4yLTguNiwxLjIgICAgICBzLTUuODgtMC40My04LjYtMS4yYy0yLjgxLTAuNzYtNS4zNy0xLjg3LTcuNzUtMy4zMmMtMi4zOS0xLjQ0LTQuNi0zLjE1LTYuNTYtNS4xMWMtMS45Ni0xLjk1LTMuNjYtNC4xNy01LjExLTYuNTUgICAgICBjLTEuNDQtMi4zOS0yLjU1LTUuMDMtMy4zMi03Ljc1QzAuNDMsNTQuNDIsMCw1MS41MywwLDQ4LjU1czAuNDMtNS44OCwxLjE5LTguNmMwLjc3LTIuODEsMS44OC01LjM3LDMuMzItNy43NSAgICAgIGMxLjQ1LTIuMzgsMy4xNS00LjYsNS4xMS02LjU2czQuMTctMy42Niw2LjU2LTUuMTFjMi4zOC0xLjQ0LDUuMDItMi41NSw3Ljc1LTMuMzJDMjYuNjUsMTYuNDUsMjkuNTUsMTYuMDIsMzIuNTMsMTYuMDJ6ICAgICAgIE0zMi41Myw3Ni42NWMyLjU1LDAsNS4xMS0wLjM0LDcuNDktMS4wMmMyLjM5LTAuNjgsNC42LTEuNjIsNi43My0yLjgxYzIuMDQtMS4yLDQtMi43Myw1LjctNC40M2MxLjcxLTEuNywzLjE1LTMuNTgsNC40My01LjcxICAgICAgYzEuMTktMi4wNCwyLjEzLTQuMzQsMi44MS02LjcyYzAuNjgtMi4zOSwxLjAyLTQuODYsMS4wMi03LjVzLTAuMzQtNS4xMS0xLjAyLTcuNDljLTAuNjgtMi4zOC0xLjYyLTQuNi0yLjgxLTYuNzMgICAgICBjLTEuMTktMi4wNC0yLjcyLTQtNC40My01LjdjLTEuNy0xLjctMy41Ny0zLjE1LTUuNy00LjQzYy0yLjA1LTEuMTktNC4zNC0yLjEzLTYuNzMtMi44MWMtMi4zOC0wLjY4LTQuODUtMS4wMi03LjQ5LTEuMDIgICAgICBjLTIuNTYsMC01LjExLDAuMzQtNy41LDEuMDJjLTIuMzgsMC42OC00LjU5LDEuNjItNi43MiwyLjgxYy0yLjA1LDEuMTktNCwyLjczLTUuNzEsNC40M2MtMS43LDEuNy0zLjE1LDMuNTctNC40Myw1LjcgICAgICBjLTEuMTksMi4wNS0yLjEyLDQuMzUtMi44MSw2LjczYy0wLjY4LDIuMzgtMS4wMiw0Ljg1LTEuMDIsNy40OXMwLjM0LDUuMTEsMS4wMiw3LjVjMC42OSwyLjM4LDEuNjIsNC41OSwyLjgxLDYuNzIgICAgICBjMS4yLDIuMDUsMi43Myw0LjAxLDQuNDMsNS43MWMxLjcxLDEuNywzLjU4LDMuMTUsNS43MSw0LjQzYzIuMDQsMS4xOSw0LjM0LDIuMTMsNi43MiwyLjgxQzI3LjUsNzYuMzEsMjkuOTcsNzYuNjUsMzIuNTMsNzYuNjUgICAgICB6Ii8+JiN4YTsJCQk8L2c+JiN4YTsJCQk8ZyBpZD0ic2hhcGUxMzU2LTUiIHRyYW5zZm9ybT0idHJhbnNsYXRlKDQuMDAyMDgsLTMuOTE2OTMpIj4mI3hhOwkJCQk8dGl0bGUgaWQ9InRpdGxlMTE5Njg0Ij5TaGVldC4xMzU2PC90aXRsZT4mI3hhOwkJCQk8cGF0aCBpZD0icGF0aDExOTY4NiIgaW5rc2NhcGU6Y29ubmVjdG9yLWN1cnZhdHVyZT0iMCIgc3R5bGU9ImZpbGw6IzAwNzlENjsiIGQ9Ik0yOC41MywyNC4wM2MyLjY0LDAsNS4xOSwwLjM0LDcuNTcsMS4wMiAgICAgIGMyLjM5LDAuNjgsNC42OSwxLjYxLDYuODIsMi44OWMyLjEyLDEuMjgsNCwyLjczLDUuNzksNC40M2MxLjcsMS43LDMuMjMsMy42Niw0LjQyLDUuNzljMS4yOCwyLjEzLDIuMjIsNC4zNCwyLjksNi44MSAgICAgIGMwLjY4LDIuMzksMS4wMiw0Ljk0LDEuMDIsNy41OGMwLDIuNjQtMC4zNCw1LjE5LTEuMDIsNy41OGMtMC42OCwyLjM4LTEuNjIsNC42OC0yLjksNi44MWMtMS4yNywyLjEzLTIuNzIsNC00LjQyLDUuNzkgICAgICBjLTEuNzEsMS43LTMuNjcsMy4yNC01Ljc5LDQuNDNjLTIuMTMsMS4yOC00LjM1LDIuMjEtNi44MiwyLjg5Yy0yLjM4LDAuNjktNC45MywxLjAzLTcuNTcsMS4wM3MtNS4yLTAuMzQtNy41OC0xLjAzICAgICAgYy0yLjM5LTAuNjgtNC42OS0xLjYxLTYuODEtMi44OWMtMi4xMy0xLjI4LTQuMDEtMi43My01LjgtNC40M2MtMS43LTEuNy0zLjIzLTMuNjYtNC40Mi01Ljc5Yy0xLjI4LTIuMTMtMi4yMi00LjM0LTIuOS02LjgxICAgICAgQzAuMzQsNTcuNzQsMCw1NS4xOSwwLDUyLjU1czAuMzQtNS4xOSwxLjAyLTcuNThjMC42OC0yLjM4LDEuNjItNC42OCwyLjktNi44MWMxLjI3LTIuMTMsMi43Mi00LDQuNDItNS43OSAgICAgIGMxLjcxLTEuNywzLjY3LTMuMjQsNS44LTQuNDNjMi4xMi0xLjI4LDQuMzQtMi4yMSw2LjgxLTIuODlTMjUuODksMjQuMDMsMjguNTMsMjQuMDN6IE0yOC41Myw3NS4zN2MyLjEyLDAsNC4wOC0wLjI1LDYuMDQtMC44NSAgICAgIGMxLjk2LTAuNTEsMy43NS0xLjI4LDUuNDUtMi4zYzEuNy0xLjAyLDMuMjQtMi4yMSw0LjYtMy41OGMxLjM2LTEuMzYsMi41NS0yLjk4LDMuNTgtNC41OWMxLjAyLTEuNzEsMS43OC0zLjUsMi4yOS01LjQ1ICAgICAgYzAuNTItMS45NiwwLjg2LTQuMDEsMC44Ni02LjEzYzAtMi4xMy0wLjI2LTQuMDktMC44Ni02LjA1Yy0wLjUxLTEuOTYtMS4yNy0zLjc1LTIuMjktNS40NWMtMS4wMy0xLjctMi4yMi0zLjI0LTMuNTgtNC42ICAgICAgYy0xLjM2LTEuMzYtMi45OC0yLjU1LTQuNi0zLjU3Yy0xLjctMS4wMy0zLjQ5LTEuNzktNS40NS0yLjNjLTEuOTYtMC41MS00LTAuODUtNi4wNC0wLjg1Yy0yLjEzLDAtNC4wOSwwLjI1LTYuMDUsMC44NSAgICAgIGMtMS45NiwwLjUxLTMuNzUsMS4yNy01LjQ1LDIuM2MtMS43LDEuMDItMy4yNCwyLjIxLTQuNiwzLjU3cy0yLjU1LDIuOTgtMy41Nyw0LjZjLTEuMDMsMS43LTEuNzksMy40OS0yLjMsNS40NSAgICAgIHMtMC44NSw0LTAuODUsNi4wNWMwLDIuMTIsMC4yNSw0LjA4LDAuODUsNi4wNGMwLjUxLDEuOTYsMS4yNywzLjc1LDIuMyw1LjQ1YzEuMDIsMS43LDIuMjEsMy4yNCwzLjU3LDQuNnMyLjk4LDIuNTUsNC42LDMuNTggICAgICBjMS43LDEuMDIsMy40OSwxLjc4LDUuNDUsMi4yOUMyNC4zNSw3NS4xMiwyNi40LDc1LjM3LDI4LjUzLDc1LjM3eiIvPiYjeGE7CQkJPC9nPiYjeGE7CQk8L2c+JiN4YTsJPC9nPiYjeGE7PC9nPiYjeGE7PC9zdmc+;labelPosition=center;align=center;imageBackground=none;fillStyle=solid;fontStyle=1" parent="1" vertex="1">
          <mxGeometry x="460" y="921" width="30" height="30" as="geometry" />
        </mxCell>
        <mxCell id="lAx5uchjGVzoTK3gPOGS-62" value="10" style="shape=image;verticalLabelPosition=middle;labelBackgroundColor=#ffffff;verticalAlign=middle;aspect=fixed;imageAspect=0;image=data:image/svg+xml,PHN2ZyB4bWxuczpjYz0iaHR0cDovL2NyZWF0aXZlY29tbW9ucy5vcmcvbnMjIiB4bWxuczpkYz0iaHR0cDovL3B1cmwub3JnL2RjL2VsZW1lbnRzLzEuMS8iIHhtbG5zOmlua3NjYXBlPSJodHRwOi8vd3d3Lmlua3NjYXBlLm9yZy9uYW1lc3BhY2VzL2lua3NjYXBlIiB4bWxuczpyZGY9Imh0dHA6Ly93d3cudzMub3JnLzE5OTkvMDIvMjItcmRmLXN5bnRheC1ucyMiIHhtbG5zOnNvZGlwb2RpPSJodHRwOi8vc29kaXBvZGkuc291cmNlZm9yZ2UubmV0L0RURC9zb2RpcG9kaS0wLmR0ZCIgeG1sbnM6c3ZnPSJodHRwOi8vd3d3LnczLm9yZy8yMDAwL3N2ZyIgeG1sbnM9Imh0dHA6Ly93d3cudzMub3JnLzIwMDAvc3ZnIiB4bWxuczp4bGluaz0iaHR0cDovL3d3dy53My5vcmcvMTk5OS94bGluayIgdmVyc2lvbj0iMS4xIiBpZD0ic3ZnMTE5NjkzIiBpbmtzY2FwZTp2ZXJzaW9uPSIwLjkyLjMgKDI0MDU1NDYsIDIwMTgtMDMtMTEpIiBzb2RpcG9kaTpkb2NuYW1lPSJhenVyZV9jb3J0b25hX21hbmFnZW1lbnRfc3VpdGUuc3ZnIiB4PSIwcHgiIHk9IjBweCIgdmlld0JveD0iMCAwIDY1LjA2IDY1LjA2IiBzdHlsZT0iZW5hYmxlLWJhY2tncm91bmQ6bmV3IDAgMCA2NS4wNiA2NS4wNjsiIHhtbDpzcGFjZT0icHJlc2VydmUiPiYjeGE7PHNvZGlwb2RpOm5hbWVkdmlldyBib3JkZXJjb2xvcj0iIzY2NjY2NiIgYm9yZGVyb3BhY2l0eT0iMSIgZml0LW1hcmdpbi1ib3R0b209IjAiIGZpdC1tYXJnaW4tbGVmdD0iMCIgZml0LW1hcmdpbi1yaWdodD0iMCIgZml0LW1hcmdpbi10b3A9IjAiIGdyaWR0b2xlcmFuY2U9IjEwIiBndWlkZXRvbGVyYW5jZT0iMTAiIGlkPSJuYW1lZHZpZXcxMTk2OTUiIGlua3NjYXBlOmN1cnJlbnQtbGF5ZXI9InN2ZzExOTY5MyIgaW5rc2NhcGU6Y3g9IjQzLjM3MDIyNSIgaW5rc2NhcGU6Y3k9IjQzLjM3NTQyNSIgaW5rc2NhcGU6cGFnZW9wYWNpdHk9IjAiIGlua3NjYXBlOnBhZ2VzaGFkb3c9IjIiIGlua3NjYXBlOndpbmRvdy1oZWlnaHQ9IjEwMTciIGlua3NjYXBlOndpbmRvdy1tYXhpbWl6ZWQ9IjEiIGlua3NjYXBlOndpbmRvdy13aWR0aD0iMTkyMCIgaW5rc2NhcGU6d2luZG93LXg9Ii04IiBpbmtzY2FwZTp3aW5kb3cteT0iLTgiIGlua3NjYXBlOnpvb209IjguMDIwMjIwOSIgb2JqZWN0dG9sZXJhbmNlPSIxMCIgcGFnZWNvbG9yPSIjZmZmZmZmIiBzaG93Z3JpZD0iZmFsc2UiPiYjeGE7CTwvc29kaXBvZGk6bmFtZWR2aWV3PiYjeGE7PGcgaWQ9ImcxMTk2OTEiIHRyYW5zZm9ybT0idHJhbnNsYXRlKC04LjAxMDQ3LC04LjAwOTUzKSI+JiN4YTsJPHRpdGxlIGlkPSJ0aXRsZTExOTY3MyI+UGFnZS0xPC90aXRsZT4mI3hhOwk8ZyBpZD0iZ3JvdXAxMzUzLTEiIHRyYW5zZm9ybT0idHJhbnNsYXRlKDguMDEwNDcsLTguMDEwNDcpIj4mI3hhOwkJPHRpdGxlIGlkPSJ0aXRsZTExOTY3NSI+QXp1cmUgQ29ydG9uYSBNYW5hZ2VtZW50IFN1aXRlPC90aXRsZT4mI3hhOwkJPGcgaWQ9Imdyb3VwMTM1NC0yIj4mI3hhOwkJCTx0aXRsZSBpZD0idGl0bGUxMTk2NzciPlNoZWV0LjEzNTQ8L3RpdGxlPiYjeGE7CQkJPGcgaWQ9InNoYXBlMTM1NS0zIj4mI3hhOwkJCQk8dGl0bGUgaWQ9InRpdGxlMTE5Njc5Ij5TaGVldC4xMzU1PC90aXRsZT4mI3hhOwkJCQk8cGF0aCBpZD0icGF0aDExOTY4MSIgaW5rc2NhcGU6Y29ubmVjdG9yLWN1cnZhdHVyZT0iMCIgc3R5bGU9ImZpbGw6IzAwNzlENjtmaWxsLW9wYWNpdHk6MC40OyIgZD0iTTMyLjUzLDE2LjAyICAgICAgYzIuOTgsMCw1Ljg3LDAuNDMsOC42LDEuMTljMi44MSwwLjc3LDUuMzYsMS44OCw3Ljc1LDMuMzJjMi4zOCwxLjQ1LDQuNTksMy4xNSw2LjU1LDUuMTFzMy42Niw0LjE4LDUuMTEsNi41NiAgICAgIHMyLjU2LDUuMDIsMy4zMiw3Ljc1YzAuNzcsMi44MSwxLjIsNS42MiwxLjIsOC42YzAsMi45OC0wLjQzLDUuODctMS4yLDguNmMtMC43NiwyLjgxLTEuODcsNS4zNi0zLjMyLDcuNzUgICAgICBjLTEuNDUsMi4zOC0zLjE1LDQuNi01LjExLDYuNTVjLTEuOTYsMS45Ni00LjE3LDMuNjctNi41NSw1LjExYy0yLjM5LDEuNDUtNS4wMywyLjU2LTcuNzUsMy4zMmMtMi44MSwwLjc3LTUuNjIsMS4yLTguNiwxLjIgICAgICBzLTUuODgtMC40My04LjYtMS4yYy0yLjgxLTAuNzYtNS4zNy0xLjg3LTcuNzUtMy4zMmMtMi4zOS0xLjQ0LTQuNi0zLjE1LTYuNTYtNS4xMWMtMS45Ni0xLjk1LTMuNjYtNC4xNy01LjExLTYuNTUgICAgICBjLTEuNDQtMi4zOS0yLjU1LTUuMDMtMy4zMi03Ljc1QzAuNDMsNTQuNDIsMCw1MS41MywwLDQ4LjU1czAuNDMtNS44OCwxLjE5LTguNmMwLjc3LTIuODEsMS44OC01LjM3LDMuMzItNy43NSAgICAgIGMxLjQ1LTIuMzgsMy4xNS00LjYsNS4xMS02LjU2czQuMTctMy42Niw2LjU2LTUuMTFjMi4zOC0xLjQ0LDUuMDItMi41NSw3Ljc1LTMuMzJDMjYuNjUsMTYuNDUsMjkuNTUsMTYuMDIsMzIuNTMsMTYuMDJ6ICAgICAgIE0zMi41Myw3Ni42NWMyLjU1LDAsNS4xMS0wLjM0LDcuNDktMS4wMmMyLjM5LTAuNjgsNC42LTEuNjIsNi43My0yLjgxYzIuMDQtMS4yLDQtMi43Myw1LjctNC40M2MxLjcxLTEuNywzLjE1LTMuNTgsNC40My01LjcxICAgICAgYzEuMTktMi4wNCwyLjEzLTQuMzQsMi44MS02LjcyYzAuNjgtMi4zOSwxLjAyLTQuODYsMS4wMi03LjVzLTAuMzQtNS4xMS0xLjAyLTcuNDljLTAuNjgtMi4zOC0xLjYyLTQuNi0yLjgxLTYuNzMgICAgICBjLTEuMTktMi4wNC0yLjcyLTQtNC40My01LjdjLTEuNy0xLjctMy41Ny0zLjE1LTUuNy00LjQzYy0yLjA1LTEuMTktNC4zNC0yLjEzLTYuNzMtMi44MWMtMi4zOC0wLjY4LTQuODUtMS4wMi03LjQ5LTEuMDIgICAgICBjLTIuNTYsMC01LjExLDAuMzQtNy41LDEuMDJjLTIuMzgsMC42OC00LjU5LDEuNjItNi43MiwyLjgxYy0yLjA1LDEuMTktNCwyLjczLTUuNzEsNC40M2MtMS43LDEuNy0zLjE1LDMuNTctNC40Myw1LjcgICAgICBjLTEuMTksMi4wNS0yLjEyLDQuMzUtMi44MSw2LjczYy0wLjY4LDIuMzgtMS4wMiw0Ljg1LTEuMDIsNy40OXMwLjM0LDUuMTEsMS4wMiw3LjVjMC42OSwyLjM4LDEuNjIsNC41OSwyLjgxLDYuNzIgICAgICBjMS4yLDIuMDUsMi43Myw0LjAxLDQuNDMsNS43MWMxLjcxLDEuNywzLjU4LDMuMTUsNS43MSw0LjQzYzIuMDQsMS4xOSw0LjM0LDIuMTMsNi43MiwyLjgxQzI3LjUsNzYuMzEsMjkuOTcsNzYuNjUsMzIuNTMsNzYuNjUgICAgICB6Ii8+JiN4YTsJCQk8L2c+JiN4YTsJCQk8ZyBpZD0ic2hhcGUxMzU2LTUiIHRyYW5zZm9ybT0idHJhbnNsYXRlKDQuMDAyMDgsLTMuOTE2OTMpIj4mI3hhOwkJCQk8dGl0bGUgaWQ9InRpdGxlMTE5Njg0Ij5TaGVldC4xMzU2PC90aXRsZT4mI3hhOwkJCQk8cGF0aCBpZD0icGF0aDExOTY4NiIgaW5rc2NhcGU6Y29ubmVjdG9yLWN1cnZhdHVyZT0iMCIgc3R5bGU9ImZpbGw6IzAwNzlENjsiIGQ9Ik0yOC41MywyNC4wM2MyLjY0LDAsNS4xOSwwLjM0LDcuNTcsMS4wMiAgICAgIGMyLjM5LDAuNjgsNC42OSwxLjYxLDYuODIsMi44OWMyLjEyLDEuMjgsNCwyLjczLDUuNzksNC40M2MxLjcsMS43LDMuMjMsMy42Niw0LjQyLDUuNzljMS4yOCwyLjEzLDIuMjIsNC4zNCwyLjksNi44MSAgICAgIGMwLjY4LDIuMzksMS4wMiw0Ljk0LDEuMDIsNy41OGMwLDIuNjQtMC4zNCw1LjE5LTEuMDIsNy41OGMtMC42OCwyLjM4LTEuNjIsNC42OC0yLjksNi44MWMtMS4yNywyLjEzLTIuNzIsNC00LjQyLDUuNzkgICAgICBjLTEuNzEsMS43LTMuNjcsMy4yNC01Ljc5LDQuNDNjLTIuMTMsMS4yOC00LjM1LDIuMjEtNi44MiwyLjg5Yy0yLjM4LDAuNjktNC45MywxLjAzLTcuNTcsMS4wM3MtNS4yLTAuMzQtNy41OC0xLjAzICAgICAgYy0yLjM5LTAuNjgtNC42OS0xLjYxLTYuODEtMi44OWMtMi4xMy0xLjI4LTQuMDEtMi43My01LjgtNC40M2MtMS43LTEuNy0zLjIzLTMuNjYtNC40Mi01Ljc5Yy0xLjI4LTIuMTMtMi4yMi00LjM0LTIuOS02LjgxICAgICAgQzAuMzQsNTcuNzQsMCw1NS4xOSwwLDUyLjU1czAuMzQtNS4xOSwxLjAyLTcuNThjMC42OC0yLjM4LDEuNjItNC42OCwyLjktNi44MWMxLjI3LTIuMTMsMi43Mi00LDQuNDItNS43OSAgICAgIGMxLjcxLTEuNywzLjY3LTMuMjQsNS44LTQuNDNjMi4xMi0xLjI4LDQuMzQtMi4yMSw2LjgxLTIuODlTMjUuODksMjQuMDMsMjguNTMsMjQuMDN6IE0yOC41Myw3NS4zN2MyLjEyLDAsNC4wOC0wLjI1LDYuMDQtMC44NSAgICAgIGMxLjk2LTAuNTEsMy43NS0xLjI4LDUuNDUtMi4zYzEuNy0xLjAyLDMuMjQtMi4yMSw0LjYtMy41OGMxLjM2LTEuMzYsMi41NS0yLjk4LDMuNTgtNC41OWMxLjAyLTEuNzEsMS43OC0zLjUsMi4yOS01LjQ1ICAgICAgYzAuNTItMS45NiwwLjg2LTQuMDEsMC44Ni02LjEzYzAtMi4xMy0wLjI2LTQuMDktMC44Ni02LjA1Yy0wLjUxLTEuOTYtMS4yNy0zLjc1LTIuMjktNS40NWMtMS4wMy0xLjctMi4yMi0zLjI0LTMuNTgtNC42ICAgICAgYy0xLjM2LTEuMzYtMi45OC0yLjU1LTQuNi0zLjU3Yy0xLjctMS4wMy0zLjQ5LTEuNzktNS40NS0yLjNjLTEuOTYtMC41MS00LTAuODUtNi4wNC0wLjg1Yy0yLjEzLDAtNC4wOSwwLjI1LTYuMDUsMC44NSAgICAgIGMtMS45NiwwLjUxLTMuNzUsMS4yNy01LjQ1LDIuM2MtMS43LDEuMDItMy4yNCwyLjIxLTQuNiwzLjU3cy0yLjU1LDIuOTgtMy41Nyw0LjZjLTEuMDMsMS43LTEuNzksMy40OS0yLjMsNS40NSAgICAgIHMtMC44NSw0LTAuODUsNi4wNWMwLDIuMTIsMC4yNSw0LjA4LDAuODUsNi4wNGMwLjUxLDEuOTYsMS4yNywzLjc1LDIuMyw1LjQ1YzEuMDIsMS43LDIuMjEsMy4yNCwzLjU3LDQuNnMyLjk4LDIuNTUsNC42LDMuNTggICAgICBjMS43LDEuMDIsMy40OSwxLjc4LDUuNDUsMi4yOUMyNC4zNSw3NS4xMiwyNi40LDc1LjM3LDI4LjUzLDc1LjM3eiIvPiYjeGE7CQkJPC9nPiYjeGE7CQk8L2c+JiN4YTsJPC9nPiYjeGE7PC9nPiYjeGE7PC9zdmc+;labelPosition=center;align=center;imageBackground=none;fillStyle=solid;fontStyle=1" parent="1" vertex="1">
          <mxGeometry x="260" y="803" width="30" height="30" as="geometry" />
        </mxCell>
        <mxCell id="lAx5uchjGVzoTK3gPOGS-64" value="&lt;h1 style=&quot;margin-top: 0px; font-size: 12px;&quot;&gt;Email Gateway&lt;/h1&gt;&lt;p style=&quot;font-size: 12px;&quot;&gt;To Send Email to customer related to their transaction&lt;br style=&quot;font-size: 12px;&quot;&gt;Email sending will be dual control as well&lt;/p&gt;" style="text;html=1;whiteSpace=wrap;overflow=hidden;rounded=0;fontSize=12;" parent="1" vertex="1">
          <mxGeometry x="670" y="1020" width="180" height="76" as="geometry" />
        </mxCell>
        <mxCell id="lAx5uchjGVzoTK3gPOGS-65" value="&lt;h1 style=&quot;margin-top: 0px; font-size: 12px;&quot;&gt;Dot Matrix Printer&lt;/h1&gt;&lt;p style=&quot;font-size: 12px;&quot;&gt;This scanner will be used to scan Advising L/C documents&lt;/p&gt;" style="text;html=1;whiteSpace=wrap;overflow=hidden;rounded=0;fontSize=12;" parent="1" vertex="1">
          <mxGeometry x="396.5" y="1039" width="180" height="76" as="geometry" />
        </mxCell>
        <mxCell id="lAx5uchjGVzoTK3gPOGS-66" value="&lt;h1 style=&quot;margin-top: 0px; font-size: 12px;&quot;&gt;Scanner&lt;/h1&gt;&lt;p style=&quot;font-size: 12px;&quot;&gt;This scanner will be used to scan Advising L/C Documents&lt;/p&gt;" style="text;html=1;whiteSpace=wrap;overflow=hidden;rounded=0;fontSize=12;" parent="1" vertex="1">
          <mxGeometry x="214" y="906" width="166" height="76" as="geometry" />
        </mxCell>
        <mxCell id="lAx5uchjGVzoTK3gPOGS-69" value="11" style="shape=image;verticalLabelPosition=middle;labelBackgroundColor=#ffffff;verticalAlign=middle;aspect=fixed;imageAspect=0;image=data:image/svg+xml,PHN2ZyB4bWxuczpjYz0iaHR0cDovL2NyZWF0aXZlY29tbW9ucy5vcmcvbnMjIiB4bWxuczpkYz0iaHR0cDovL3B1cmwub3JnL2RjL2VsZW1lbnRzLzEuMS8iIHhtbG5zOmlua3NjYXBlPSJodHRwOi8vd3d3Lmlua3NjYXBlLm9yZy9uYW1lc3BhY2VzL2lua3NjYXBlIiB4bWxuczpyZGY9Imh0dHA6Ly93d3cudzMub3JnLzE5OTkvMDIvMjItcmRmLXN5bnRheC1ucyMiIHhtbG5zOnNvZGlwb2RpPSJodHRwOi8vc29kaXBvZGkuc291cmNlZm9yZ2UubmV0L0RURC9zb2RpcG9kaS0wLmR0ZCIgeG1sbnM6c3ZnPSJodHRwOi8vd3d3LnczLm9yZy8yMDAwL3N2ZyIgeG1sbnM9Imh0dHA6Ly93d3cudzMub3JnLzIwMDAvc3ZnIiB4bWxuczp4bGluaz0iaHR0cDovL3d3dy53My5vcmcvMTk5OS94bGluayIgdmVyc2lvbj0iMS4xIiBpZD0ic3ZnMTE5NjkzIiBpbmtzY2FwZTp2ZXJzaW9uPSIwLjkyLjMgKDI0MDU1NDYsIDIwMTgtMDMtMTEpIiBzb2RpcG9kaTpkb2NuYW1lPSJhenVyZV9jb3J0b25hX21hbmFnZW1lbnRfc3VpdGUuc3ZnIiB4PSIwcHgiIHk9IjBweCIgdmlld0JveD0iMCAwIDY1LjA2IDY1LjA2IiBzdHlsZT0iZW5hYmxlLWJhY2tncm91bmQ6bmV3IDAgMCA2NS4wNiA2NS4wNjsiIHhtbDpzcGFjZT0icHJlc2VydmUiPiYjeGE7PHNvZGlwb2RpOm5hbWVkdmlldyBib3JkZXJjb2xvcj0iIzY2NjY2NiIgYm9yZGVyb3BhY2l0eT0iMSIgZml0LW1hcmdpbi1ib3R0b209IjAiIGZpdC1tYXJnaW4tbGVmdD0iMCIgZml0LW1hcmdpbi1yaWdodD0iMCIgZml0LW1hcmdpbi10b3A9IjAiIGdyaWR0b2xlcmFuY2U9IjEwIiBndWlkZXRvbGVyYW5jZT0iMTAiIGlkPSJuYW1lZHZpZXcxMTk2OTUiIGlua3NjYXBlOmN1cnJlbnQtbGF5ZXI9InN2ZzExOTY5MyIgaW5rc2NhcGU6Y3g9IjQzLjM3MDIyNSIgaW5rc2NhcGU6Y3k9IjQzLjM3NTQyNSIgaW5rc2NhcGU6cGFnZW9wYWNpdHk9IjAiIGlua3NjYXBlOnBhZ2VzaGFkb3c9IjIiIGlua3NjYXBlOndpbmRvdy1oZWlnaHQ9IjEwMTciIGlua3NjYXBlOndpbmRvdy1tYXhpbWl6ZWQ9IjEiIGlua3NjYXBlOndpbmRvdy13aWR0aD0iMTkyMCIgaW5rc2NhcGU6d2luZG93LXg9Ii04IiBpbmtzY2FwZTp3aW5kb3cteT0iLTgiIGlua3NjYXBlOnpvb209IjguMDIwMjIwOSIgb2JqZWN0dG9sZXJhbmNlPSIxMCIgcGFnZWNvbG9yPSIjZmZmZmZmIiBzaG93Z3JpZD0iZmFsc2UiPiYjeGE7CTwvc29kaXBvZGk6bmFtZWR2aWV3PiYjeGE7PGcgaWQ9ImcxMTk2OTEiIHRyYW5zZm9ybT0idHJhbnNsYXRlKC04LjAxMDQ3LC04LjAwOTUzKSI+JiN4YTsJPHRpdGxlIGlkPSJ0aXRsZTExOTY3MyI+UGFnZS0xPC90aXRsZT4mI3hhOwk8ZyBpZD0iZ3JvdXAxMzUzLTEiIHRyYW5zZm9ybT0idHJhbnNsYXRlKDguMDEwNDcsLTguMDEwNDcpIj4mI3hhOwkJPHRpdGxlIGlkPSJ0aXRsZTExOTY3NSI+QXp1cmUgQ29ydG9uYSBNYW5hZ2VtZW50IFN1aXRlPC90aXRsZT4mI3hhOwkJPGcgaWQ9Imdyb3VwMTM1NC0yIj4mI3hhOwkJCTx0aXRsZSBpZD0idGl0bGUxMTk2NzciPlNoZWV0LjEzNTQ8L3RpdGxlPiYjeGE7CQkJPGcgaWQ9InNoYXBlMTM1NS0zIj4mI3hhOwkJCQk8dGl0bGUgaWQ9InRpdGxlMTE5Njc5Ij5TaGVldC4xMzU1PC90aXRsZT4mI3hhOwkJCQk8cGF0aCBpZD0icGF0aDExOTY4MSIgaW5rc2NhcGU6Y29ubmVjdG9yLWN1cnZhdHVyZT0iMCIgc3R5bGU9ImZpbGw6IzAwNzlENjtmaWxsLW9wYWNpdHk6MC40OyIgZD0iTTMyLjUzLDE2LjAyICAgICAgYzIuOTgsMCw1Ljg3LDAuNDMsOC42LDEuMTljMi44MSwwLjc3LDUuMzYsMS44OCw3Ljc1LDMuMzJjMi4zOCwxLjQ1LDQuNTksMy4xNSw2LjU1LDUuMTFzMy42Niw0LjE4LDUuMTEsNi41NiAgICAgIHMyLjU2LDUuMDIsMy4zMiw3Ljc1YzAuNzcsMi44MSwxLjIsNS42MiwxLjIsOC42YzAsMi45OC0wLjQzLDUuODctMS4yLDguNmMtMC43NiwyLjgxLTEuODcsNS4zNi0zLjMyLDcuNzUgICAgICBjLTEuNDUsMi4zOC0zLjE1LDQuNi01LjExLDYuNTVjLTEuOTYsMS45Ni00LjE3LDMuNjctNi41NSw1LjExYy0yLjM5LDEuNDUtNS4wMywyLjU2LTcuNzUsMy4zMmMtMi44MSwwLjc3LTUuNjIsMS4yLTguNiwxLjIgICAgICBzLTUuODgtMC40My04LjYtMS4yYy0yLjgxLTAuNzYtNS4zNy0xLjg3LTcuNzUtMy4zMmMtMi4zOS0xLjQ0LTQuNi0zLjE1LTYuNTYtNS4xMWMtMS45Ni0xLjk1LTMuNjYtNC4xNy01LjExLTYuNTUgICAgICBjLTEuNDQtMi4zOS0yLjU1LTUuMDMtMy4zMi03Ljc1QzAuNDMsNTQuNDIsMCw1MS41MywwLDQ4LjU1czAuNDMtNS44OCwxLjE5LTguNmMwLjc3LTIuODEsMS44OC01LjM3LDMuMzItNy43NSAgICAgIGMxLjQ1LTIuMzgsMy4xNS00LjYsNS4xMS02LjU2czQuMTctMy42Niw2LjU2LTUuMTFjMi4zOC0xLjQ0LDUuMDItMi41NSw3Ljc1LTMuMzJDMjYuNjUsMTYuNDUsMjkuNTUsMTYuMDIsMzIuNTMsMTYuMDJ6ICAgICAgIE0zMi41Myw3Ni42NWMyLjU1LDAsNS4xMS0wLjM0LDcuNDktMS4wMmMyLjM5LTAuNjgsNC42LTEuNjIsNi43My0yLjgxYzIuMDQtMS4yLDQtMi43Myw1LjctNC40M2MxLjcxLTEuNywzLjE1LTMuNTgsNC40My01LjcxICAgICAgYzEuMTktMi4wNCwyLjEzLTQuMzQsMi44MS02LjcyYzAuNjgtMi4zOSwxLjAyLTQuODYsMS4wMi03LjVzLTAuMzQtNS4xMS0xLjAyLTcuNDljLTAuNjgtMi4zOC0xLjYyLTQuNi0yLjgxLTYuNzMgICAgICBjLTEuMTktMi4wNC0yLjcyLTQtNC40My01LjdjLTEuNy0xLjctMy41Ny0zLjE1LTUuNy00LjQzYy0yLjA1LTEuMTktNC4zNC0yLjEzLTYuNzMtMi44MWMtMi4zOC0wLjY4LTQuODUtMS4wMi03LjQ5LTEuMDIgICAgICBjLTIuNTYsMC01LjExLDAuMzQtNy41LDEuMDJjLTIuMzgsMC42OC00LjU5LDEuNjItNi43MiwyLjgxYy0yLjA1LDEuMTktNCwyLjczLTUuNzEsNC40M2MtMS43LDEuNy0zLjE1LDMuNTctNC40Myw1LjcgICAgICBjLTEuMTksMi4wNS0yLjEyLDQuMzUtMi44MSw2LjczYy0wLjY4LDIuMzgtMS4wMiw0Ljg1LTEuMDIsNy40OXMwLjM0LDUuMTEsMS4wMiw3LjVjMC42OSwyLjM4LDEuNjIsNC41OSwyLjgxLDYuNzIgICAgICBjMS4yLDIuMDUsMi43Myw0LjAxLDQuNDMsNS43MWMxLjcxLDEuNywzLjU4LDMuMTUsNS43MSw0LjQzYzIuMDQsMS4xOSw0LjM0LDIuMTMsNi43MiwyLjgxQzI3LjUsNzYuMzEsMjkuOTcsNzYuNjUsMzIuNTMsNzYuNjUgICAgICB6Ii8+JiN4YTsJCQk8L2c+JiN4YTsJCQk8ZyBpZD0ic2hhcGUxMzU2LTUiIHRyYW5zZm9ybT0idHJhbnNsYXRlKDQuMDAyMDgsLTMuOTE2OTMpIj4mI3hhOwkJCQk8dGl0bGUgaWQ9InRpdGxlMTE5Njg0Ij5TaGVldC4xMzU2PC90aXRsZT4mI3hhOwkJCQk8cGF0aCBpZD0icGF0aDExOTY4NiIgaW5rc2NhcGU6Y29ubmVjdG9yLWN1cnZhdHVyZT0iMCIgc3R5bGU9ImZpbGw6IzAwNzlENjsiIGQ9Ik0yOC41MywyNC4wM2MyLjY0LDAsNS4xOSwwLjM0LDcuNTcsMS4wMiAgICAgIGMyLjM5LDAuNjgsNC42OSwxLjYxLDYuODIsMi44OWMyLjEyLDEuMjgsNCwyLjczLDUuNzksNC40M2MxLjcsMS43LDMuMjMsMy42Niw0LjQyLDUuNzljMS4yOCwyLjEzLDIuMjIsNC4zNCwyLjksNi44MSAgICAgIGMwLjY4LDIuMzksMS4wMiw0Ljk0LDEuMDIsNy41OGMwLDIuNjQtMC4zNCw1LjE5LTEuMDIsNy41OGMtMC42OCwyLjM4LTEuNjIsNC42OC0yLjksNi44MWMtMS4yNywyLjEzLTIuNzIsNC00LjQyLDUuNzkgICAgICBjLTEuNzEsMS43LTMuNjcsMy4yNC01Ljc5LDQuNDNjLTIuMTMsMS4yOC00LjM1LDIuMjEtNi44MiwyLjg5Yy0yLjM4LDAuNjktNC45MywxLjAzLTcuNTcsMS4wM3MtNS4yLTAuMzQtNy41OC0xLjAzICAgICAgYy0yLjM5LTAuNjgtNC42OS0xLjYxLTYuODEtMi44OWMtMi4xMy0xLjI4LTQuMDEtMi43My01LjgtNC40M2MtMS43LTEuNy0zLjIzLTMuNjYtNC40Mi01Ljc5Yy0xLjI4LTIuMTMtMi4yMi00LjM0LTIuOS02LjgxICAgICAgQzAuMzQsNTcuNzQsMCw1NS4xOSwwLDUyLjU1czAuMzQtNS4xOSwxLjAyLTcuNThjMC42OC0yLjM4LDEuNjItNC42OCwyLjktNi44MWMxLjI3LTIuMTMsMi43Mi00LDQuNDItNS43OSAgICAgIGMxLjcxLTEuNywzLjY3LTMuMjQsNS44LTQuNDNjMi4xMi0xLjI4LDQuMzQtMi4yMSw2LjgxLTIuODlTMjUuODksMjQuMDMsMjguNTMsMjQuMDN6IE0yOC41Myw3NS4zN2MyLjEyLDAsNC4wOC0wLjI1LDYuMDQtMC44NSAgICAgIGMxLjk2LTAuNTEsMy43NS0xLjI4LDUuNDUtMi4zYzEuNy0xLjAyLDMuMjQtMi4yMSw0LjYtMy41OGMxLjM2LTEuMzYsMi41NS0yLjk4LDMuNTgtNC41OWMxLjAyLTEuNzEsMS43OC0zLjUsMi4yOS01LjQ1ICAgICAgYzAuNTItMS45NiwwLjg2LTQuMDEsMC44Ni02LjEzYzAtMi4xMy0wLjI2LTQuMDktMC44Ni02LjA1Yy0wLjUxLTEuOTYtMS4yNy0zLjc1LTIuMjktNS40NWMtMS4wMy0xLjctMi4yMi0zLjI0LTMuNTgtNC42ICAgICAgYy0xLjM2LTEuMzYtMi45OC0yLjU1LTQuNi0zLjU3Yy0xLjctMS4wMy0zLjQ5LTEuNzktNS40NS0yLjNjLTEuOTYtMC41MS00LTAuODUtNi4wNC0wLjg1Yy0yLjEzLDAtNC4wOSwwLjI1LTYuMDUsMC44NSAgICAgIGMtMS45NiwwLjUxLTMuNzUsMS4yNy01LjQ1LDIuM2MtMS43LDEuMDItMy4yNCwyLjIxLTQuNiwzLjU3cy0yLjU1LDIuOTgtMy41Nyw0LjZjLTEuMDMsMS43LTEuNzksMy40OS0yLjMsNS40NSAgICAgIHMtMC44NSw0LTAuODUsNi4wNWMwLDIuMTIsMC4yNSw0LjA4LDAuODUsNi4wNGMwLjUxLDEuOTYsMS4yNywzLjc1LDIuMyw1LjQ1YzEuMDIsMS43LDIuMjEsMy4yNCwzLjU3LDQuNnMyLjk4LDIuNTUsNC42LDMuNTggICAgICBjMS43LDEuMDIsMy40OSwxLjc4LDUuNDUsMi4yOUMyNC4zNSw3NS4xMiwyNi40LDc1LjM3LDI4LjUzLDc1LjM3eiIvPiYjeGE7CQkJPC9nPiYjeGE7CQk8L2c+JiN4YTsJPC9nPiYjeGE7PC9nPiYjeGE7PC9zdmc+;labelPosition=center;align=center;imageBackground=none;fillStyle=solid;fontStyle=1" parent="1" vertex="1">
          <mxGeometry x="675.5" y="550" width="30" height="30" as="geometry" />
        </mxCell>
      </root>
    </mxGraphModel>
  </diagram>
  <diagram id="YcgZmf7ywLlG2hnvcldk" name="Page-2">
    <mxGraphModel dx="1834" dy="1222" grid="0" gridSize="10" guides="1" tooltips="1" connect="1" arrows="1" fold="1" page="0" pageScale="1" pageWidth="827" pageHeight="1169" math="0" shadow="0">
      <root>
        <mxCell id="0" />
        <mxCell id="1" parent="0" />
        <mxCell id="5jno8aryXcpKdYNAaCAs-78" value="" style="rounded=0;whiteSpace=wrap;html=1;" parent="1" vertex="1">
          <mxGeometry x="-141" y="-19" width="766" height="663" as="geometry" />
        </mxCell>
        <mxCell id="5jno8aryXcpKdYNAaCAs-13" value="IIS (Internet Information Services)" style="rounded=0;whiteSpace=wrap;html=1;verticalAlign=top;fillColor=#dae8fc;strokeColor=#6c8ebf;fontSize=11;" parent="1" vertex="1">
          <mxGeometry x="-19" y="-12" width="347" height="480" as="geometry" />
        </mxCell>
        <mxCell id="5jno8aryXcpKdYNAaCAs-8" value="" style="rounded=1;whiteSpace=wrap;html=1;fillColor=#d5e8d4;strokeColor=#82b366;" parent="1" vertex="1">
          <mxGeometry x="-14.5" y="14" width="336.5" height="85" as="geometry" />
        </mxCell>
        <mxCell id="5jno8aryXcpKdYNAaCAs-9" value="Presentation Layer" style="rounded=1;whiteSpace=wrap;html=1;direction=south;horizontal=0;fontSize=11;fillColor=#1ba1e2;fontColor=#ffffff;strokeColor=#006EAF;" parent="1" vertex="1">
          <mxGeometry x="-10.5" y="17" width="60" height="79" as="geometry" />
        </mxCell>
        <mxCell id="5jno8aryXcpKdYNAaCAs-14" value="" style="rounded=1;whiteSpace=wrap;html=1;fillColor=#d5e8d4;strokeColor=#82b366;" parent="1" vertex="1">
          <mxGeometry x="-14.5" y="105" width="336.5" height="85" as="geometry" />
        </mxCell>
        <mxCell id="5jno8aryXcpKdYNAaCAs-15" value="" style="rounded=1;whiteSpace=wrap;html=1;fillColor=#d5e8d4;strokeColor=#82b366;" parent="1" vertex="1">
          <mxGeometry x="-14.5" y="376" width="338" height="85" as="geometry" />
        </mxCell>
        <mxCell id="5jno8aryXcpKdYNAaCAs-11" value="Data&lt;div style=&quot;font-size: 11px;&quot;&gt;&lt;span style=&quot;background-color: initial; font-size: 11px;&quot;&gt;Layer&lt;/span&gt;&lt;/div&gt;" style="rounded=1;whiteSpace=wrap;html=1;direction=south;horizontal=0;align=center;verticalAlign=middle;fontSize=11;fillColor=#1ba1e2;fontColor=#ffffff;strokeColor=#006EAF;" parent="1" vertex="1">
          <mxGeometry x="-10.5" y="379" width="60" height="79" as="geometry" />
        </mxCell>
        <mxCell id="5jno8aryXcpKdYNAaCAs-10" value="Business&amp;nbsp;&lt;div&gt;Layer&lt;/div&gt;" style="rounded=1;whiteSpace=wrap;html=1;direction=south;horizontal=0;fontSize=11;fillColor=#1ba1e2;fontColor=#ffffff;strokeColor=#006EAF;" parent="1" vertex="1">
          <mxGeometry x="-10.5" y="108" width="60" height="79" as="geometry" />
        </mxCell>
        <mxCell id="5jno8aryXcpKdYNAaCAs-16" value=".NET Framework" style="rounded=1;whiteSpace=wrap;html=1;fontSize=8;fillColor=#60a917;fontColor=#ffffff;strokeColor=#2D7600;" parent="1" vertex="1">
          <mxGeometry x="68.5" y="22" width="224" height="19" as="geometry" />
        </mxCell>
        <mxCell id="5jno8aryXcpKdYNAaCAs-17" value="ASP. Net (C#), JavaScript, HTML" style="rounded=1;whiteSpace=wrap;html=1;fontSize=8;fillColor=#60a917;fontColor=#ffffff;strokeColor=#2D7600;" parent="1" vertex="1">
          <mxGeometry x="68.5" y="47" width="224" height="19" as="geometry" />
        </mxCell>
        <mxCell id="5jno8aryXcpKdYNAaCAs-18" value="DevExpress" style="rounded=1;whiteSpace=wrap;html=1;fontSize=8;fillColor=#60a917;fontColor=#ffffff;strokeColor=#2D7600;" parent="1" vertex="1">
          <mxGeometry x="68.5" y="72" width="224" height="19" as="geometry" />
        </mxCell>
        <mxCell id="5jno8aryXcpKdYNAaCAs-20" value="K2 Workflow" style="rounded=1;whiteSpace=wrap;html=1;fontSize=8;fillColor=#60a917;fontColor=#ffffff;strokeColor=#2D7600;" parent="1" vertex="1">
          <mxGeometry x="200" y="153" width="104" height="19" as="geometry" />
        </mxCell>
        <mxCell id="5jno8aryXcpKdYNAaCAs-21" value="" style="rounded=1;whiteSpace=wrap;html=1;fillColor=#d5e8d4;strokeColor=#82b366;" parent="1" vertex="1">
          <mxGeometry x="-14.5" y="286" width="338" height="85" as="geometry" />
        </mxCell>
        <mxCell id="5jno8aryXcpKdYNAaCAs-22" value="Server&lt;div style=&quot;font-size: 11px;&quot;&gt;&lt;span style=&quot;background-color: initial; font-size: 11px;&quot;&gt;Layer&lt;/span&gt;&lt;/div&gt;" style="rounded=1;whiteSpace=wrap;html=1;direction=south;horizontal=0;align=center;verticalAlign=middle;fontSize=11;fillColor=#1ba1e2;fontColor=#ffffff;strokeColor=#006EAF;" parent="1" vertex="1">
          <mxGeometry x="-10.5" y="289" width="60" height="79" as="geometry" />
        </mxCell>
        <mxCell id="5jno8aryXcpKdYNAaCAs-23" value="Email SMTP" style="rounded=1;whiteSpace=wrap;html=1;fontSize=8;fillColor=#60a917;fontColor=#ffffff;strokeColor=#2D7600;" parent="1" vertex="1">
          <mxGeometry x="68.5" y="137.5" width="100.5" height="19" as="geometry" />
        </mxCell>
        <mxCell id="5jno8aryXcpKdYNAaCAs-24" value="Printer Web AddOn" style="rounded=1;whiteSpace=wrap;html=1;fontSize=8;fillColor=#60a917;fontColor=#ffffff;strokeColor=#2D7600;" parent="1" vertex="1">
          <mxGeometry x="69.5" y="162" width="100.5" height="19" as="geometry" />
        </mxCell>
        <mxCell id="5jno8aryXcpKdYNAaCAs-25" value="Driver Scanner" style="rounded=1;whiteSpace=wrap;html=1;fontSize=8;fillColor=#60a917;fontColor=#ffffff;strokeColor=#2D7600;" parent="1" vertex="1">
          <mxGeometry x="68.5" y="111" width="100.5" height="19" as="geometry" />
        </mxCell>
        <mxCell id="5jno8aryXcpKdYNAaCAs-26" value="Message Type" style="rounded=1;whiteSpace=wrap;html=1;fontSize=8;fillColor=#60a917;fontColor=#ffffff;strokeColor=#2D7600;" parent="1" vertex="1">
          <mxGeometry x="68" y="303" width="220" height="19" as="geometry" />
        </mxCell>
        <mxCell id="5jno8aryXcpKdYNAaCAs-27" value="Service Interface" style="rounded=1;whiteSpace=wrap;html=1;fontSize=8;fillColor=#60a917;fontColor=#ffffff;strokeColor=#2D7600;" parent="1" vertex="1">
          <mxGeometry x="68" y="339" width="219" height="19" as="geometry" />
        </mxCell>
        <mxCell id="5jno8aryXcpKdYNAaCAs-28" value="Data Helper" style="rounded=1;whiteSpace=wrap;html=1;fontSize=8;fillColor=#60a917;fontColor=#ffffff;strokeColor=#2D7600;" parent="1" vertex="1">
          <mxGeometry x="65" y="421" width="87" height="19" as="geometry" />
        </mxCell>
        <mxCell id="5jno8aryXcpKdYNAaCAs-29" value="Data Access" style="rounded=1;whiteSpace=wrap;html=1;fontSize=8;fillColor=#60a917;fontColor=#ffffff;strokeColor=#2D7600;" parent="1" vertex="1">
          <mxGeometry x="142" y="392" width="91" height="19" as="geometry" />
        </mxCell>
        <mxCell id="5jno8aryXcpKdYNAaCAs-30" value="Service Agent" style="rounded=1;whiteSpace=wrap;html=1;fontSize=8;fillColor=#60a917;fontColor=#ffffff;strokeColor=#2D7600;" parent="1" vertex="1">
          <mxGeometry x="221" y="421" width="91" height="19" as="geometry" />
        </mxCell>
        <mxCell id="5jno8aryXcpKdYNAaCAs-33" value="" style="shape=flexArrow;endArrow=classic;html=1;rounded=0;fontSize=12;startSize=8;endSize=4.617142857142857;curved=1;fillColor=#60a917;strokeColor=#2D7600;endWidth=20;" parent="1" edge="1">
          <mxGeometry width="50" height="50" relative="1" as="geometry">
            <mxPoint x="-67" y="34.71000000000001" as="sourcePoint" />
            <mxPoint x="-25" y="34.71000000000001" as="targetPoint" />
          </mxGeometry>
        </mxCell>
        <mxCell id="5jno8aryXcpKdYNAaCAs-37" value="" style="shape=flexArrow;endArrow=classic;html=1;rounded=0;fontSize=12;startSize=8;endSize=4.617142857142857;curved=1;fillColor=#60a917;strokeColor=#2D7600;endWidth=20;" parent="1" edge="1">
          <mxGeometry width="50" height="50" relative="1" as="geometry">
            <mxPoint x="-26" y="84.71000000000001" as="sourcePoint" />
            <mxPoint x="-68" y="84.71000000000001" as="targetPoint" />
          </mxGeometry>
        </mxCell>
        <mxCell id="5jno8aryXcpKdYNAaCAs-38" value="" style="shape=flexArrow;endArrow=classic;html=1;rounded=0;fontSize=12;startSize=4.617142857142857;endSize=4.617142857142857;curved=1;fillColor=#60a917;strokeColor=#2D7600;endWidth=20;startArrow=block;startWidth=20;" parent="1" edge="1">
          <mxGeometry width="50" height="50" relative="1" as="geometry">
            <mxPoint x="335" y="322" as="sourcePoint" />
            <mxPoint x="393" y="322" as="targetPoint" />
            <Array as="points">
              <mxPoint x="354" y="322" />
            </Array>
          </mxGeometry>
        </mxCell>
        <mxCell id="5jno8aryXcpKdYNAaCAs-44" value="OVS Wrapper" style="edgeLabel;html=1;align=center;verticalAlign=middle;resizable=0;points=[];fontSize=6;" parent="5jno8aryXcpKdYNAaCAs-38" vertex="1" connectable="0">
          <mxGeometry x="-0.0278" y="1" relative="1" as="geometry">
            <mxPoint x="-1" y="23" as="offset" />
          </mxGeometry>
        </mxCell>
        <mxCell id="5jno8aryXcpKdYNAaCAs-48" value="" style="group" parent="1" vertex="1" connectable="0">
          <mxGeometry x="338" y="53" width="52" height="19" as="geometry" />
        </mxCell>
        <mxCell id="5jno8aryXcpKdYNAaCAs-45" value="" style="shape=flexArrow;endArrow=classic;html=1;rounded=0;fontSize=12;startSize=8;endSize=4.617142857142857;curved=1;fillColor=#60a917;strokeColor=#2D7600;endWidth=20;" parent="5jno8aryXcpKdYNAaCAs-48" edge="1">
          <mxGeometry width="50" height="50" relative="1" as="geometry">
            <mxPoint x="10" y="1" as="sourcePoint" />
            <mxPoint x="52" y="1" as="targetPoint" />
          </mxGeometry>
        </mxCell>
        <mxCell id="5jno8aryXcpKdYNAaCAs-47" value="Hyperlink" style="text;html=1;align=center;verticalAlign=middle;resizable=0;points=[];autosize=1;strokeColor=none;fillColor=none;fontSize=6;" parent="5jno8aryXcpKdYNAaCAs-48" vertex="1">
          <mxGeometry width="43" height="19" as="geometry" />
        </mxCell>
        <mxCell id="5jno8aryXcpKdYNAaCAs-50" value="" style="shape=flexArrow;endArrow=classic;html=1;rounded=0;fontSize=12;startSize=8;endSize=4.617142857142857;curved=1;fillColor=#60a917;strokeColor=#2D7600;endWidth=20;" parent="1" edge="1">
          <mxGeometry width="50" height="50" relative="1" as="geometry">
            <mxPoint x="345" y="420" as="sourcePoint" />
            <mxPoint x="387" y="420" as="targetPoint" />
          </mxGeometry>
        </mxCell>
        <mxCell id="5jno8aryXcpKdYNAaCAs-51" value="Linked Server" style="text;html=1;align=center;verticalAlign=middle;resizable=0;points=[];autosize=1;strokeColor=none;fillColor=none;fontSize=6;" parent="1" vertex="1">
          <mxGeometry x="335" y="431" width="55" height="19" as="geometry" />
        </mxCell>
        <mxCell id="5jno8aryXcpKdYNAaCAs-71" style="edgeStyle=none;curved=1;rounded=0;orthogonalLoop=1;jettySize=auto;html=1;entryX=1;entryY=0.5;entryDx=0;entryDy=0;fontSize=12;startSize=8;endSize=8;endArrow=block;endFill=1;strokeWidth=4;fillColor=#d5e8d4;strokeColor=#82b366;exitX=-0.016;exitY=0.829;exitDx=0;exitDy=0;exitPerimeter=0;" parent="1" source="5jno8aryXcpKdYNAaCAs-62" target="5jno8aryXcpKdYNAaCAs-67" edge="1">
          <mxGeometry relative="1" as="geometry">
            <mxPoint x="398" y="524.5" as="sourcePoint" />
          </mxGeometry>
        </mxCell>
        <mxCell id="5jno8aryXcpKdYNAaCAs-62" value="Data Warehouse" style="rounded=0;whiteSpace=wrap;html=1;verticalAlign=top;fontSize=11;" parent="1" vertex="1">
          <mxGeometry x="398" y="479" width="120" height="89" as="geometry" />
        </mxCell>
        <mxCell id="5jno8aryXcpKdYNAaCAs-64" value="DWH" style="shape=cylinder3;whiteSpace=wrap;html=1;boundedLbl=1;backgroundOutline=1;size=9.833333333333428;fontSize=11;fillColor=#1ba1e2;fontColor=#ffffff;strokeColor=#006EAF;" parent="1" vertex="1">
          <mxGeometry x="442" y="505" width="38" height="52" as="geometry" />
        </mxCell>
        <mxCell id="5jno8aryXcpKdYNAaCAs-65" value="" style="rounded=0;whiteSpace=wrap;html=1;" parent="1" vertex="1">
          <mxGeometry x="398" y="579" width="120" height="60" as="geometry" />
        </mxCell>
        <mxCell id="5jno8aryXcpKdYNAaCAs-66" value="Trade Compass (TC)" style="rounded=1;whiteSpace=wrap;html=1;fontSize=11;fillColor=#6d8764;fontColor=#ffffff;strokeColor=#3A5431;" parent="1" vertex="1">
          <mxGeometry x="407.5" y="592.5" width="101" height="33" as="geometry" />
        </mxCell>
        <mxCell id="5jno8aryXcpKdYNAaCAs-70" style="edgeStyle=orthogonalEdgeStyle;rounded=0;orthogonalLoop=1;jettySize=auto;html=1;entryX=0;entryY=0.5;entryDx=0;entryDy=0;fontSize=12;startSize=8;endSize=8;exitX=0.5;exitY=1;exitDx=0;exitDy=0;startArrow=block;startFill=1;endArrow=block;endFill=1;strokeWidth=5;strokeColor=#82b366;fillColor=#d5e8d4;" parent="1" source="5jno8aryXcpKdYNAaCAs-67" target="5jno8aryXcpKdYNAaCAs-65" edge="1">
          <mxGeometry relative="1" as="geometry" />
        </mxCell>
        <mxCell id="5jno8aryXcpKdYNAaCAs-67" value="WN Services" style="rounded=1;whiteSpace=wrap;html=1;fontSize=8;fillColor=#1ba1e2;fontColor=#ffffff;strokeColor=#006EAF;" parent="1" vertex="1">
          <mxGeometry x="209" y="534.5" width="105" height="38" as="geometry" />
        </mxCell>
        <mxCell id="5jno8aryXcpKdYNAaCAs-68" value="Local Datasource SQL Server&amp;nbsp;" style="rounded=0;whiteSpace=wrap;html=1;verticalAlign=top;fontSize=11;fillColor=#dae8fc;strokeColor=#6c8ebf;" parent="1" vertex="1">
          <mxGeometry x="-19" y="520" width="159" height="80" as="geometry" />
        </mxCell>
        <mxCell id="5jno8aryXcpKdYNAaCAs-69" value="SQL" style="shape=cylinder3;whiteSpace=wrap;html=1;boundedLbl=1;backgroundOutline=1;size=9.833333333333428;fontSize=11;fillColor=#1ba1e2;strokeColor=#006EAF;fontColor=#ffffff;" parent="1" vertex="1">
          <mxGeometry x="36" y="545" width="38" height="51" as="geometry" />
        </mxCell>
        <mxCell id="5jno8aryXcpKdYNAaCAs-72" style="edgeStyle=none;curved=1;rounded=0;orthogonalLoop=1;jettySize=auto;html=1;entryX=1.007;entryY=0.403;entryDx=0;entryDy=0;entryPerimeter=0;fontSize=12;startSize=8;endSize=8;endArrow=block;endFill=1;strokeWidth=4;fillColor=#d5e8d4;strokeColor=#82b366;" parent="1" source="5jno8aryXcpKdYNAaCAs-67" target="5jno8aryXcpKdYNAaCAs-68" edge="1">
          <mxGeometry relative="1" as="geometry" />
        </mxCell>
        <mxCell id="5jno8aryXcpKdYNAaCAs-73" style="edgeStyle=none;curved=1;rounded=0;orthogonalLoop=1;jettySize=auto;html=1;fontSize=12;startSize=8;endSize=8;startArrow=block;startFill=1;endArrow=block;endFill=1;fillColor=#d5e8d4;strokeColor=#82b366;strokeWidth=4;" parent="1" edge="1">
          <mxGeometry relative="1" as="geometry">
            <mxPoint x="60.29381443298962" y="523" as="sourcePoint" />
            <mxPoint x="60" y="466" as="targetPoint" />
          </mxGeometry>
        </mxCell>
        <mxCell id="5jno8aryXcpKdYNAaCAs-1" value="" style="rounded=1;whiteSpace=wrap;html=1;direction=south;container=0;fillColor=#dae8fc;strokeColor=#6c8ebf;" parent="1" vertex="1">
          <mxGeometry x="-133" width="60" height="120" as="geometry" />
        </mxCell>
        <mxCell id="5jno8aryXcpKdYNAaCAs-2" value="Client" style="rounded=1;whiteSpace=wrap;html=1;direction=south;horizontal=0;container=0;fillColor=#1ba1e2;fontColor=#ffffff;strokeColor=#006EAF;" parent="1" vertex="1">
          <mxGeometry x="-128" y="5" width="22" height="111" as="geometry" />
        </mxCell>
        <mxCell id="5jno8aryXcpKdYNAaCAs-3" value="Browser IE 11" style="rounded=1;whiteSpace=wrap;html=1;direction=south;horizontal=0;container=0;fillColor=#1ba1e2;fontColor=#ffffff;strokeColor=#006EAF;" parent="1" vertex="1">
          <mxGeometry x="-100" y="5" width="22" height="111" as="geometry" />
        </mxCell>
        <mxCell id="bkPoYH1nQiL1s7RBerq6-3" value="" style="rounded=1;whiteSpace=wrap;html=1;fillColor=#d5e8d4;strokeColor=#82b366;" vertex="1" parent="1">
          <mxGeometry x="-14.5" y="195" width="337.5" height="85" as="geometry" />
        </mxCell>
        <mxCell id="bkPoYH1nQiL1s7RBerq6-2" value="Web&lt;div&gt;Services&lt;/div&gt;" style="rounded=1;whiteSpace=wrap;html=1;direction=south;horizontal=0;fontSize=11;fillColor=#1ba1e2;fontColor=#ffffff;strokeColor=#006EAF;" vertex="1" parent="1">
          <mxGeometry x="-10.5" y="198" width="60" height="79" as="geometry" />
        </mxCell>
        <mxCell id="5jno8aryXcpKdYNAaCAs-35" value="" style="rounded=0;whiteSpace=wrap;html=1;fillColor=#dae8fc;strokeColor=#6c8ebf;" parent="1" vertex="1">
          <mxGeometry x="398" y="-12" width="120" height="480" as="geometry" />
        </mxCell>
        <mxCell id="5jno8aryXcpKdYNAaCAs-7" value="External System" style="rounded=0;whiteSpace=wrap;html=1;fillColor=#1ba1e2;fontColor=#ffffff;strokeColor=#006EAF;fontSize=11;" parent="1" vertex="1">
          <mxGeometry x="398" y="-11" width="120" height="25" as="geometry" />
        </mxCell>
        <mxCell id="5jno8aryXcpKdYNAaCAs-54" value="GBOSS" style="rounded=1;whiteSpace=wrap;html=1;fontSize=11;fillColor=#0050ef;fontColor=#ffffff;strokeColor=#001DBC;" parent="1" vertex="1">
          <mxGeometry x="408" y="34.5" width="97" height="71.5" as="geometry" />
        </mxCell>
        <mxCell id="5jno8aryXcpKdYNAaCAs-56" value="OVS BAS" style="rounded=1;whiteSpace=wrap;html=1;fontSize=11;fillColor=#e3c800;fontColor=#000000;strokeColor=#B09500;" parent="1" vertex="1">
          <mxGeometry x="408" y="293" width="100" height="53" as="geometry" />
        </mxCell>
        <mxCell id="5jno8aryXcpKdYNAaCAs-55" value="BESS" style="rounded=1;whiteSpace=wrap;html=1;fontSize=11;fillColor=#fa6800;fontColor=#000000;strokeColor=#C73500;" parent="1" vertex="1">
          <mxGeometry x="563" y="295" width="58" height="49" as="geometry" />
        </mxCell>
        <mxCell id="5jno8aryXcpKdYNAaCAs-57" value="" style="shape=flexArrow;endArrow=classic;html=1;rounded=0;fontSize=12;startSize=8;endSize=4.617142857142857;curved=1;fillColor=#60a917;strokeColor=#2D7600;endWidth=20;" parent="1" edge="1">
          <mxGeometry width="50" height="50" relative="1" as="geometry">
            <mxPoint x="520" y="318.99999999999994" as="sourcePoint" />
            <mxPoint x="562" y="318.99999999999994" as="targetPoint" />
          </mxGeometry>
        </mxCell>
        <mxCell id="5jno8aryXcpKdYNAaCAs-58" value="" style="rounded=0;whiteSpace=wrap;html=1;" parent="1" vertex="1">
          <mxGeometry x="406.5" y="360" width="102.5" height="100" as="geometry" />
        </mxCell>
        <mxCell id="5jno8aryXcpKdYNAaCAs-59" value="CONE" style="rounded=1;whiteSpace=wrap;html=1;fontSize=11;" parent="1" vertex="1">
          <mxGeometry x="425" y="378" width="59" height="27" as="geometry" />
        </mxCell>
        <mxCell id="5jno8aryXcpKdYNAaCAs-60" value="BTMU Directory" style="rounded=1;whiteSpace=wrap;html=1;fontSize=11;" parent="1" vertex="1">
          <mxGeometry x="412" y="417" width="92" height="34" as="geometry" />
        </mxCell>
        <mxCell id="5jno8aryXcpKdYNAaCAs-74" value="RWS Regional" style="rounded=1;whiteSpace=wrap;html=1;fontSize=11;fillColor=#76608a;strokeColor=#432D57;fontColor=#ffffff;" parent="1" vertex="1">
          <mxGeometry x="409.25" y="125" width="97" height="142" as="geometry" />
        </mxCell>
        <mxCell id="bkPoYH1nQiL1s7RBerq6-4" value="Export Web Services" style="rounded=1;whiteSpace=wrap;html=1;fontSize=8;fillColor=#60a917;fontColor=#ffffff;strokeColor=#2D7600;" vertex="1" parent="1">
          <mxGeometry x="69.5" y="202" width="99.5" height="19" as="geometry" />
        </mxCell>
        <mxCell id="bkPoYH1nQiL1s7RBerq6-5" value="Import Web Services" style="rounded=1;whiteSpace=wrap;html=1;fontSize=8;fillColor=#60a917;fontColor=#ffffff;strokeColor=#2D7600;" vertex="1" parent="1">
          <mxGeometry x="69.5" y="228" width="97.5" height="19" as="geometry" />
        </mxCell>
        <mxCell id="bkPoYH1nQiL1s7RBerq6-6" value="Trade Loan Web Services" style="rounded=1;whiteSpace=wrap;html=1;fontSize=8;fillColor=#60a917;fontColor=#ffffff;strokeColor=#2D7600;" vertex="1" parent="1">
          <mxGeometry x="203" y="202" width="101" height="19" as="geometry" />
        </mxCell>
        <mxCell id="bkPoYH1nQiL1s7RBerq6-7" value="Shipping Web Services" style="rounded=1;whiteSpace=wrap;html=1;fontSize=8;fillColor=#60a917;fontColor=#ffffff;strokeColor=#2D7600;" vertex="1" parent="1">
          <mxGeometry x="69.5" y="254" width="97.5" height="19" as="geometry" />
        </mxCell>
        <mxCell id="bkPoYH1nQiL1s7RBerq6-12" value="" style="shape=flexArrow;endArrow=classic;html=1;rounded=0;fontSize=12;startSize=8;endSize=4.617142857142857;curved=1;fillColor=#60a917;strokeColor=#2D7600;endWidth=20;" edge="1" parent="1">
          <mxGeometry width="50" height="50" relative="1" as="geometry">
            <mxPoint x="385" y="225" as="sourcePoint" />
            <mxPoint x="343" y="225" as="targetPoint" />
          </mxGeometry>
        </mxCell>
        <mxCell id="bkPoYH1nQiL1s7RBerq6-13" value="K2 Api" style="text;html=1;align=center;verticalAlign=middle;resizable=0;points=[];autosize=1;strokeColor=none;fillColor=none;fontSize=6;" vertex="1" parent="1">
          <mxGeometry x="353" y="227" width="35" height="19" as="geometry" />
        </mxCell>
        <mxCell id="bkPoYH1nQiL1s7RBerq6-9" value="" style="shape=flexArrow;endArrow=classic;html=1;rounded=0;fontSize=12;startSize=8;endSize=4.617142857142857;curved=1;fillColor=#60a917;strokeColor=#2D7600;endWidth=20;" edge="1" parent="1">
          <mxGeometry width="50" height="50" relative="1" as="geometry">
            <mxPoint x="346" y="160" as="sourcePoint" />
            <mxPoint x="388" y="160" as="targetPoint" />
          </mxGeometry>
        </mxCell>
        <mxCell id="bkPoYH1nQiL1s7RBerq6-10" value="K2 Api" style="text;html=1;align=center;verticalAlign=middle;resizable=0;points=[];autosize=1;strokeColor=none;fillColor=none;fontSize=6;" vertex="1" parent="1">
          <mxGeometry x="340" y="161" width="35" height="19" as="geometry" />
        </mxCell>
        <mxCell id="bkPoYH1nQiL1s7RBerq6-16" value="Interface Web Services" style="rounded=1;whiteSpace=wrap;html=1;fontSize=8;fillColor=#60a917;fontColor=#ffffff;strokeColor=#2D7600;" vertex="1" parent="1">
          <mxGeometry x="203" y="228" width="101" height="19" as="geometry" />
        </mxCell>
        <mxCell id="bkPoYH1nQiL1s7RBerq6-19" value="Svc Web Services" style="rounded=1;whiteSpace=wrap;html=1;fontSize=8;fillColor=#60a917;fontColor=#ffffff;strokeColor=#2D7600;" vertex="1" parent="1">
          <mxGeometry x="203" y="254" width="101" height="19" as="geometry" />
        </mxCell>
      </root>
    </mxGraphModel>
  </diagram>
</mxfile>
